<svg xmlns="http://www.w3.org/2000/svg" xmlns:xlink="http://www.w3.org/1999/xlink" viewBox="0 0 600 400"><defs><style>.cls-1{fill:none;}.cls-2{isolation:isolate;}.cls-3{fill:#1b1c63;opacity:0.3;}.cls-4{fill:#dce7f5;}.cls-5{fill:#fff;}.cls-6,.cls-9{fill:#cdd5ea;}.cls-6{opacity:0.4;mix-blend-mode:multiply;}.cls-7{fill:#9fadd3;}.cls-8{fill:#361a53;}.cls-10{clip-path:url(#clip-path);}.cls-11{opacity:0.6;}.cls-12{clip-path:url(#clip-path-2);}.cls-13{clip-path:url(#clip-path-3);}.cls-14,.cls-17,.cls-18,.cls-20,.cls-22,.cls-23{fill:#fc6591;}.cls-15{fill:#5b3a89;}.cls-16{clip-path:url(#clip-path-4);}.cls-17{opacity:0.7;}.cls-18{opacity:0.91;}.cls-19{clip-path:url(#clip-path-5);}.cls-20{opacity:0.8;}.cls-21{clip-path:url(#clip-path-6);}.cls-22{opacity:0.6;}.cls-23{opacity:0.84;}.cls-24{clip-path:url(#clip-path-7);}.cls-25{fill:#262768;}.cls-26{clip-path:url(#clip-path-8);}.cls-27{clip-path:url(#clip-path-9);}</style><clipPath id="clip-path"><polygon class="cls-1" points="285.8 127.05 295.51 121.41 331.96 142.45 322.25 148.09 285.8 127.05"/></clipPath><clipPath id="clip-path-2"><polygon class="cls-1" points="269.86 132.29 274.58 129.54 326.4 159.46 321.68 162.21 269.86 132.29"/></clipPath><clipPath id="clip-path-3"><polygon class="cls-1" points="482.51 128.97 491.34 123.84 500.15 128.93 491.32 134.06 482.51 128.97"/></clipPath><clipPath id="clip-path-4"><polygon class="cls-1" points="173.29 258.85 249.56 214.53 326.34 258.85 250.06 303.18 173.29 258.85"/></clipPath><clipPath id="clip-path-5"><polygon class="cls-1" points="351.42 156.67 427.69 112.34 504.47 156.67 428.19 201 351.42 156.67"/></clipPath><clipPath id="clip-path-6"><polygon class="cls-1" points="261.39 206.85 337.66 162.52 414.44 206.85 338.17 251.18 261.39 206.85"/></clipPath><clipPath id="clip-path-7"><polygon class="cls-1" points="315.25 201.09 330.48 192.25 362.58 210.78 347.36 219.63 315.25 201.09"/></clipPath><clipPath id="clip-path-8"><polygon class="cls-1" points="227.57 254.95 242.79 246.1 275.01 264.7 259.78 273.54 227.57 254.95"/></clipPath><clipPath id="clip-path-9"><polygon class="cls-1" points="406.48 151.17 421.64 142.36 453.89 160.99 438.73 169.8 406.48 151.17"/></clipPath></defs><title>Asset 1seo2</title><g class="cls-2"><g id="Layer_2" data-name="Layer 2"><g id="OBJECTS"><rect class="cls-1" width="600" height="400"/><path class="cls-3" d="M596.88,128.43a29.32,29.32,0,0,0-.79-4,27.44,27.44,0,0,0-1.52-4.13,26.37,26.37,0,0,0-1.81-3.25,23,23,0,0,0-2-2.63,39,39,0,0,0-3-3,48.87,48.87,0,0,0-4-3c-.65-.46-1.58-1-2.26-1.4a1.16,1.16,0,0,0-1.24,0c16.54,9.55,16.63,25,.19,34.59l-359.69,209c-16.43,9.55-43.17,9.55-59.71,0h0l-140.37-81c-16.54-9.55-16.63-25-.2-34.59a1.17,1.17,0,0,0-1.26,0c-1.27.79-2.94,1.89-4.15,2.76a21.81,21.81,0,0,0-1.88,1.55c-.82.77-1.91,1.8-2.64,2.65a27.52,27.52,0,0,0-2.59,3.47A26.35,26.35,0,0,0,5,252.45a27.1,27.1,0,0,0-.77,3.93A29.6,29.6,0,0,0,4,260v1.95a15.63,15.63,0,0,0,.47,3.89A15.63,15.63,0,0,1,4,261.9a28.51,28.51,0,0,0,1.1,8,26.86,26.86,0,0,0,3,6.75,27.71,27.71,0,0,0,2.1,2.88,44.65,44.65,0,0,0,3.19,3.26,43.21,43.21,0,0,0,3.9,3c.64.45,1.55,1,2.21,1.37h0l140.37,81a46.21,46.21,0,0,0,5.69,2.79c1.74.67,4.11,1.48,5.89,2.05.93.3,2.2.6,3.15.83A73.51,73.51,0,0,0,191,375.73a71.89,71.89,0,0,0,16.43-1.86c1-.23,2.28-.54,3.23-.85,1.77-.57,4.12-1.39,5.86-2.06.91-.36,2.09-.92,3-1.36s1.81-1,2.58-1.39a3,3,0,0,0,1.12-1.55,3,3,0,0,1-1.12,1.55L366,284.6,581.77,159.18c1.22-.75,2.84-1.77,4-2.64s2.53-2.13,3.56-3.11a22.65,22.65,0,0,0,2.14-2.44c.64-.83,1.42-2,2-2.9A26.09,26.09,0,0,0,596,142a27.91,27.91,0,0,0,.82-3.9,29.88,29.88,0,0,0,.28-3.94h0v-2A29.57,29.57,0,0,0,596.88,128.43Z"/><path class="cls-4" d="M376.09,24.51a1.19,1.19,0,0,1,1.27,0c16.43-9.56,43.18-9.55,59.72,0a1.16,1.16,0,0,1,1.24,0,45.27,45.27,0,0,0-5.69-2.79c-1.75-.67-4.11-1.49-5.89-2.05-.94-.3-2.21-.6-3.16-.83A73.5,73.5,0,0,0,407.17,17a71.89,71.89,0,0,0-16.43,1.86c-1,.24-2.28.55-3.23.85-1.77.57-4.12,1.4-5.86,2.07-.92.35-2.1.92-3,1.36S376.87,24.09,376.09,24.51Z"/><path class="cls-4" d="M438.32,24.5l14,8.1,14,8.11,14,8.1,14,8.11,14,8.1,14,8.1,14,8.11,14,8.1,14,8.11,14,8.1a1.16,1.16,0,0,0-1.24,0l-140.37-81A1.16,1.16,0,0,1,438.32,24.5Z"/><path class="cls-4" d="M16.4,233.54l36-20.91,36-20.9,36-20.9,36-20.91,36-20.9,36-20.9,36-20.91,36-20.9,36-20.9,36-20.9a1.19,1.19,0,0,1,1.27,0l-359.7,209A1.17,1.17,0,0,0,16.4,233.54Z"/><path class="cls-4" d="M577.45,105.58c16.54,9.55,16.62,25,.18,34.59l-359.69,209c-16.43,9.55-43.17,9.55-59.71,0l-140.36-81c-16.55-9.55-16.64-25-.21-34.59l359.7-209c16.43-9.56,43.18-9.55,59.72,0Z"/><path class="cls-5" d="M538.92,144.66c2.15,1.24,2.16,3.26,0,4.5L228.43,329.62a8.58,8.58,0,0,1-7.77,0l-175-101c-2.15-1.24-2.15-3.26,0-4.5L356.19,43.64a8.6,8.6,0,0,1,7.78,0Z"/><path class="cls-5" d="M539.63,144.25c2.54,1.46,2.55,3.85,0,5.32L229.14,330a10.13,10.13,0,0,1-9.19,0L45,229c-2.54-1.46-2.55-3.85,0-5.32L355.48,43.23a10.15,10.15,0,0,1,9.2,0ZM228.43,329.62,538.94,149.16c2.14-1.24,2.13-3.26,0-4.5L364,43.64a8.6,8.6,0,0,0-7.78,0L45.68,224.1c-2.13,1.24-2.13,3.26,0,4.5l175,101a8.58,8.58,0,0,0,7.77,0"/><path class="cls-6" d="M115.62,279.16c8.45,4.88,8.5,12.78.1,17.66s-22,4.87-30.47,0-8.49-12.78-.1-17.65S107.18,274.29,115.62,279.16Z"/><path class="cls-7" d="M87.29,281.32c8.39-4.88,22-4.87,30.48,0a17.4,17.4,0,0,1,2.27,1.57,14.93,14.93,0,0,0-4.43-3.72c-8.44-4.88-22.08-4.88-30.47,0-7.55,4.38-8.25,11.2-2.18,16.08C79.39,290.66,80.81,285.09,87.29,281.32Z"/><path class="cls-8" d="M492.67,84.53c1.69,1,1.7,2.56,0,3.53a6.67,6.67,0,0,1-6.09,0L456,70.41c-1.69-1-1.7-2.56,0-3.53a6.72,6.72,0,0,1,6.11,0Z"/><path class="cls-8" d="M444.43,56.68c1.69,1,1.7,2.55,0,3.53a6.74,6.74,0,0,1-6.09,0c-1.69-1-1.7-2.56,0-3.53A6.7,6.7,0,0,1,444.43,56.68Z"/><path class="cls-9" d="M594,127a27.59,27.59,0,0,0-.8-4,26.76,26.76,0,0,0-1.51-4.13,27.3,27.3,0,0,0-1.82-3.25,20.88,20.88,0,0,0-2-2.63,40.6,40.6,0,0,0-3-3,47,47,0,0,0-4-3c-.64-.46-1.57-1-2.25-1.39a1.16,1.16,0,0,0-1.24,0c16.54,9.54,16.63,25,.19,34.58L218,349.17c-16.43,9.56-43.17,9.56-59.7,0h0L17.91,268.13c-16.54-9.54-16.64-25-.2-34.58a1.21,1.21,0,0,0-1.27,0c-1.27.79-2.93,1.9-4.14,2.77a20,20,0,0,0-1.89,1.55,34.74,34.74,0,0,0-2.64,2.65A27.8,27.8,0,0,0,5.18,244,26.5,26.5,0,0,0,2.1,251,29.94,29.94,0,0,0,1.33,255a29.59,29.59,0,0,0-.22,3.56v1.95a16.2,16.2,0,0,0,.48,3.9,16.2,16.2,0,0,1-.48-3.9,28.83,28.83,0,0,0,1.1,8,26.59,26.59,0,0,0,3,6.75,25.39,25.39,0,0,0,2.1,2.88,42.78,42.78,0,0,0,3.19,3.27,43.55,43.55,0,0,0,3.9,3c.63.46,1.54,1,2.21,1.37h0l140.36,81a46.05,46.05,0,0,0,5.69,2.79c1.75.67,4.11,1.49,5.9,2.06.93.29,2.2.59,3.15.82a73.5,73.5,0,0,0,16.41,1.85,72,72,0,0,0,16.43-1.86c1-.24,2.27-.55,3.22-.85,1.78-.57,4.13-1.39,5.86-2.07.92-.35,2.1-.92,3-1.36s1.81-1,2.58-1.38a3.09,3.09,0,0,0,1.12-1.55,3.09,3.09,0,0,1-1.12,1.55l143.88-83.62L578.89,157.75c1.22-.76,2.85-1.78,4-2.65a45.65,45.65,0,0,0,3.55-3.11,23.63,23.63,0,0,0,2.15-2.43c.64-.84,1.42-2,2-2.9a26.31,26.31,0,0,0,2.59-6.07,28.74,28.74,0,0,0,1.09-7.85h0v-2A31.39,31.39,0,0,0,594,127Z"/><g class="cls-2"><g class="cls-10"><path class="cls-5" d="M298.46,123.23a7.66,7.66,0,0,0-4-.86l-.08.08,0,.08.14,0a7.06,7.06,0,0,1,3.65.8c1.45.83,1.5,1.91.27,2.62a4.75,4.75,0,0,1-4.33,0l-1.85-1.08h-.19l-.06,0V125l1.86,1.07c1.47.85,1.36,2,.27,2.67a5.51,5.51,0,0,1-5.33-.26c-1.58-.91-1.48-1.82-1.46-2.17l-.12-.08h-.12l-.13.07c0,.38-.12,1.35,1.58,2.34a6.09,6.09,0,0,0,5.82.25,1.45,1.45,0,0,0,.39-2.45,5.38,5.38,0,0,0,3.91-.33c1.37-.8,1.31-2-.27-2.91"/><polyline class="cls-5" points="311.53 130.66 305.52 127.19 305.33 127.19 305.28 127.22 305.28 127.33 308.14 128.99 298.92 134.35 298.92 134.46 298.97 134.49 299.16 134.49 308.39 129.13 311.28 130.8 311.48 130.79 311.53 130.76 311.53 130.66"/><path class="cls-5" d="M303.47,137c-.94-.54-1.07-1.3-.06-1.89a4,4,0,0,1,3.8.31,5.4,5.4,0,0,1,1.31,1.12l-2,1.14a6.37,6.37,0,0,1-3.08-.68m6.1-2.84a6.74,6.74,0,0,0-2.27-.79s-.11,0-.13,0l0,.06s0,.05,0,.07a.15.15,0,0,0,.08,0,6.27,6.27,0,0,1,2.09.73c1.17.67,1,1.18-.06,1.8l-.51.3a4.84,4.84,0,0,0-1.31-1.12,4.53,4.53,0,0,0-4.29-.31c-1.15.66-1,1.56.07,2.18a7,7,0,0,0,3,.73l-.62.36v.11l.06,0h.19l3.68-2.13c1.24-.73,1.4-1.31.05-2.09"/><path class="cls-5" d="M315,137.24a3.5,3.5,0,0,0-3.27-.25c-.76.44-.54,1,.35,1.9s1.28,1.41.5,1.86a3.34,3.34,0,0,1-3-.27,2,2,0,0,1-1.1-1.28l-.13-.08-.15,0-.06.08a2.12,2.12,0,0,0,1.2,1.4,3.9,3.9,0,0,0,3.51.29c1-.58.3-1.3-.49-2.12s-1-1.28-.36-1.65a2.94,2.94,0,0,1,2.76.24,2.27,2.27,0,0,1,1,1.06.08.08,0,0,0,0,0,.2.2,0,0,0,.11,0l.1,0,.09-.08a2.47,2.47,0,0,0-1.13-1.16"/><polyline class="cls-5" points="322.88 137.21 322.82 137.18 322.63 137.18 313.25 142.63 313.25 142.74 313.31 142.77 313.5 142.77 316.33 141.12 317.15 145.05 317.26 145.1 317.41 145.09 317.52 145.01 316.7 141.21 322.45 141.89 322.59 141.84 322.63 141.75 322.53 141.68 316.57 140.99 322.88 137.32 322.88 137.21"/><path class="cls-5" d="M325.9,143.55a3.48,3.48,0,0,0-3.26-.25c-.76.44-.54,1,.34,1.9s1.28,1.41.5,1.86a3.31,3.31,0,0,1-3-.27,2,2,0,0,1-1.1-1.29l-.13-.07-.16,0-.06.08a2.17,2.17,0,0,0,1.21,1.4,3.9,3.9,0,0,0,3.51.29c1-.58.29-1.31-.49-2.12s-1-1.28-.37-1.65a2.94,2.94,0,0,1,2.76.24,2.21,2.21,0,0,1,1,1.06s0,0,0,0a.14.14,0,0,0,.11,0H327l.07-.08a2.42,2.42,0,0,0-1.13-1.16"/></g></g><g class="cls-11"><g class="cls-2"><g class="cls-12"><path class="cls-5" d="M276.33,130.61l-.35-.2h-.2l-2.51,1.46a1.26,1.26,0,0,1-1.21.08.39.39,0,0,1-.21-.39.07.07,0,0,0,0-.08l-.12,0h-.41l-.14.07c0,.11,0,.42.43.69a2.29,2.29,0,0,0,2.25,0l2.5-1.46v-.12"/><path class="cls-5" d="M276,133.26l2.11-.47,0,0-.79,1.22-1.34-.77m3.21-1-.06,0-.15,0-5.2,1.13c-.1,0-.13.08-.05.13l.33.19a.32.32,0,0,0,.21,0l1-.23,1.75,1-.4.62,0,.11.34.2a.19.19,0,0,0,.23,0l1.94-3,0-.09"/><polyline class="cls-5" points="282.23 133.96 282.09 133.88 281.89 133.88 278.33 135.95 278.33 136.07 278.67 136.26 278.87 136.26 281.45 134.76 281.46 134.76 281.03 137.69 281.17 137.77 281.37 137.78 284.94 135.7 284.94 135.58 284.6 135.39 284.4 135.39 281.89 136.84 281.88 136.84 282.23 133.96"/><path class="cls-5" d="M289.36,138.14l-.35-.21h-.21l-2.2,1.28a1.9,1.9,0,0,1-1.82,0c-.55-.32-.48-.76.05-1.07L287,136.9v-.12l-.36-.2h-.2l-2.23,1.29c-.8.47-.82,1.19,0,1.68a3.13,3.13,0,0,0,2.9,0l2.22-1.29v-.12"/><path class="cls-5" d="M289.07,140.81l2.11-.47h0l-.79,1.23-1.34-.77m3.2-1.05,0,0-.15,0-5.2,1.12c-.11,0-.13.09-.05.14l.33.19a.32.32,0,0,0,.21,0l1.05-.24,1.75,1-.4.62,0,.11.34.2a.19.19,0,0,0,.23,0l1.94-3,0-.08"/><path class="cls-5" d="M293.77,142.77l1.29-.75.95.55c.34.2.36.54,0,.74a1.45,1.45,0,0,1-1.3,0l-1-.55m2.79-.48-1.45-.83h-.2l-3.51,2v.12l.34.2H292l1.35-.78.81.46-.7,1.23,0,.08.41.23a.19.19,0,0,0,.25,0l.61-1.2a2.73,2.73,0,0,0,1.87-.17c.63-.37.61-1,0-1.34"/><path class="cls-5" d="M301.56,145.18l-.4-.23-.14,0-2.31.23.38-1.35,0-.08-.4-.23c-.08,0-.21,0-.24.05l-.53,1.75-1.68,1v.12l.35.2h.21l1.69-1,3-.3c.11,0,.15-.08.07-.13"/><path class="cls-5" d="M305.14,147.31a3.1,3.1,0,0,0-1.55-.3l-.14.09v.21l.14.08a2.23,2.23,0,0,1,1,.18c.47.28.35.56.08.72a2.87,2.87,0,0,1-1.18.22c-.86,0-2.09.11-2.93.14l-.14.08v.12l2.06,1.19h.2l.25-.15v-.12l-1.36-.78c.67,0,1.48-.06,2.1-.1a3.37,3.37,0,0,0,1.55-.31c.55-.32.64-.83-.13-1.27"/><path class="cls-5" d="M308.44,149.21a3.17,3.17,0,0,0-1.55-.29l-.14.08v.21l.15.09a2.11,2.11,0,0,1,1,.18c.46.27.35.56.08.72a2.9,2.9,0,0,1-1.18.21l-2.93.15-.13.07v.12l2.06,1.19h.2l.26-.14v-.12l-1.36-.79,2.09-.09a3.5,3.5,0,0,0,1.55-.31c.55-.32.64-.84-.13-1.28"/><path class="cls-5" d="M308.08,152.45a.88.88,0,0,0-.76,0,.23.23,0,0,0,0,.43.54.54,0,0,0,.16.06,2.12,2.12,0,0,1-1.1.2l-.16.07v.08l.13.08a2.88,2.88,0,0,0,1.58-.31c.46-.27.35-.48.15-.6"/><path class="cls-5" d="M315.29,153.16a3.21,3.21,0,0,0-1.56-.29l-.13.08v.21l.15.09a2.07,2.07,0,0,1,1,.18c.47.27.35.56.08.72a2.87,2.87,0,0,1-1.18.21l-2.93.15-.13.08v.11l2.07,1.19h.21l.25-.14v-.12l-1.36-.79c.67,0,1.48-.05,2.1-.09a3.32,3.32,0,0,0,1.54-.31c.56-.32.64-.83-.12-1.28"/><path class="cls-5" d="M315.72,157.16c-.5-.28-.29-.74.59-1.25a2.26,2.26,0,0,1,2.16-.34c.5.28.28.74-.59,1.24a2.24,2.24,0,0,1-2.16.35m3.24-1.88a3.24,3.24,0,0,0-3.18.32c-1.16.67-1.38,1.36-.54,1.84a3.21,3.21,0,0,0,3.18-.31c1.16-.68,1.38-1.36.54-1.85"/><polyline class="cls-5" points="322.32 157.29 322.06 157.14 320.62 157.1 320.5 157.15 320.38 157.3 320.46 157.39 321.08 157.52 318.39 159.08 318.39 159.2 318.72 159.39 318.92 159.38 322.32 157.41 322.32 157.29"/><path class="cls-5" d="M321.77,160.72c-.35-.21-.44-.52-.09-.73a1.63,1.63,0,0,1,1.32,0c.36.29.32.6,0,.77a1.39,1.39,0,0,1-1.27-.06m1.74-1c-.36-.28-.32-.51,0-.68a1.27,1.27,0,0,1,1.14,0c.35.21.38.49.05.68a1.28,1.28,0,0,1-1.15,0m1.55-.91a2.21,2.21,0,0,0-2.1-.09.56.56,0,0,0-.28.79h0a2.56,2.56,0,0,0-1.53.15c-.58.33-.55.86.2,1.29a2.36,2.36,0,0,0,2.26.13.62.62,0,0,0,.25-.89h0a2.14,2.14,0,0,0,1.36-.16c.59-.34.49-.84-.17-1.22"/></g></g></g><g class="cls-2"><g class="cls-13"><path class="cls-5" d="M488.13,130.1c-1.79-1-1.81-2.73,0-3.76a7.18,7.18,0,0,1,6.51,0c1.79,1,1.8,2.72,0,3.76a7.14,7.14,0,0,1-6.49,0m7-4.07a8.36,8.36,0,0,0-7.56,0c-2.07,1.21-2.05,3.17,0,4.38a7.57,7.57,0,0,0,3.41.9l0,2.49a.21.21,0,0,0,.11.16.53.53,0,0,0,.26.06c.2,0,.37-.1.37-.22v-2.49a7.49,7.49,0,0,0,3.4-.9c2.08-1.21,2.06-3.17,0-4.38"/></g></g><path class="cls-14" d="M355.64,46.26c-8-3.31-20.84,4.33-28.49,17l-.65,1.06c-7.64,12.64-17.94,17.16-22.88,10L284.09,46.19c-4.93-7.12-13.81-2.42-19.71,10.43L258,70.45c-5.91,12.86-14.33,17.1-18.72,9.44L216,39.19c-4.39-7.67-13.31-3.44-19.82,9.4l-43,84.76c-6.51,12.84-16,19.51-21.2,14.83s-13.26,1.94-18,14.71L88.43,231.17,386.61,59l-31-12.76"/><path class="cls-15" d="M390.61,75.45c-8-3.31-20.84,4.33-28.49,17l-.64,1.06c-7.65,12.64-17.94,17.16-22.88,10L319.07,75.38c-4.94-7.12-13.81-2.42-19.72,10.43L293,99.64c-5.91,12.86-14.33,17.1-18.72,9.44L251,68.38c-4.38-7.67-13.31-3.44-19.82,9.4l-43,84.76c-6.52,12.84-16.06,19.51-21.21,14.83s-13.26,1.94-18,14.71L123.4,260.36,421.58,88.21l-31-12.76"/><g class="cls-2"><g class="cls-16"><path class="cls-17" d="M288,236.69c-21.21-12.24-55.46-12.24-76.52,0l10,5.79c15.55-9,40.86-9,56.52,0s15.73,23.7.18,32.74l10,5.8-10-5.8c15.55-9,15.47-23.7-.18-32.74l10-5.79"/><path class="cls-15" d="M288.2,281l-10-5.8c-15.55,9-40.86,9-56.52,0l-10,5.8c21.2,12.24,55.47,12.24,76.53,0"/><path class="cls-15" d="M288,236.69l-10,5.79c15.65,9,15.73,23.7.18,32.74l10,5.8c21.06-12.24,20.95-32.09-.25-44.33"/><path class="cls-18" d="M221.46,242.48l-10-5.79c-21.07,12.24-21,32.08.24,44.33l10-5.8c-15.65-9-15.73-23.7-.18-32.74"/></g></g><g class="cls-2"><g class="cls-19"><path class="cls-20" d="M466.08,134.5c-21.21-12.24-55.46-12.24-76.53,0l10,5.79c15.55-9,40.86-9,56.51,0s15.74,23.7.19,32.74l10,5.79-10-5.79c15.55-9,15.47-23.7-.19-32.74l10-5.8"/><path class="cls-15" d="M466.32,178.83l-10-5.79c-15.56,9-40.86,9-56.52,0l-10,5.79c21.2,12.24,55.46,12.25,76.52,0"/><path class="cls-15" d="M466.08,134.5l-10,5.8c15.66,9,15.74,23.7.19,32.74l10,5.79c21.07-12.24,21-32.09-.24-44.33"/><path class="cls-15" d="M399.59,140.3l-10-5.79c-21.07,12.24-20.95,32.08.25,44.32l10-5.79c-15.65-9-15.74-23.7-.18-32.74"/></g></g><g class="cls-2"><g class="cls-21"><path class="cls-22" d="M376.05,184.68c-21.21-12.24-55.46-12.24-76.52,0l10,5.8c15.56-9,40.87-9,56.52,0s15.74,23.71.18,32.75l10,5.79-10-5.79c15.56-9,15.48-23.71-.18-32.75l10-5.79"/><path class="cls-23" d="M376.3,229l-10-5.79c-15.55,9-40.86,9-56.51,0l-10,5.8c21.2,12.24,55.46,12.24,76.52,0"/><path class="cls-15" d="M376.05,184.68l-10,5.79c15.66,9,15.74,23.71.18,32.75l10,5.79c21.07-12.24,20.95-32.08-.25-44.33"/><path class="cls-23" d="M309.56,190.48l-10-5.8c-21.07,12.25-21,32.09.25,44.33l10-5.8c-15.66-9-15.74-23.69-.19-32.73"/></g></g><g class="cls-2"><g class="cls-24"><path class="cls-25" d="M334,194.27a7,7,0,0,0-7.25.15l-1.45.84,2.22,1.29,1.59-.93a2.52,2.52,0,0,1,2.69-.15c.76.43.87.92-.48,1.7-4.29,2.49-9.68.22-14.06,2.76L315.43,201l6.8,3.92,2.13-1.23-4.45-2.57a1.24,1.24,0,0,1,.29-.2c2.45-1.42,8.87.27,13.55-2.45,2.38-1.38,2.55-2.86.24-4.2"/><path class="cls-25" d="M345.31,201l-6.21-3.58L330,202.2l2.23,1.28.44-.26a2.52,2.52,0,0,1,2.69-.15c.75.44.81.94-.25,1.56l-3.27,1.9a2.48,2.48,0,0,1-2.67.14c-.75-.43-.83-.93.23-1.55l1.38-.8L328.6,203l-1.23.71c-2.39,1.39-2.55,2.87-.24,4.2a6.94,6.94,0,0,0,7.25-.15l3.32-1.92c2.19-1.28,2.53-2.48.79-3.49a4.76,4.76,0,0,0-3.14-.55l3.74-2,4.1,2.36,2.12-1.23"/><path class="cls-25" d="M346.49,217.51c-.49-.29-.49-.61.17-1l5.1-3a1.58,1.58,0,0,1,1.7-.09c.47.26.5.6-.16,1l-5.1,3a1.62,1.62,0,0,1-1.71.11m8.32-4.84a4.49,4.49,0,0,0-4.66.08l-4.89,2.84c-1.53.89-1.59,1.84-.11,2.69a4.45,4.45,0,0,0,4.65-.07l4.89-2.84c1.53-.89,1.59-1.84.12-2.7m5.2-3.17-1.39-.8-20.78,5.23,1.39.81L360,209.5m-15.5.56c-.49-.29-.49-.61.16-1l5.1-3a1.64,1.64,0,0,1,1.72-.1c.46.27.48.61-.18,1l-5.1,3a1.6,1.6,0,0,1-1.7.11m8.31-4.84a4.47,4.47,0,0,0-4.65.08l-4.89,2.84c-1.53.89-1.59,1.84-.11,2.69a4.45,4.45,0,0,0,4.65-.07l4.89-2.84c1.53-.89,1.59-1.85.11-2.7"/></g></g><g class="cls-2"><g class="cls-26"><path class="cls-25" d="M249.26,250l-6.21-3.58L234,251.22l2.23,1.28.44-.26a2.52,2.52,0,0,1,2.69-.15c.75.43.82.94-.25,1.56l-3.27,1.9a2.48,2.48,0,0,1-2.67.14c-.75-.43-.83-.93.23-1.54l1.38-.81-2.23-1.28-1.23.71c-2.38,1.39-2.54,2.87-.23,4.2a6.94,6.94,0,0,0,7.25-.15l3.32-1.93c2.19-1.27,2.52-2.48.79-3.48a4.82,4.82,0,0,0-3.14-.55l3.75-2,4.08,2.36,2.13-1.23"/><path class="cls-25" d="M241.66,260.62c-.75-.44-.81-.94.25-1.56l8-4.67a2.5,2.5,0,0,1,2.69-.14c.75.43.82.93-.25,1.55l-8,4.67a2.52,2.52,0,0,1-2.69.15m13.1-7.61a7.08,7.08,0,0,0-7.32.11l-7.74,4.5c-2.38,1.38-2.47,2.9-.16,4.23a7,7,0,0,0,7.31-.11l7.74-4.49c2.38-1.39,2.48-2.91.17-4.24"/><path class="cls-25" d="M258.92,271.42c-.49-.28-.5-.61.16-1l5.1-3a1.6,1.6,0,0,1,1.71-.1c.46.27.49.6-.17,1l-5.1,3a1.62,1.62,0,0,1-1.7.1m8.31-4.83a4.45,4.45,0,0,0-4.65.07l-4.9,2.84c-1.52.89-1.58,1.84-.1,2.7a4.45,4.45,0,0,0,4.64-.08l4.89-2.84c1.53-.89,1.6-1.84.12-2.69m5.2-3.18-1.38-.8-20.79,5.24,1.39.8,20.78-5.24m-15.5.56c-.49-.29-.49-.61.17-1l5.1-3a1.58,1.58,0,0,1,1.71-.1c.46.27.49.6-.17,1l-5.1,3a1.64,1.64,0,0,1-1.71.1m8.32-4.83a4.47,4.47,0,0,0-4.66.07l-4.89,2.84c-1.53.89-1.59,1.84-.1,2.7a4.45,4.45,0,0,0,4.64-.08l4.89-2.84c1.54-.89,1.6-1.84.12-2.69"/></g></g><g class="cls-2"><g class="cls-27"><polyline class="cls-25" points="428.59 146.5 421.53 142.42 419.41 143.66 424.09 146.37 407.89 151.79 410.24 153.15 426.56 147.69 428.59 146.5"/><path class="cls-25" d="M436.68,151.17l-6.2-3.58-9.06,4.77,2.23,1.28.44-.26a2.52,2.52,0,0,1,2.69-.14c.75.43.82.93-.25,1.55l-3.27,1.9a2.48,2.48,0,0,1-2.67.14c-.74-.43-.84-.92.23-1.54l1.38-.81L420,153.2l-1.23.71c-2.38,1.39-2.54,2.87-.23,4.21a7,7,0,0,0,7.25-.15l3.32-1.93c2.19-1.27,2.52-2.48.79-3.48a4.78,4.78,0,0,0-3.14-.56l3.74-1.95,4.09,2.36,2.12-1.24"/><path class="cls-25" d="M437.87,167.67c-.49-.29-.49-.61.17-1l5.09-3a1.6,1.6,0,0,1,1.71-.11c.47.28.49.61-.17,1l-5.1,3a1.62,1.62,0,0,1-1.7.1m8.31-4.83a4.45,4.45,0,0,0-4.65.07l-4.89,2.84c-1.53.89-1.59,1.84-.12,2.7a4.49,4.49,0,0,0,4.66-.08l4.89-2.84c1.53-.89,1.59-1.84.11-2.69m5.21-3.18-1.4-.8-20.78,5.24,1.39.8,20.79-5.24m-15.5.55c-.5-.28-.5-.6.16-1l5.11-3a1.6,1.6,0,0,1,1.7-.1c.47.28.49.61-.16,1l-5.11,3a1.6,1.6,0,0,1-1.7.09m8.31-4.82a4.45,4.45,0,0,0-4.65.07l-4.89,2.84c-1.53.89-1.59,1.84-.12,2.7a4.49,4.49,0,0,0,4.66-.08l4.89-2.84c1.53-.89,1.59-1.84.11-2.69"/></g></g></g></g></g></svg>