<svg xmlns="http://www.w3.org/2000/svg" viewBox="0 0 28.87 28.87"><defs><style>.cls-1{fill:#fff;}.cls-2{fill:#411f60;}</style></defs><title>Asset 6dribbble_design</title><g id="Layer_2" data-name="Layer 2"><g id="Layer_1-2" data-name="Layer 1"><rect class="cls-1" width="28.87" height="28.87" rx="6.48" ry="6.48"/><path class="cls-2" d="M14.44,5.42a9,9,0,1,0,9,9A9,9,0,0,0,14.44,5.42Zm5.91,4.37A7.49,7.49,0,0,1,22,14.23a15.8,15.8,0,0,0-5.27-.13c-.2-.44-.39-.87-.59-1.28A10.89,10.89,0,0,0,20.35,9.79Zm-1-1.08a9.54,9.54,0,0,1-3.9,2.78,37.11,37.11,0,0,0-2.75-4.37,7.53,7.53,0,0,1,6.65,1.59ZM11.2,7.64A35.85,35.85,0,0,1,14,12a26.76,26.76,0,0,1-6.87.75A7.57,7.57,0,0,1,11.2,7.64Zm-4.29,6.8v-.25H7a27.46,27.46,0,0,0,7.73-.88c.18.37.35.74.52,1.12a11.75,11.75,0,0,0-6.44,4.95A7.46,7.46,0,0,1,6.91,14.44Zm3,6a10.33,10.33,0,0,1,5.92-4.6,25.85,25.85,0,0,1,1.51,5.58,7.37,7.37,0,0,1-2.86.57A7.5,7.5,0,0,1,9.87,20.41Zm8.82.23a27.32,27.32,0,0,0-1.42-5.12,14.87,14.87,0,0,1,4.58.19A7.52,7.52,0,0,1,18.69,20.64Z"/></g></g></svg>