<svg xmlns="http://www.w3.org/2000/svg" viewBox="0 0 28.87 28.87"><defs><style>.cls-1{fill:#fff;}.cls-2{fill:#411f60;}</style></defs><title>Asset 5behance_design</title><g id="Layer_2" data-name="Layer 2"><g id="Layer_1-2" data-name="Layer 1"><rect class="cls-1" width="28.87" height="28.87" rx="6.48" ry="6.48"/><path class="cls-2" d="M13.15,13.55a3,3,0,0,0,.48-1.68,3.06,3.06,0,0,0-3.07-3H5.93a.39.39,0,0,0-.39.4V19.47a.39.39,0,0,0,.39.39H11.1a3.47,3.47,0,0,0,2.05-6.31ZM7.57,10.92h3a1,1,0,0,1,0,2h-3Zm3.58,6.91H7.57V15h3.58a1.44,1.44,0,0,1,0,2.88Z"/><path class="cls-2" d="M23.52,15.68A4.17,4.17,0,1,0,19.35,20a4.15,4.15,0,0,0,3.47-1.91c.09-.15.18-.31.26-.47a.18.18,0,0,0-.16-.25H20.87a.18.18,0,0,0-.12.05,1.93,1.93,0,0,1-1.4.56,2.16,2.16,0,0,1-2.08-1.78h5.84a.41.41,0,0,0,.41-.4Zm-4.17-2.27a2.12,2.12,0,0,1,1.79,1H17.57A2.1,2.1,0,0,1,19.35,13.41Z"/><path class="cls-2" d="M21.08,10.88H17.39a.31.31,0,0,1-.31-.32V9.64a.31.31,0,0,1,.31-.31h3.69a.31.31,0,0,1,.31.31v.92A.31.31,0,0,1,21.08,10.88Z"/></g></g></svg>