<svg xmlns="http://www.w3.org/2000/svg" viewBox="0 0 600 400"><defs><style>.cls-1{isolation:isolate;}.cls-2{fill:none;}.cls-3,.cls-5{fill:#1b1c63;}.cls-3{opacity:0.3;}.cls-16,.cls-4{fill:#cdd5ea;}.cls-15,.cls-16,.cls-5{opacity:0.4;}.cls-16,.cls-20,.cls-24,.cls-5,.cls-8{mix-blend-mode:multiply;}.cls-6{fill:#dce7f5;}.cls-7{fill:#6b78bd;}.cls-9{fill:#a4a9ad;}.cls-10,.cls-24{fill:#c3c6c8;}.cls-11,.cls-15,.cls-17{fill:#fff;}.cls-11{opacity:0.6;mix-blend-mode:soft-light;}.cls-12{fill:#333e48;}.cls-13{fill:#1e252b;}.cls-14{fill:#003764;}.cls-18{fill:#5c6670;}.cls-19{fill:#ffb066;}.cls-20{fill:#c9920e;}.cls-21{fill:#ff8300;}.cls-22{fill:#ba5f00;}.cls-23{fill:#c45a8d;}.cls-25{fill:#fc6591;}.cls-26{fill:#ff5959;}.cls-27{fill:#5cd2d2;}.cls-28{fill:#21adad;}.cls-29{fill:#9fe5e5;}</style></defs><title>Asset 1mobile-design2</title><g class="cls-1"><g id="Layer_2" data-name="Layer 2"><g id="OBJECTS"><rect class="cls-2" width="600" height="400"/><path class="cls-3" d="M380.19,9l-149.84,87c-7.68,4.44-13.91,14.26-13.91,22V390.38c0,7.68,6.23,10.31,13.91,5.87l149.84-87c7.69-4.44,13.91-14.26,13.91-22V14.92C394.1,7.23,387.88,4.6,380.19,9Z"/><path class="cls-4" d="M205.9,109.89c0-7.68,6.22-17.51,13.91-22L364.6,3.82C375.33-2.25,391.1,6,391.1,6l-7.54,15.44v257.7c0,7.69-6.23,17.51-13.91,21.95l-144.93,84.2-4.95,10.14S205.9,390,205.9,376.24Z"/><path class="cls-5" d="M209,99.42,246,120.83V373l-21.32,12.31-4.95,10.14S205.9,390,205.9,376.24V109.89A22.6,22.6,0,0,1,209,99.42Z"/><path class="cls-6" d="M379.66,6.72l-149.84,87c-7.68,4.43-13.91,14.26-13.91,21.94V388.06c0,7.68,6.23,10.32,13.91,5.88l149.84-87c7.69-4.44,13.91-14.27,13.91-22V12.6C393.57,4.92,387.35,2.29,379.66,6.72Z"/><polygon class="cls-7" points="383.17 274.76 227.39 365.22 227.39 123.2 383.17 32.73 383.17 274.76"/><g class="cls-8"><polygon class="cls-9" points="383.17 126.25 383.17 174.03 227.39 263.97 227.39 216.19 383.17 126.25"/><path class="cls-10" d="M281.32,281.07a4.63,4.63,0,0,1-2.09,3.62l-29.52,17.05c-1.15.66-2.09.12-2.09-1.21V266.32a4.66,4.66,0,0,1,2.09-3.62l29.52-17c1.15-.67,2.09-.12,2.09,1.21Z"/><path class="cls-9" d="M281.32,297.67a4.63,4.63,0,0,1-2.09,3.62l-29.52,17c-1.15.66-2.09.12-2.09-1.21v-6a4.63,4.63,0,0,1,2.09-3.62l29.52-17c1.15-.66,2.09-.12,2.09,1.21Z"/><path class="cls-9" d="M281.32,314.91a4.66,4.66,0,0,1-2.09,3.63l-29.52,17c-1.15.67-2.09.12-2.09-1.21v-6a4.66,4.66,0,0,1,2.09-3.63l29.52-17c1.15-.66,2.09-.12,2.09,1.21Z"/><path class="cls-10" d="M328.19,253.8a4.66,4.66,0,0,1-2.09,3.63l-29.52,17c-1.15.66-2.09.12-2.09-1.21v-34.2a4.63,4.63,0,0,1,2.09-3.62l29.52-17.05c1.15-.66,2.09-.12,2.09,1.21Z"/><path class="cls-9" d="M328.19,270.4A4.66,4.66,0,0,1,326.1,274l-29.52,17c-1.15.67-2.09.12-2.09-1.21v-6a4.66,4.66,0,0,1,2.09-3.63l29.52-17c1.15-.67,2.09-.12,2.09,1.2Z"/><path class="cls-9" d="M328.19,287.65a4.63,4.63,0,0,1-2.09,3.62l-29.52,17.05c-1.15.66-2.09.12-2.09-1.21v-6a4.63,4.63,0,0,1,2.09-3.62l29.52-17.05c1.15-.66,2.09-.12,2.09,1.21Z"/><path class="cls-10" d="M373.2,227.55a4.64,4.64,0,0,1-2.09,3.63l-29.53,17c-1.15.67-2.09.12-2.09-1.2V212.81a4.63,4.63,0,0,1,2.09-3.62l29.53-17.05c1.15-.66,2.09-.12,2.09,1.21Z"/><path class="cls-9" d="M373.2,244.16a4.66,4.66,0,0,1-2.09,3.62l-29.53,17c-1.15.67-2.09.12-2.09-1.2v-6a4.66,4.66,0,0,1,2.09-3.63l29.53-17c1.15-.66,2.09-.12,2.09,1.21Z"/><path class="cls-9" d="M373.2,261.4a4.63,4.63,0,0,1-2.09,3.62l-29.53,17.05c-1.15.66-2.09.12-2.09-1.21v-6a4.63,4.63,0,0,1,2.09-3.62l29.53-17c1.15-.66,2.09-.11,2.09,1.21Z"/><path class="cls-10" d="M365.8,122.26a7.25,7.25,0,0,1-3.26,5.66l-46.1,26.61c-1.79,1-3.27.19-3.27-1.88V130a7.28,7.28,0,0,1,3.27-5.66l46.1-26.61c1.8-1,3.26-.19,3.26,1.89Z"/><polygon class="cls-9" points="293.54 102.58 293.54 122.72 383.17 70.98 383.17 50.53 293.54 102.58"/></g><path class="cls-11" d="M370,282.48,227.41,222.21v71l71.86,30.37ZM227.41,123.28v19.95l155.78,65.84V87.37l-54-22.84Z"/><path class="cls-12" d="M313.38,59.68A4.38,4.38,0,0,0,311.27,63c0,1.17,1,1.57,2.11.9a4.38,4.38,0,0,0,2.11-3.33C315.49,59.41,314.54,59,313.38,59.68Z"/><path class="cls-13" d="M313.38,60.05a3.6,3.6,0,0,0-1.73,2.74c0,1,.77,1.29,1.73.73a3.58,3.58,0,0,0,1.73-2.73C315.11,59.83,314.34,59.5,313.38,60.05Z"/><path class="cls-14" d="M313.38,60.5a2.68,2.68,0,0,0-1.29,2c0,.72.58,1,1.29.55a2.68,2.68,0,0,0,1.29-2C314.67,60.33,314.09,60.09,313.38,60.5Z"/><path class="cls-13" d="M313.38,60.9a1.84,1.84,0,0,0-.89,1.4c0,.49.4.66.89.38a1.87,1.87,0,0,0,.89-1.41C314.27,60.78,313.87,60.61,313.38,60.9Z"/><path class="cls-15" d="M312.68,60.79A1.45,1.45,0,0,0,312,61.9c0,.39.32.52.71.29a1.44,1.44,0,0,0,.7-1.11C313.38,60.69,313.07,60.56,312.68,60.79Z"/><path class="cls-16" d="M313.38,324.7c-4,2.29-7.17,7.35-7.17,11.31s3.21,5.32,7.17,3,7.17-7.35,7.17-11.31S317.34,322.42,313.38,324.7Z"/><path class="cls-17" d="M317.39,327.88v3.35a4.85,4.85,0,0,1-2.33,3.68l-3.36,1.94c-1.28.74-2.33.3-2.33-1v-3.35a4.85,4.85,0,0,1,2.33-3.68l3.36-1.93C316.34,326.15,317.39,326.6,317.39,327.88ZM310,335.49c0,.93.75,1.25,1.68.71l3.36-1.93a3.53,3.53,0,0,0,1.68-2.67v-3.34c0-.94-.76-1.25-1.68-.72l-3.36,1.94a3.48,3.48,0,0,0-1.68,2.66Z"/><path class="cls-18" d="M258.46,69.26c1.64-1,3.75-.83,4.7.26s.38,2.76-1.26,3.71l-16.49,9.52c-1.65,1-3.75.83-4.7-.27s-.38-2.75,1.26-3.7Z"/><path class="cls-19" d="M281.16,115.14l-.09,0L281,115h0a3.87,3.87,0,0,0-3.62.49l-36.31,21c-2.71,1.57-4.93,5.07-4.93,7.78v34.3a2.63,2.63,0,0,0,1.46,2.65l4,2.3,5.37-6.27,30.42-17.61c2.71-1.56,4.93-5.06,4.93-7.78V120.68l2.83-3.3Z"/><path class="cls-20" d="M236.91,141.15a7.55,7.55,0,0,0-.81,3.16v34.3a2.63,2.63,0,0,0,1.46,2.65l4,2.3,5.37-6.27,2.57-1.49V148.41Z"/><path class="cls-21" d="M281.54,117.91l-36.31,21c-2.72,1.56-4.94,5.06-4.94,7.78V181c0,2.72,2.22,3.65,4.94,2.09l36.31-21c2.71-1.57,4.93-5.07,4.93-7.78V120C286.47,117.28,284.25,116.34,281.54,117.91Z"/><path class="cls-22" d="M277.59,164.35l-25.22,14.56v-9.19c0-5.3,3.28-11.73,7.92-16.27-2-.3-3.29-1.9-3.29-4.56,0-4.4,3.57-10,8-12.58s8-1,8,3.37a14.67,14.67,0,0,1-3.29,8.35c4.64-.82,7.92,1.83,7.92,7.14Z"/><path class="cls-23" d="M292.06,181.36l-.09-.05-.12-.07h0a4.17,4.17,0,0,0-3.9.53l-39.06,22.6c-2.92,1.68-5.3,5.45-5.3,8.37v36.89a2.82,2.82,0,0,0,1.57,2.85l4.29,2.48,5.78-6.75L288,229.27c2.92-1.68,5.31-5.45,5.31-8.37V187.32l3-3.55Z"/><path class="cls-24" d="M244.46,209.33a8.16,8.16,0,0,0-.87,3.41v36.89a2.82,2.82,0,0,0,1.57,2.85l4.29,2.48,5.78-6.75,2.76-1.6V217.15Z"/><path class="cls-25" d="M292.46,184.34l-39,22.6c-2.92,1.68-5.31,5.45-5.31,8.37V252.2c0,2.92,2.39,3.92,5.31,2.24l39-22.6c2.92-1.68,5.31-5.45,5.31-8.37V186.58C297.77,183.66,295.38,182.65,292.46,184.34Z"/><path class="cls-17" d="M286.47,212.22c0-7.21-5.85-9.68-13.05-5.51s-13.06,13.37-13.06,20.58,5.85,9.68,13.06,5.52S286.47,219.43,286.47,212.22Z"/><path class="cls-26" d="M280.1,217c1.17-1.26,1.17-2.21,0-2.12l-9.58.74a2.48,2.48,0,0,0-2.12,2.53v9.09c0,1.3,1,1.34,2.12.08Z"/><polyline class="cls-27" points="381.67 299.21 347.14 319.22 347.15 359.18 381.67 339.18 381.67 299.21"/><polyline class="cls-28" points="381.67 299.21 347.14 319.22 347.15 359.18 381.67 339.18 381.67 299.21"/><path class="cls-17" d="M374.62,330.65c0-2.28-1.85-3.07-4.13-1.75s-4.14,4.23-4.14,6.51,1.85,3.07,4.14,1.76S374.62,332.94,374.62,330.65Z"/><path class="cls-17" d="M374.62,314.52c0-2.29-1.85-3.07-4.13-1.76s-4.14,4.23-4.14,6.52,1.85,3.06,4.14,1.75S374.62,316.8,374.62,314.52Z"/><path class="cls-17" d="M361.26,330.27c0-2.28-1.85-3.07-4.13-1.75S353,332.75,353,335s1.86,3.07,4.14,1.76S361.26,332.56,361.26,330.27Z"/><polygon class="cls-17" points="357.98 331.2 356.68 334.11 369.63 334.48 370.94 331.57 357.98 331.2"/><polygon class="cls-17" points="369.63 316.43 356.68 331.71 357.98 333.12 370.94 317.84 369.63 316.43"/><polyline class="cls-27" points="347.15 359.18 342.71 356.58 342.71 316.79 347.14 319.22 347.15 359.18"/><polyline class="cls-27" points="342.71 316.79 377.46 296.81 381.67 299.21 347.14 319.22 342.71 316.79"/><polyline class="cls-29" points="377.46 296.81 342.71 316.79 347.14 319.22 381.67 299.21 377.46 296.81"/></g></g></g></svg>