<svg xmlns="http://www.w3.org/2000/svg" xmlns:xlink="http://www.w3.org/1999/xlink" viewBox="0 0 1072.02 721.68"><defs><style>.cls-1{fill:none;}.cls-2{clip-path:url(#clip-path);}.cls-3{fill:#351a4f;}.cls-4{fill:#412061;}.cls-5{fill:#613160;}.cls-6{fill:#814360;}.cls-7{fill:#a2545f;}.cls-8{fill:#fff;}</style><clipPath id="clip-path" transform="translate(0 -1)"><rect class="cls-1" x="158.13" width="750" height="459.73"/></clipPath></defs><title>Asset 2bg_design</title><g id="Layer_2" data-name="Layer 2"><g id="BACKGROUND_2" data-name="BACKGROUND 2"><g class="cls-2"><rect class="cls-3" x="158.13" width="750" height="443.14"/><path class="cls-4" d="M1035.36,22c48.78,115.46,33.22,246.69,16.82,371-9.15,69.27-20,142.56-64.59,196.34-45.43,54.75-118.75,79.24-189.7,84.48s-141.95-6.1-213-10a1009.83,1009.83,0,0,0-315.65,32.67c-38.55,10.32-76.88,23-116.69,25.72s-82.38-6-111.48-33.28C-3.53,647.07-3.53,577.13,3.31,516.34,16.67,397.55,35.8,273.46,74.12,160.24c17-50.32,74.07-77.84,127.2-78.27s103.82,20.19,153.61,38.72S457.59,156.2,510.1,148.17c34.48-5.26,67.54-21.2,102.38-19.75,40.25,1.67,75.69,26.12,114.52,36.81,56.08,15.44,117,1.08,168.11-26.67s94.17-67.95,136.62-107.71" transform="translate(0 -1)"/><path class="cls-5" d="M64.13,304.59c17.41,19.65,50.74,15.19,71.39-1S168.24,263,183,241.25s35.41-42.61,61.58-44.68c38.33-3,70.57,35.21,109,33,42.42-2.46,76.17-53.56,117-41.89,33.74,9.64,42.25,54.48,69.9,76.1,30.07,23.52,75.6,13.09,105.72-10.36s50.3-57.1,75.92-85.4,61.49-52.6,99.28-47.16c51.29,7.38,78.86,62.76,119.47,95,36.28,28.76,86.56,38.91,131.16,26.5-4.09,63.64-55.62,124.47-109.94,157.88s-118.92,46.23-182.55,50.57-127.56.8-191.22,4.41c-78.54,4.46-156.07,19.78-234.43,26.58s-159.44,4.7-232.56-24.31c-33.27-13.2-66.06-33.62-81.61-65.86S31.68,319.71,64.13,304.59Z" transform="translate(0 -1)"/><path class="cls-6" d="M960,210.65c-27-27.49-58.3-53.61-96.18-60.47-58-10.5-113.6,26.48-156.76,66.63S622.8,304,566.43,321.21c-45.08,13.79-96.36,5.52-134.81-21.75-18.32-13-34.06-30.13-54.7-39C342.1,245.56,301.63,257.54,268,275s-65.19,40.42-102.09,49-82.46-2.86-97.73-37.51C57.45,345.63,86.62,402.5,131.83,442.23c42,36.95,95.57,57.92,149.87,72.23a1010.93,1010.93,0,0,1,293.22-27c71,3.88,142,15.22,213,10S932.18,467.76,977.6,413c31.17-37.57,45.84-84.67,55-133.27C1005.41,260.56,983.37,234.54,960,210.65Z" transform="translate(0 -1)"/><path class="cls-7" d="M78.82,267.65c.62,30.56,18.33,60.22,45,75.26s61.16,14.9,87.66-.35c33-19,55.61-59.67,93.63-62C352,277.6,381,335,426.52,346.55,459.8,355,493.77,337.33,528,334.89c50.19-3.58,102.74,25.41,149,5.67,27.69-11.81,45.6-38.37,63.72-62.41s40.81-48.44,70.69-52.1c21.52-2.63,42.71,6.15,62,16A493.15,493.15,0,0,1,1008,343c-13.12,33.94-41.42,60.45-70.75,82C826.84,506.1,691.11,552.18,554.16,555.08c-85.33,1.81-170.14-12.65-253.81-29.49-43.56-8.76-87.44-18.33-127.62-37.32S95.89,439.84,76.15,400,52.49,303.45,78.82,267.65Z" transform="translate(0 -1)"/><path class="cls-8" d="M574.92,487.5c71,3.88,142,15.22,213,10S932.18,467.76,977.6,413c15.47-18.65,26.87-39.64,35.56-62C980.92,327.51,948,304.46,911,289.66c-40.16-16.09-86.27-21.68-126.6-6-38.25,14.86-66.89,46.56-98.21,73.07S615,406.2,574.78,397.94c-24.19-5-45.22-20.77-69.57-24.84-39-6.52-79.12,18.15-117.45,8.33-22.94-5.88-40.9-23.09-59.75-37.43s-42.46-26.75-65.37-20.74c-22.3,5.85-36.64,27.1-56,39.62A78.36,78.36,0,0,1,86.83,310.15,285.7,285.7,0,0,0,74.64,360.5c10.94,31,31.47,59.13,57.19,81.73,42,36.95,95.57,57.92,149.87,72.23A1010.93,1010.93,0,0,1,574.92,487.5Z" transform="translate(0 -1)"/></g></g></g></svg>