<svg xmlns="http://www.w3.org/2000/svg" viewBox="0 0 1170 812.59"><defs><style>.cls-1{font-size:108px;font-family:Bebas, Bebas;}.cls-1,.cls-9{fill:#fff;}.cls-2{letter-spacing:0.02em;}.cls-3{letter-spacing:0.02em;}.cls-4{letter-spacing:0.02em;}.cls-5{letter-spacing:-0.11em;}.cls-6{letter-spacing:0.02em;}.cls-7{letter-spacing:0.02em;}.cls-8{letter-spacing:0em;}</style></defs><title>Asset 1logo_design</title><g id="Layer_2" data-name="Layer 2"><g id="OBJECTS"><text class="cls-1" transform="translate(225.53 796.48)">LE<tspan class="cls-2" x="100.71" y="0">A</tspan><tspan class="cls-3" x="165.29" y="0">R</tspan><tspan x="226.35" y="0">N </tspan><tspan class="cls-4" x="296.3" y="0">C</tspan><tspan class="cls-3" x="354.13" y="0">R</tspan><tspan x="415.19" y="0">E</tspan><tspan class="cls-5" x="466.43" y="0">A</tspan><tspan class="cls-6" x="517.44" y="0">T</tspan><tspan class="cls-7" x="574.35" y="0">IV</tspan><tspan class="cls-8" x="667.7" y="0">E</tspan></text><rect class="cls-9" x="150.93" y="-13.02" width="169" height="496.9" transform="translate(235.44 -97.52) rotate(45)"/><polyline class="cls-9" points="537.45 404.68 820.69 118.97 700.67 0 536.41 165.69"/><polyline class="cls-9" points="351.37 305.88 351.37 419.7 470.86 539.19 470.86 186.38"/><polyline class="cls-9" points="886.76 404.68 1170 118.97 1049.98 0 885.73 165.69"/><polyline class="cls-9" points="700.67 305.88 700.67 419.7 820.18 539.19 820.18 186.38"/></g></g></svg>