<svg xmlns="http://www.w3.org/2000/svg" viewBox="0 0 199.82 421.3"><defs><style>.cls-1{isolation:isolate;}.cls-2,.cls-4{fill:#1b1c63;}.cls-2{opacity:0.3;}.cls-15,.cls-3{fill:#cdd5ea;}.cls-14,.cls-15,.cls-4{opacity:0.4;}.cls-15,.cls-19,.cls-23,.cls-4,.cls-7{mix-blend-mode:multiply;}.cls-5{fill:#dce7f5;}.cls-6{fill:#6b78bd;}.cls-8{fill:#a4a9ad;}.cls-23,.cls-9{fill:#c3c6c8;}.cls-10,.cls-14,.cls-16{fill:#fff;}.cls-10{opacity:0.6;mix-blend-mode:soft-light;}.cls-11{fill:#333e48;}.cls-12{fill:#1e252b;}.cls-13{fill:#003764;}.cls-17{fill:#5c6670;}.cls-18{fill:#ffb066;}.cls-19{fill:#c9920e;}.cls-20{fill:#ff8300;}.cls-21{fill:#ba5f00;}.cls-22{fill:#c45a8d;}.cls-24{fill:#fc6591;}.cls-25{fill:#ff5959;}.cls-26{fill:#5cd2d2;}.cls-27{fill:#21adad;}.cls-28{fill:#9fe5e5;}</style></defs><title>Asset 1mobile_design</title><g class="cls-1"><g id="Layer_2" data-name="Layer 2"><g id="OBJECTS"><path class="cls-2" d="M185,7.9,26,100.31c-8.16,4.71-14.77,15.14-14.77,23.3V412.77c0,8.15,6.61,11,14.77,6.24L185,326.61c8.16-4.72,14.78-15.15,14.78-23.31V14.15C199.82,6,193.2,3.19,185,7.9Z"/><path class="cls-3" d="M0,115c0-8.16,6.61-18.59,14.77-23.3L168.49,2.37c11.39-6.45,28.14,2.31,28.14,2.31l-8,16.39v273.6c0,8.16-6.62,18.59-14.78,23.31L20,407.37l-5.25,10.76S0,412.35,0,397.76Z"/><path class="cls-4" d="M3.25,103.87,42.62,126.6V394.3L20,407.37l-5.25,10.76S0,412.35,0,397.76V115A23.9,23.9,0,0,1,3.25,103.87Z"/><path class="cls-5" d="M184.48,5.45,25.4,97.85c-8.16,4.71-14.77,15.14-14.77,23.3V410.31c0,8.16,6.61,10.95,14.77,6.24l159.08-92.4c8.16-4.71,14.77-15.14,14.77-23.3V11.69C199.25,3.53,192.64.74,184.48,5.45Z"/><polygon class="cls-6" points="188.21 290.02 22.82 386.06 22.82 129.11 188.21 33.06 188.21 290.02"/><g class="cls-7"><polygon class="cls-8" points="188.21 132.35 188.21 183.08 22.82 278.56 22.82 227.84 188.21 132.35"/><path class="cls-9" d="M80.08,296.72a4.91,4.91,0,0,1-2.22,3.84l-31.35,18.1c-1.22.7-2.22.13-2.22-1.28V281.06a4.91,4.91,0,0,1,2.22-3.84l31.35-18.1c1.22-.7,2.22-.13,2.22,1.28Z"/><path class="cls-8" d="M80.08,314.34a4.94,4.94,0,0,1-2.22,3.85L46.51,336.28c-1.22.71-2.22.13-2.22-1.28v-6.34a4.93,4.93,0,0,1,2.22-3.85l31.35-18.1c1.22-.7,2.22-.13,2.22,1.28Z"/><path class="cls-8" d="M80.08,332.65a4.94,4.94,0,0,1-2.22,3.85L46.51,354.59c-1.22.71-2.22.13-2.22-1.28V347a4.93,4.93,0,0,1,2.22-3.84L77.86,325c1.22-.7,2.22-.13,2.22,1.28Z"/><path class="cls-9" d="M129.84,267.77a4.94,4.94,0,0,1-2.22,3.85L96.27,289.71c-1.22.71-2.22.13-2.22-1.28V252.12a4.94,4.94,0,0,1,2.22-3.85l31.35-18.1c1.22-.7,2.22-.12,2.22,1.29Z"/><path class="cls-8" d="M129.84,285.39a4.94,4.94,0,0,1-2.22,3.85l-31.35,18.1c-1.22.7-2.22.13-2.22-1.28v-6.35a4.94,4.94,0,0,1,2.22-3.85l31.35-18.09c1.22-.71,2.22-.13,2.22,1.28Z"/><path class="cls-8" d="M129.84,303.7a4.94,4.94,0,0,1-2.22,3.85l-31.35,18.1c-1.22.7-2.22.13-2.22-1.29V318a4.94,4.94,0,0,1,2.22-3.85l31.35-18.1c1.22-.7,2.22-.12,2.22,1.29Z"/><path class="cls-9" d="M177.62,239.9a4.93,4.93,0,0,1-2.22,3.85l-31.35,18.1c-1.22.7-2.22.12-2.22-1.29V224.25a4.94,4.94,0,0,1,2.22-3.85l31.35-18.09c1.22-.71,2.22-.13,2.22,1.28Z"/><path class="cls-8" d="M177.62,257.53a4.91,4.91,0,0,1-2.22,3.84l-31.35,18.1c-1.22.7-2.22.13-2.22-1.28v-6.35a4.94,4.94,0,0,1,2.22-3.85L175.4,249.9c1.22-.71,2.22-.13,2.22,1.28Z"/><path class="cls-8" d="M177.62,275.83a4.93,4.93,0,0,1-2.22,3.85l-31.35,18.1c-1.22.7-2.22.13-2.22-1.28v-6.35a4.94,4.94,0,0,1,2.22-3.85l31.35-18.09c1.22-.71,2.22-.13,2.22,1.28Z"/><path class="cls-9" d="M169.77,128.11a7.7,7.7,0,0,1-3.47,6l-48.94,28.26c-1.9,1.1-3.46.2-3.46-2v-24a7.7,7.7,0,0,1,3.46-6l48.94-28.26c1.91-1.1,3.47-.2,3.47,2Z"/><polygon class="cls-8" points="93.05 107.21 93.05 128.61 188.21 73.67 188.21 51.95 93.05 107.21"/></g><path class="cls-10" d="M174.24,298.22l-151.4-64v75.36l76.29,32.25Zm-151.4-169v21.19l165.38,69.9V91.07L130.87,66.82Z"/><path class="cls-11" d="M114.11,61.67a4.68,4.68,0,0,0-2.24,3.53c0,1.24,1,1.66,2.24,1a4.64,4.64,0,0,0,2.24-3.53C116.35,61.38,115.35,61,114.11,61.67Z"/><path class="cls-12" d="M114.11,62.07a3.84,3.84,0,0,0-1.84,2.9c0,1,.83,1.37,1.84.78a3.81,3.81,0,0,0,1.85-2.9C116,61.83,115.13,61.48,114.11,62.07Z"/><path class="cls-13" d="M114.11,62.54a2.87,2.87,0,0,0-1.37,2.16c0,.76.62,1,1.37.58a2.83,2.83,0,0,0,1.37-2.16C115.48,62.36,114.87,62.1,114.11,62.54Z"/><path class="cls-12" d="M114.11,63a2,2,0,0,0-.94,1.5c0,.52.42.7.94.4a2,2,0,0,0,1-1.5C115.06,62.84,114.63,62.66,114.11,63Z"/><path class="cls-14" d="M113.37,62.85a1.51,1.51,0,0,0-.75,1.18c0,.41.33.55.75.31a1.54,1.54,0,0,0,.74-1.18C114.11,62.75,113.78,62.61,113.37,62.85Z"/><path class="cls-15" d="M114.11,343c-4.2,2.43-7.61,7.8-7.61,12s3.41,5.64,7.61,3.22,7.61-7.8,7.61-12S118.32,340.62,114.11,343Z"/><path class="cls-16" d="M118.37,346.42V350a5.14,5.14,0,0,1-2.48,3.9l-3.56,2.06c-1.36.78-2.47.31-2.47-1.05v-3.56a5.14,5.14,0,0,1,2.47-3.9l3.56-2.06C117.26,344.58,118.37,345.05,118.37,346.42Zm-7.83,8.07c0,1,.81,1.33,1.79.76l3.56-2.05a3.72,3.72,0,0,0,1.79-2.83v-3.56c0-1-.8-1.32-1.79-.75l-3.56,2.05a3.74,3.74,0,0,0-1.79,2.83Z"/><path class="cls-17" d="M55.81,71.84c1.74-1,4-.88,5,.28s.41,2.93-1.33,3.93L42,86.16c-1.75,1-4,.88-5-.28S36.55,83,38.3,82Z"/><path class="cls-18" d="M79.9,120.55l-.09,0-.11-.06h0a4.07,4.07,0,0,0-3.84.52L37.3,143.27c-2.88,1.66-5.24,5.37-5.24,8.25v36.41a2.8,2.8,0,0,0,1.56,2.82l4.23,2.45,5.71-6.66,32.29-18.7c2.88-1.66,5.24-5.38,5.24-8.26V126.44l3-3.51Z"/><path class="cls-19" d="M32.93,148.16a8,8,0,0,0-.87,3.36v36.41a2.8,2.8,0,0,0,1.56,2.82l4.23,2.45,5.71-6.66L46.28,185V155.87Z"/><path class="cls-20" d="M80.31,123.5,41.76,145.8c-2.88,1.66-5.24,5.38-5.24,8.26v36.41c0,2.88,2.36,3.87,5.24,2.21l38.55-22.3c2.88-1.66,5.23-5.38,5.23-8.26V125.71C85.54,122.83,83.19,121.83,80.31,123.5Z"/><path class="cls-21" d="M76.12,172.8,49.34,188.26V178.5c0-5.63,3.48-12.45,8.41-17.28-2.12-.31-3.49-2-3.49-4.83,0-4.68,3.79-10.66,8.47-13.36s8.47-1.1,8.47,3.58a15.58,15.58,0,0,1-3.49,8.86c4.92-.86,8.41,1.94,8.41,7.58Z"/><path class="cls-22" d="M91.48,190.86l-.1-.06-.13-.07h0c-1-.53-2.5-.39-4.14.55l-41.46,24c-3.1,1.79-5.64,5.78-5.64,8.88v39.17a3,3,0,0,0,1.68,3L46.24,269l6.14-7.17,34.73-20.1c3.1-1.79,5.64-5.79,5.64-8.89V197.19L96,193.42Z"/><path class="cls-23" d="M40.94,220.56a8.67,8.67,0,0,0-.93,3.61v39.17a3,3,0,0,0,1.68,3L46.24,269l6.14-7.17,2.92-1.69V228.85Z"/><path class="cls-24" d="M91.91,194,50.44,218c-3.1,1.79-5.63,5.79-5.63,8.89v39.16c0,3.1,2.53,4.17,5.63,2.39l41.47-24c3.1-1.79,5.63-5.78,5.63-8.88V196.4C97.54,193.3,95,192.23,91.91,194Z"/><path class="cls-16" d="M85.54,223.62c0-7.65-6.2-10.27-13.86-5.85S57.83,232,57.83,239.62s6.2,10.28,13.85,5.86S85.54,231.28,85.54,223.62Z"/><path class="cls-25" d="M78.78,228.65c1.24-1.33,1.24-2.35,0-2.25l-10.17.79a2.63,2.63,0,0,0-2.25,2.69v9.64c0,1.39,1,1.43,2.25.09Z"/><polyline class="cls-26" points="186.61 315.97 149.95 337.22 149.97 379.65 186.61 358.41 186.61 315.97"/><polyline class="cls-27" points="186.61 315.97 149.95 337.22 149.97 379.65 186.61 358.41 186.61 315.97"/><path class="cls-16" d="M179.13,349.36c0-2.42-2-3.26-4.39-1.86s-4.39,4.49-4.39,6.91,2,3.26,4.39,1.87S179.13,351.78,179.13,349.36Z"/><path class="cls-16" d="M179.13,332.23c0-2.43-2-3.26-4.39-1.86s-4.39,4.49-4.39,6.91,2,3.26,4.39,1.86S179.13,334.65,179.13,332.23Z"/><path class="cls-16" d="M165,349c0-2.43-2-3.26-4.39-1.87s-4.39,4.5-4.39,6.92,2,3.26,4.39,1.86S165,351.38,165,349Z"/><polygon class="cls-16" points="161.47 349.95 160.08 353.03 173.84 353.42 175.22 350.34 161.47 349.95"/><polygon class="cls-16" points="173.84 334.26 160.08 350.49 161.47 351.98 175.22 335.75 173.84 334.26"/><polyline class="cls-26" points="149.97 379.65 145.25 376.89 145.25 334.64 149.95 337.22 149.97 379.65"/><polyline class="cls-26" points="145.25 334.64 182.15 313.43 186.61 315.97 149.95 337.22 145.25 334.64"/><polyline class="cls-28" points="182.15 313.43 145.25 334.64 149.95 337.22 186.61 315.97 182.15 313.43"/></g></g></g></svg>