<svg xmlns="http://www.w3.org/2000/svg" viewBox="0 0 600 500.33"><defs><style>.cls-1{isolation:isolate;}.cls-2{fill:none;}.cls-3,.cls-5{fill:#1b1c63;}.cls-3{opacity:0.3;}.cls-16,.cls-4{fill:#cdd5ea;}.cls-15,.cls-16,.cls-5{opacity:0.4;}.cls-16,.cls-20,.cls-24,.cls-5,.cls-8{mix-blend-mode:multiply;}.cls-6{fill:#dce7f5;}.cls-7{fill:#6b78bd;}.cls-9{fill:#a4a9ad;}.cls-10,.cls-24{fill:#c3c6c8;}.cls-11,.cls-15,.cls-17{fill:#fff;}.cls-11{opacity:0.6;mix-blend-mode:soft-light;}.cls-12{fill:#333e48;}.cls-13{fill:#1e252b;}.cls-14{fill:#003764;}.cls-18{fill:#5c6670;}.cls-19{fill:#ffb066;}.cls-20{fill:#c9920e;}.cls-21{fill:#ff8300;}.cls-22{fill:#ba5f00;}.cls-23{fill:#c45a8d;}.cls-25{fill:#fc6591;}.cls-26{fill:#ff5959;}.cls-27{fill:#5cd2d2;}.cls-28{fill:#21adad;}.cls-29{fill:#9fe5e5;}</style></defs><title>Asset 3mobile-design3</title><g class="cls-1"><g id="Layer_2" data-name="Layer 2"><g id="OBJECTS"><rect class="cls-2" y="0.33" width="600" height="500"/><path class="cls-3" d="M401.11,9.39,212.18,119.13c-9.69,5.59-17.54,18-17.54,27.67V490.2c0,9.69,7.85,13,17.54,7.42L401.11,387.88c9.69-5.6,17.54-18,17.54-27.67V16.8C418.65,7.11,410.8,3.79,401.11,9.39Z"/><path class="cls-4" d="M181.35,136.55c0-9.69,7.85-22.08,17.54-27.67L381.45,2.81C395-4.84,414.87,5.55,414.87,5.55L405.36,25V350c0,9.69-7.85,22.07-17.54,27.67L205.08,483.79l-6.24,12.79s-17.49-6.87-17.49-24.19Z"/><path class="cls-5" d="M185.21,123.35l46.76,27V468.27l-26.89,15.52-6.24,12.79s-17.49-6.87-17.49-24.19V136.55A28.46,28.46,0,0,1,185.21,123.35Z"/><path class="cls-6" d="M400.44,6.47,211.51,116.21c-9.68,5.59-17.54,18-17.54,27.67V487.29c0,9.68,7.86,13,17.54,7.41L400.44,385c9.69-5.6,17.54-18,17.54-27.67V13.89C418,4.2,410.13.88,400.44,6.47Z"/><polygon class="cls-7" points="404.86 344.42 208.45 458.49 208.45 153.33 404.86 39.27 404.86 344.42"/><g class="cls-8"><polygon class="cls-9" points="404.86 157.18 404.86 217.42 208.45 330.82 208.45 270.58 404.86 157.18"/><path class="cls-10" d="M276.45,352.38a5.85,5.85,0,0,1-2.64,4.57l-37.22,21.49c-1.45.84-2.64.15-2.64-1.52V333.79a5.87,5.87,0,0,1,2.64-4.57l37.22-21.48c1.45-.84,2.64-.16,2.64,1.52Z"/><path class="cls-9" d="M276.45,373.31a5.85,5.85,0,0,1-2.64,4.57l-37.22,21.49c-1.45.84-2.64.16-2.64-1.52v-7.54a5.87,5.87,0,0,1,2.64-4.57l37.22-21.49c1.45-.83,2.64-.15,2.64,1.52Z"/><path class="cls-9" d="M276.45,395.06a5.84,5.84,0,0,1-2.64,4.56l-37.22,21.5c-1.45.83-2.64.15-2.64-1.53v-7.53a5.85,5.85,0,0,1,2.64-4.57L273.81,386c1.45-.84,2.64-.15,2.64,1.52Z"/><path class="cls-10" d="M335.55,318a5.84,5.84,0,0,1-2.64,4.57l-37.23,21.49c-1.44.84-2.63.16-2.63-1.52V299.42a5.86,5.86,0,0,1,2.63-4.57l37.23-21.49c1.45-.84,2.64-.16,2.64,1.52Z"/><path class="cls-9" d="M335.55,338.94a5.84,5.84,0,0,1-2.64,4.56L295.68,365c-1.44.83-2.63.15-2.63-1.53v-7.53a5.87,5.87,0,0,1,2.63-4.57l37.23-21.49c1.45-.84,2.64-.16,2.64,1.52Z"/><path class="cls-9" d="M335.55,360.68a5.87,5.87,0,0,1-2.64,4.57l-37.23,21.49c-1.44.84-2.63.15-2.63-1.52v-7.54a5.87,5.87,0,0,1,2.63-4.57l37.23-21.49c1.45-.84,2.64-.15,2.64,1.52Z"/><path class="cls-10" d="M392.29,284.91a5.87,5.87,0,0,1-2.64,4.57L352.43,311c-1.45.84-2.64.15-2.64-1.52V266.32a5.87,5.87,0,0,1,2.64-4.57l37.22-21.49c1.45-.83,2.64-.15,2.64,1.53Z"/><path class="cls-9" d="M392.29,305.84a5.85,5.85,0,0,1-2.64,4.57L352.43,331.9c-1.45.83-2.64.15-2.64-1.52v-7.54a5.87,5.87,0,0,1,2.64-4.57l37.22-21.49c1.45-.84,2.64-.15,2.64,1.52Z"/><path class="cls-9" d="M392.29,327.58a5.84,5.84,0,0,1-2.64,4.57l-37.22,21.49c-1.45.84-2.64.16-2.64-1.52v-7.54a5.87,5.87,0,0,1,2.64-4.57l37.22-21.49c1.45-.83,2.64-.15,2.64,1.53Z"/><path class="cls-10" d="M383,152.15a9.13,9.13,0,0,1-4.12,7.13l-58.12,33.56c-2.26,1.31-4.12.24-4.12-2.38V161.91a9.13,9.13,0,0,1,4.12-7.13l58.12-33.56c2.27-1.31,4.12-.24,4.12,2.38Z"/><polygon class="cls-9" points="291.86 127.33 291.86 152.73 404.86 87.49 404.86 61.7 291.86 127.33"/></g><path class="cls-11" d="M388.28,354.17l-179.81-76v89.51L299.08,406ZM208.47,153.43v25.16l196.42,83V108.15L336.76,79.36Z"/><path class="cls-12" d="M316.87,73.24a5.52,5.52,0,0,0-2.66,4.19c0,1.47,1.19,2,2.66,1.13a5.52,5.52,0,0,0,2.66-4.2C319.53,72.9,318.34,72.39,316.87,73.24Z"/><path class="cls-13" d="M316.87,73.71a4.55,4.55,0,0,0-2.19,3.45c0,1.21,1,1.63,2.19.93a4.54,4.54,0,0,0,2.19-3.45C319.06,73.43,318.08,73,316.87,73.71Z"/><path class="cls-14" d="M316.87,74.27a3.38,3.38,0,0,0-1.63,2.57c0,.9.73,1.21,1.63.69A3.38,3.38,0,0,0,318.5,75C318.5,74.06,317.77,73.75,316.87,74.27Z"/><path class="cls-13" d="M316.87,74.78a2.33,2.33,0,0,0-1.12,1.77c0,.62.5.83,1.12.47A2.33,2.33,0,0,0,318,75.25C318,74.63,317.49,74.42,316.87,74.78Z"/><path class="cls-15" d="M316,74.64a1.84,1.84,0,0,0-.89,1.4c0,.49.4.65.89.37a1.84,1.84,0,0,0,.89-1.4C316.87,74.52,316.47,74.35,316,74.64Z"/><path class="cls-16" d="M316.87,407.4c-5,2.88-9,9.26-9,14.26s4.05,6.7,9,3.82,9-9.26,9-14.26S321.86,404.52,316.87,407.4Z"/><path class="cls-17" d="M321.92,411.41v4.22a6.09,6.09,0,0,1-2.94,4.64l-4.22,2.44c-1.62.94-2.94.38-2.94-1.24v-4.23a6.09,6.09,0,0,1,2.94-4.63l4.22-2.44C320.6,409.23,321.92,409.79,321.92,411.41ZM312.63,421c0,1.17.95,1.57,2.13.9l4.22-2.44a4.43,4.43,0,0,0,2.13-3.36v-4.22c0-1.18-1-1.58-2.13-.9l-4.22,2.44a4.39,4.39,0,0,0-2.13,3.35Z"/><path class="cls-18" d="M247.63,85.32c2.07-1.2,4.72-1,5.91.33s.49,3.48-1.58,4.67l-20.79,12c-2.08,1.19-4.73,1-5.92-.34s-.49-3.47,1.58-4.67Z"/><path class="cls-19" d="M276.24,143.17l-.1-.06L276,143h0c-1.13-.58-2.76-.43-4.56.61l-45.78,26.49c-3.42,2-6.22,6.39-6.22,9.81v43.24a3.34,3.34,0,0,0,1.84,3.35l5,2.9,6.78-7.91,38.35-22.2c3.42-2,6.22-6.39,6.22-9.81V150.16l3.56-4.16Z"/><path class="cls-20" d="M220.45,176a9.59,9.59,0,0,0-1,4v43.24a3.34,3.34,0,0,0,1.84,3.35l5,2.9,6.78-7.91,3.23-1.87V185.12Z"/><path class="cls-21" d="M276.72,146.66l-45.78,26.49c-3.42,2-6.22,6.39-6.22,9.81V226.2c0,3.42,2.8,4.61,6.22,2.63l45.78-26.49c3.42-2,6.22-6.39,6.22-9.81V149.29C282.94,145.87,280.14,144.69,276.72,146.66Z"/><path class="cls-22" d="M271.74,205.22,240,223.58V212c0-6.69,4.13-14.79,10-20.52-2.51-.38-4.14-2.4-4.14-5.74,0-5.56,4.5-12.66,10.06-15.87s10.06-1.31,10.06,4.25c0,3.35-1.64,7.25-4.15,10.53,5.85-1,10,2.31,10,9Z"/><path class="cls-23" d="M290,226.66l-.12-.06-.15-.09h0c-1.23-.62-3-.46-4.91.66l-49.25,28.5c-3.68,2.12-6.69,6.87-6.69,10.55v46.51c0,1.85.76,3.09,2,3.6l5.41,3.12,7.28-8.5,41.26-23.88c3.68-2.13,6.69-6.88,6.69-10.56V234.18l3.83-4.48Z"/><path class="cls-24" d="M230,261.93a10.34,10.34,0,0,0-1.1,4.3v46.51c0,1.85.76,3.09,2,3.6l5.41,3.12,7.28-8.5,3.48-2V271.78Z"/><path class="cls-25" d="M290.5,230.42l-49.25,28.49c-3.68,2.13-6.69,6.88-6.69,10.56V316c0,3.68,3,4.95,6.69,2.83l49.25-28.5c3.68-2.12,6.69-6.87,6.69-10.55V233.25C297.19,229.57,294.18,228.3,290.5,230.42Z"/><path class="cls-17" d="M282.94,265.58c0-9.09-7.37-12.21-16.46-7S250,275.49,250,284.58s7.37,12.2,16.46,7S282.94,274.67,282.94,265.58Z"/><path class="cls-26" d="M274.91,271.55c1.47-1.59,1.47-2.79,0-2.67l-12.09.93a3.14,3.14,0,0,0-2.67,3.19v11.46c0,1.64,1.21,1.69,2.67.11Z"/><polyline class="cls-27" points="402.97 375.25 359.43 400.49 359.45 450.88 402.97 425.65 402.97 375.25"/><polyline class="cls-28" points="402.97 375.25 359.43 400.49 359.45 450.88 402.97 425.65 402.97 375.25"/><path class="cls-17" d="M394.09,414.9c0-2.88-2.34-3.87-5.22-2.21s-5.21,5.33-5.21,8.21,2.33,3.87,5.21,2.22S394.09,417.78,394.09,414.9Z"/><path class="cls-17" d="M394.09,394.56c0-2.88-2.34-3.87-5.22-2.22s-5.21,5.34-5.21,8.22,2.33,3.87,5.21,2.21S394.09,397.44,394.09,394.56Z"/><path class="cls-17" d="M377.24,414.42c0-2.87-2.33-3.87-5.21-2.21s-5.21,5.34-5.21,8.22,2.33,3.86,5.21,2.21S377.24,417.3,377.24,414.42Z"/><polygon class="cls-17" points="373.11 415.6 371.46 419.26 387.8 419.73 389.44 416.06 373.11 415.6"/><polygon class="cls-17" points="387.8 396.96 371.46 416.24 373.11 418.01 389.44 398.74 387.8 396.96"/><polyline class="cls-27" points="359.45 450.88 353.85 447.59 353.85 397.42 359.43 400.49 359.45 450.88"/><polyline class="cls-27" points="353.85 397.42 397.66 372.23 402.97 375.25 359.43 400.49 353.85 397.42"/><polyline class="cls-29" points="397.66 372.23 353.85 397.42 359.43 400.49 402.97 375.25 397.66 372.23"/></g></g></g></svg>