<?xml version="1.0" encoding="utf-8"?>
<!-- Generator: Adobe Illustrator 22.0.1, SVG Export Plug-In . SVG Version: 6.00 Build 0)  -->
<svg version="1.1" id="Layer_1" xmlns="http://www.w3.org/2000/svg" xmlns:xlink="http://www.w3.org/1999/xlink" x="0px" y="0px"
	 viewBox="0 0 1072 709.7" style="enable-background:new 0 0 1072 709.7;" xml:space="preserve">
<style type="text/css">
	.st0{fill:#351A4F;}
	.st1{fill:none;}
	.st2{fill:#412061;}
	.st3{fill:#613160;}
	.st4{fill:#814360;}
	.st5{fill:#A2545F;}
</style>
<title>Asset 3bg_design</title>
<rect x="158.1" class="st0" width="750" height="250.8"/>
<path class="st1" d="M201.3,68.9c53.1-0.5,103.8,20.2,153.6,38.7c49.8,18.5,102.7,35.5,155.2,27.5c34.5-5.3,67.5-21.2,102.4-19.8
	c39.6,1.7,74.6,25.4,112.8,36.3c25.4-26.8,59.9-49,96.1-43.8c20.8,3,37.6,13.8,53,27.8c7-3.2,13.9-6.6,20.7-10.2
	c4.4-2.4,8.7-4.9,13-7.4V0h-750v75.2C172.2,71.2,186.9,69,201.3,68.9z"/>
<path class="st2" d="M874.4,135.6c2.1,1.9,4.2,3.9,6.3,5.9c9.6,3.3,18.7,7.7,27.4,13V118c-4.3,2.6-8.6,5-13,7.4
	C888.4,129.1,881.5,132.5,874.4,135.6z"/>
<path class="st2" d="M244.6,183.6c38.3-3,70.6,35.2,109,33c42.4-2.5,76.2-53.6,117-41.9c33.7,9.6,42.2,54.5,69.9,76.1
	c30.1,23.5,75.6,13.1,105.7-10.4s50.3-57.1,75.9-85.4c1-1.1,2.1-2.3,3.2-3.4c-38.1-10.9-73.2-34.6-112.8-36.3
	c-34.9-1.4-67.9,14.5-102.4,19.8c-52.5,8-105.4-9-155.2-27.5c-49.8-18.5-100.5-39.2-153.6-38.7c-14.4,0.1-29.1,2.3-43.2,6.3v191.1
	c8.8-12.2,16.4-25.5,24.9-38C197.8,206.6,218.4,185.7,244.6,183.6z"/>
<path class="st3" d="M268,261.9c33.6-17.5,74.1-29.4,108.9-14.5c20.6,8.9,36.4,26,54.7,39c38.4,27.3,89.7,35.6,134.8,21.8
	c56.4-17.2,97.4-64.4,140.6-104.5c43.2-40.1,98.8-77.1,156.8-66.6c5.8,1.1,11.4,2.6,16.9,4.4c-2.1-2-4.2-4-6.3-5.9
	c-15.4-14-32.3-24.8-53-27.8c-36.3-5.2-70.8,17-96.1,43.8c-1.1,1.1-2.1,2.3-3.2,3.4c-25.6,28.3-45.8,61.9-75.9,85.4
	s-75.6,33.9-105.7,10.4c-27.7-21.6-36.2-66.5-69.9-76.1c-40.8-11.7-74.6,39.4-117,41.9c-38.4,2.2-70.7-36-109-33
	c-26.2,2.1-46.8,23-61.6,44.7c-8.5,12.5-16.1,25.8-24.9,38v46.1c2.6-0.4,5.2-0.9,7.8-1.5C202.8,302.3,234.4,279.4,268,261.9z"/>
<path class="st4" d="M863.8,137.1c-58-10.5-113.6,26.5-156.8,66.6c-43.2,40.1-84.2,87.3-140.6,104.5c-45.1,13.8-96.4,5.5-134.8-21.8
	c-18.3-13-34.1-30.1-54.7-39c-34.8-14.9-75.3-3-108.9,14.5c-33.6,17.5-65.2,40.4-102.1,49c-2.6,0.6-5.2,1.1-7.8,1.5v28.2
	c18.4,1.8,37.4-1.9,53.4-11.1c33-19,55.6-59.7,93.6-62c46.9-3,75.9,54.4,121.4,66c33.3,8.5,67.2-9.2,101.5-11.7
	c50.2-3.6,102.7,25.4,149,5.7c27.7-11.8,45.6-38.4,63.7-62.4s40.8-48.4,70.7-52.1c21.5-2.6,42.7,6.1,62,16
	c11.8,6.1,23.4,12.6,34.7,19.6v-94c-8.7-5.3-17.8-9.7-27.4-13C875.2,139.7,869.6,138.2,863.8,137.1z"/>
<path class="st5" d="M811.4,213c-29.9,3.7-52.6,28.1-70.7,52.1s-36,50.6-63.7,62.4c-46.3,19.7-98.8-9.3-149-5.7
	c-34.3,2.5-68.2,20.2-101.5,11.7c-45.5-11.6-74.5-69-121.4-66c-38,2.3-60.6,43-93.6,62c-16,9.3-35,13-53.4,11.1v21.7
	c16.5,1.2,33.5-2.7,48.4-12.3c19.4-12.5,33.7-33.7,56-39.6c22.9-6.1,46.5,6.4,65.4,20.7c18.9,14.3,36.9,31.5,59.8,37.4
	c38.4,9.8,78.5-14.8,117.5-8.3c24.4,4,45.4,19.8,69.6,24.8c40.2,8.3,80.1-14.7,111.4-41.2s60-58.2,98.2-73.1
	c39.3-15.3,84.2-10.4,123.7,4.9v-27c-11.3-7-22.9-13.5-34.7-19.6C854.1,219.1,832.9,210.4,811.4,213z"/>
</svg>
