<svg xmlns="http://www.w3.org/2000/svg" xmlns:xlink="http://www.w3.org/1999/xlink" viewBox="0 0 376.58 286.2"><defs><style>.cls-1{fill:#6b78bd;}.cls-2,.cls-3{fill:none;}.cls-3{stroke:#231f20;stroke-width:0.3px;}.cls-4{isolation:isolate;}.cls-10,.cls-5{fill:#1b1c63;}.cls-5{opacity:0.3;}.cls-10,.cls-15,.cls-18,.cls-19,.cls-20,.cls-5{mix-blend-mode:multiply;}.cls-6{fill:#c29cb7;}.cls-7{fill:#eacedf;}.cls-8{mix-blend-mode:overlay;fill:url(#Unnamed_Pattern_3);}.cls-9{fill:#fff;}.cls-19,.cls-9{opacity:0.6;}.cls-10,.cls-15{opacity:0.4;}.cls-11{fill:#dce7f5;}.cls-12{fill:#cdd5ea;}.cls-13,.cls-15,.cls-18,.cls-19{fill:#a0afd5;}.cls-14{fill:#2c2d6f;}.cls-16{clip-path:url(#clip-path);}.cls-17{opacity:0.1;}.cls-18{opacity:0.5;}.cls-20{fill:#e4e0dd;}.cls-21{fill:#c45a8d;}.cls-22{fill:#fc6591;}.cls-23{fill:#361a53;}.cls-24{clip-path:url(#clip-path-2);}.cls-25{fill:#484f96;}.cls-26{fill:#a76460;}.cls-27{fill:#6496bf;}.cls-28{fill:#85c8ff;}.cls-29{fill:#645443;}.cls-30{fill:#5b3a89;}.cls-31{fill:#6f559b;}.cls-32{fill:#e4aa63;}</style><pattern id="Unnamed_Pattern_3" data-name="Unnamed Pattern 3" width="72" height="72" patternTransform="translate(-1.69 -21.66)" patternUnits="userSpaceOnUse" viewBox="0 0 72 72"><rect class="cls-2" width="72" height="72"/><polyline class="cls-3" points="48.71 27.84 42.04 25 44.02 32.16"/><polyline class="cls-3" points="32.88 18.57 39.92 14.97 33.27 12.97"/><polyline class="cls-3" points="50.11 26.23 56.39 22.65 50.01 18.86"/><polyline class="cls-3" points="29.99 28.48 29.73 20.77 24.48 25.27"/><polyline class="cls-3" points="60.25 44.29 66.75 47.5 65.18 40.25"/><polyline class="cls-3" points="58.26 59.77 58.2 52.52 52.43 57.19"/><polyline class="cls-3" points="52.99 44.72 52.85 51.97 58.75 47.46"/><polyline class="cls-3" points="46.51 37.69 53.75 37.25 48.79 31.73"/><polyline class="cls-3" points="43.45 43.65 49.25 48 49.04 40.58"/><polyline class="cls-3" points="32.27 51.9 28.84 47.32 26.73 52.56"/><polyline class="cls-3" points="33.38 41.24 40.06 44.09 37.27 37.28"/><polyline class="cls-3" points="16.3 53.58 13.75 46.38 9.48 52.45"/><polyline class="cls-3" points="34.56 27.65 34.05 33.9 40.37 30.28"/><polyline class="cls-3" points="8.42 19.47 14.75 23 13.55 15.68"/><polyline class="cls-3" points="26.44 40.53 20.8 35.98 20.75 43.4"/><polyline class="cls-3" points="24.5 20.75 18.7 14.61 18.08 22.85"/><polyline class="cls-3" points="25.23 55.29 27.64 61.94 32.35 54.13"/><polyline class="cls-3" points="42.96 14.07 43.25 22.25 48.33 16.84"/><polyline class="cls-3" points="18.08 37.68 11.59 36.26 14.5 43.09"/><polyline class="cls-3" points="63.25 49.61 61 56.5 67.96 53.91"/><polyline class="cls-3" points="58.27 36.64 54.89 42.85 61.55 42.11"/><polyline class="cls-3" points="53.61 8.93 60.86 9.1 56.38 3.18"/><polyline class="cls-3" points="64.82 4 64.81 11.25 70.63 6.64"/><polyline class="cls-3" points="26.66 37.19 30.61 31.11 23.23 31.82"/><polyline class="cls-3" points="40 20.5 32.75 20.35 37.25 26.25"/><polyline class="cls-3" points="30.76 69.42 33.83 61.64 26.26 64.89"/><polyline class="cls-3" points="66.47 15.02 60 11.75 61.51 19.02"/><polyline class="cls-3" points="35 50 41.46 52.66 38.75 45.75"/><polyline class="cls-3" points="42.76 50.35 49.75 52.28 43.75 56.65"/><polyline class="cls-3" points="21.61 23.15 18.08 29.48 25.15 29.28"/><polyline class="cls-3" points="58 62.38 51.59 65.75 58.38 68.74"/><polyline class="cls-3" points="48.08 56.87 47.38 64.08 53.61 60.05"/><polyline class="cls-3" points="42.13 4.83 40.3 12.53 47.1 9.11"/><polyline class="cls-3" points="60.24 61.82 66.9 64.68 64.95 57.52"/><polyline class="cls-3" points="11.75 25 4.98 22.24 8 29.25"/><polyline class="cls-3" points="21.25 61.75 21.97 52.61 15.47 57.18"/><polyline class="cls-3" points="12.78 56.84 6.35 53.49 7.76 60.77"/><polyline class="cls-3" points="23.73 3.12 22.02 9.34 29.14 7.23"/><polyline class="cls-3" points="6.01 10.29 5.89 17.54 11.78 13.03"/><polyline class="cls-3" points="11.64 59.59 14.5 66.25 18.02 59.72"/><polyline class="cls-3" points="17.98 43.25 18.82 50.45 24.75 45.5"/><polyline class="cls-3" points="39.06 66.18 45.5 69.5 44.25 61.25"/><polyline class="cls-3" points="67.77 33.28 61.38 29.63 62.04 36.55"/><polyline class="cls-3" points="59.34 21.52 63.54 27.43 65.6 20.3"/><polyline class="cls-3" points="52.5 28.77 55.25 33.75 58.37 27.02"/><polyline class="cls-3" points="7.63 1.72 1.65 5.83 8.75 8"/><polyline class="cls-3" points="48.66 12.22 52.4 6.02 47.05 5.97"/><polyline class="cls-3" points="6.94 63.13 3.89 69.71 11.1 67.96"/><polyline class="cls-3" points="25.77 69.66 19.58 65.89 20.5 73.25"/><polyline class="cls-3" points="40.67 56.27 34.75 57.25 39.96 62.6"/><polyline class="cls-3" points="46.95 35.21 39.72 34.76 43.97 40.84"/><polyline class="cls-3" points="43.89 73.78 38.17 69.33 38.25 76.75"/><polyline class="cls-3" points="55.25 10.81 51.26 16.86 58.65 16.2"/><polyline class="cls-3" points="12.01 6.12 15.62 12.41 18.36 5.52"/><polyline class="cls-3" points="5.6 49.17 11.55 45.03 4.44 42.89"/><polyline class="cls-3" points="14.51 35.36 16.14 26.84 8.87 32.33"/><polyline class="cls-3" points="7.35 35.53 2.25 39.68 9.62 40.49"/><polyline class="cls-3" points="57.62 70.85 63.29 75.36 63.79 66.44"/><polyline class="cls-3" points="27.75 69.66 31 76.14 34.12 69.4"/><polyline class="cls-3" points="53.41 76.54 52.46 69.36 47.31 74.69"/><polyline class="cls-3" points="15.75 75.75 15.17 68.52 9.75 73.59"/><polyline class="cls-3" points="38.44 9.21 33.94 3.52 32 10.75"/><polyline class="cls-3" points="72.93 33.69 71.65 40.82 66.75 35.25"/><polyline class="cls-3" points="67.25 24.75 73.59 21.24 66.73 18.39"/><polyline class="cls-3" points="74.75 25.25 69.79 30.54 77.19 31.14"/><polyline class="cls-3" points="74.5 73.5 69.42 68.33 68.51 75.69"/><polyline class="cls-3" points="72.05 17.72 75.36 11.27 68.08 12.73"/><polyline class="cls-3" points="72.54 65.15 76.75 59.25 69.34 59.63"/><polyline class="cls-3" points="75.85 50.65 70.25 55.25 77.5 56.81"/><polyline class="cls-3" points="72.34 50.34 69.81 43.55 76.86 45.85"/><polyline class="cls-3" points="30.83 16.57 27.41 10.17 24.47 16.98"/><polyline class="cls-3" points="30.5 38.56 27.01 43.86 32.15 44.45"/><polyline class="cls-3" points="0.93 33.69 -0.35 40.82 -5.25 35.25"/><polyline class="cls-3" points="-4.75 24.75 1.59 21.24 -5.27 18.39"/><polyline class="cls-3" points="2.75 25.25 -2.21 30.54 5.19 31.14"/><polyline class="cls-3" points="2.5 73.5 -2.58 68.33 -3.49 75.69"/><polyline class="cls-3" points="0.05 17.72 3.35 11.27 -3.92 12.73"/><polyline class="cls-3" points="0.54 65.15 4.75 59.25 -2.66 59.63"/><polyline class="cls-3" points="3.85 50.65 -1.75 55.25 5.5 56.81"/><polyline class="cls-3" points="0.34 50.34 -2.19 43.55 4.86 45.85"/><polyline class="cls-3" points="25.77 -2.34 19.58 -6.11 20.5 1.25"/><polyline class="cls-3" points="43.89 1.78 38.17 -2.67 38.25 4.75"/><polyline class="cls-3" points="57.62 -1.15 63.29 3.36 63.79 -5.56"/><polyline class="cls-3" points="27.75 -2.34 31 4.14 34.12 -2.6"/><polyline class="cls-3" points="53.41 4.54 52.46 -2.64 47.31 2.69"/><polyline class="cls-3" points="15.75 3.75 15.17 -3.48 9.75 1.59"/><polyline class="cls-3" points="74.5 1.5 69.42 -3.67 68.51 3.69"/><polyline class="cls-3" points="2.5 1.5 -2.58 -3.67 -3.49 3.69"/></pattern><clipPath id="clip-path"><polygon id="_Clipping_Path_" data-name="&lt;Clipping Path&gt;" class="cls-1" points="72.27 183.15 72.27 85.93 205.26 9.14 205.26 106.37 72.27 183.15"/></clipPath><clipPath id="clip-path-2"><path class="cls-2" d="M258.42,41.19c10.19,4.08,2,37.69-5.32,41.93s-19.23,4.26-26.53,0-15.41-37.83-5.16-41.93S248.23,37.11,258.42,41.19Z"/></clipPath></defs><title>Asset 1web_design</title><g class="cls-4"><g id="Layer_2" data-name="Layer 2"><g id="OBJECTS"><path class="cls-5" d="M373.13,168.45,171.64,284.79c-3.63,2.09-10,1.83-14.18-.59L32.38,212c-4.2-2.42-4.65-6.09-1-8.19L232.85,87.46c3.63-2.09,10-1.83,14.18.59l125.08,72.22C376.31,162.69,376.76,166.36,373.13,168.45Z"/><path class="cls-6" d="M374.13,166.45,172.64,282.79c-3.63,2.09-10,1.83-14.18-.59L33.38,210c-4.2-2.42-4.65-6.09-1-8.19L233.85,85.46c3.63-2.09,10-1.83,14.18.59l125.08,72.22C377.31,160.69,377.76,164.36,374.13,166.45Z"/><path class="cls-7" d="M374.13,164.45,172.64,280.79c-3.63,2.09-10,1.83-14.18-.59L33.38,208c-4.2-2.42-4.65-6.09-1-8.19L233.85,83.46c3.63-2.09,10-1.83,14.18.59l125.08,72.22C377.31,158.69,377.76,162.36,374.13,164.45Z"/><path class="cls-8" d="M374.13,164.45,172.64,280.79c-3.63,2.09-10,1.83-14.18-.59L33.38,208c-4.2-2.42-4.65-6.09-1-8.19L233.85,83.46c3.63-2.09,10-1.83,14.18.59l125.08,72.22C377.31,158.69,377.76,162.36,374.13,164.45Z"/><path class="cls-8" d="M374.13,164.45,172.64,280.79c-3.63,2.09-10,1.83-14.18-.59L33.38,208c-4.2-2.42-4.65-6.09-1-8.19L233.85,83.46c3.63-2.09,10-1.83,14.18.59l125.08,72.22C377.31,158.69,377.76,162.36,374.13,164.45Z"/><path class="cls-9" d="M374.52,157.75c1.76,2.16,1.35,4.63-1.39,6.21L171.64,280.29c-3.63,2.1-10,1.83-14.18-.59L32.38,207.48a9.68,9.68,0,0,1-1.41-1,8.31,8.31,0,0,0,2.41,2L158.46,280.7c4.2,2.42,10.55,2.69,14.18.59L374.13,165C377.3,163.13,377.36,160.1,374.52,157.75Z"/><path class="cls-10" d="M303,177.1l-35.7-20.61-51.82-29.91c-3.54-2-8.89-2.27-12-.5L69.89,203.23c-3.07,1.77-2.68,4.87.86,6.91l51.8,29.91,35.71,20.62c3.54,2,8.9,2.26,12,.49L303.86,184C306.93,182.24,306.54,179.15,303,177.1Z"/><path class="cls-11" d="M66.4,191V90c0-5.68,1.86-8.44,5.55-10.61L205.59,2.22a4.22,4.22,0,0,1,3.58-.68h0S206.92.23,206.71.16h0a4.28,4.28,0,0,0-3.54.69L69.53,78C65.84,80.17,64,82.93,64,88.62v101c0,2.72.75,4.25,1.93,4.78l2,1.13C67,194.9,66.4,193.43,66.4,191Z"/><path class="cls-12" d="M160.33,258.31c3.54,2,8.89,2.26,12,.49l133.63-77.15a3.57,3.57,0,0,0,2.07-3h0V173.2h0a3.64,3.64,0,0,1-2.06,2.81L172.29,253.16c-3.07,1.77-8.42,1.55-12-.49Z"/><path class="cls-13" d="M160.33,252.67,72.81,202.14c-1.8-1-2.78-2.35-2.91-3.61h0v5.1a3,3,0,0,0,0,.52v0h0c.14,1.26,1.12,2.56,2.91,3.59l87.52,50.53Z"/><path class="cls-11" d="M269.36,148.49l35.7,20.61c3.54,2.05,3.93,5.14.86,6.91L172.29,253.16c-3.07,1.77-8.42,1.55-12-.49l-35.71-20.62Z"/><path class="cls-11" d="M124.62,232.05,72.81,202.14c-3.54-2-3.92-5.14-.86-6.91l133.64-77.15c3.06-1.77,8.42-1.55,12,.49l51.81,29.92Z"/><path class="cls-14" d="M102.44,202.12,95.76,206a1.78,1.78,0,0,1-1.6-.06l-6.4-3.7c-.48-.27-.53-.69-.12-.92l6.69-3.86a1.76,1.76,0,0,1,1.59.06l6.41,3.7C102.8,201.48,102.85,201.89,102.44,202.12Z"/><path class="cls-14" d="M111.49,196.9l-6.68,3.86a1.75,1.75,0,0,1-1.6-.07L96.8,197c-.47-.27-.52-.68-.11-.92l6.69-3.86a1.79,1.79,0,0,1,1.59.07l6.41,3.7C111.85,196.25,111.9,196.66,111.49,196.9Z"/><path class="cls-14" d="M120.54,191.68l-6.69,3.86a1.79,1.79,0,0,1-1.59-.07l-6.41-3.7c-.47-.27-.52-.68-.11-.92l6.68-3.86a1.75,1.75,0,0,1,1.6.07l6.41,3.69C120.9,191,121,191.44,120.54,191.68Z"/><path class="cls-14" d="M129.59,186.45l-6.69,3.86a1.76,1.76,0,0,1-1.59-.06l-6.41-3.7c-.47-.27-.52-.69-.12-.92l6.69-3.86a1.78,1.78,0,0,1,1.6.06l6.4,3.7C130,185.8,130,186.22,129.59,186.45Z"/><path class="cls-14" d="M138.64,181.23,132,185.09a1.78,1.78,0,0,1-1.6-.07l-6.4-3.7c-.47-.27-.53-.68-.12-.92l6.69-3.86a1.79,1.79,0,0,1,1.59.07l6.41,3.7C139,180.58,139,181,138.64,181.23Z"/><path class="cls-14" d="M147.68,176,141,179.87a1.81,1.81,0,0,1-1.6-.07L133,176.1c-.47-.27-.52-.68-.11-.92l6.69-3.86a1.76,1.76,0,0,1,1.59.06l6.41,3.7C148,175.36,148.09,175.77,147.68,176Z"/><path class="cls-14" d="M156.73,170.78,150,174.64a1.76,1.76,0,0,1-1.59-.06l-6.41-3.7c-.47-.28-.52-.69-.11-.92l6.68-3.87a1.81,1.81,0,0,1,1.6.07l6.41,3.7C157.09,170.13,157.14,170.54,156.73,170.78Z"/><path class="cls-14" d="M165.78,165.56l-6.69,3.86a1.79,1.79,0,0,1-1.59-.07l-6.41-3.7c-.47-.27-.52-.68-.11-.92l6.68-3.86a1.78,1.78,0,0,1,1.6.07l6.4,3.7C166.14,164.91,166.19,165.32,165.78,165.56Z"/><path class="cls-14" d="M174.83,160.33l-6.69,3.86a1.76,1.76,0,0,1-1.59-.06l-6.41-3.7c-.47-.27-.53-.69-.12-.92l6.69-3.86a1.78,1.78,0,0,1,1.6.06l6.4,3.7C175.18,159.69,175.24,160.1,174.83,160.33Z"/><path class="cls-14" d="M183.87,155.11,177.19,159a1.75,1.75,0,0,1-1.6-.07l-6.4-3.69c-.48-.28-.53-.69-.12-.93l6.69-3.86a1.79,1.79,0,0,1,1.59.07l6.41,3.7C184.23,154.46,184.28,154.87,183.87,155.11Z"/><path class="cls-14" d="M192.92,149.89l-6.69,3.86a1.79,1.79,0,0,1-1.59-.07l-6.41-3.7c-.47-.27-.52-.68-.11-.92l6.69-3.86a1.73,1.73,0,0,1,1.59.07l6.41,3.7C193.28,149.24,193.33,149.65,192.92,149.89Z"/><path class="cls-14" d="M202,144.66l-6.69,3.86a1.76,1.76,0,0,1-1.59-.06l-6.41-3.7c-.47-.27-.52-.69-.11-.92l6.68-3.86a1.78,1.78,0,0,1,1.6.06l6.41,3.7C202.33,144,202.38,144.43,202,144.66Z"/><path class="cls-14" d="M211,139.44l-6.69,3.86a1.73,1.73,0,0,1-1.59-.07l-6.41-3.7c-.47-.27-.52-.68-.12-.92l6.69-3.86a1.81,1.81,0,0,1,1.6.07l6.4,3.7C211.38,138.79,211.43,139.2,211,139.44Z"/><path class="cls-14" d="M224.15,131.85l-10.77,6.23a1.81,1.81,0,0,1-1.6-.07l-6.4-3.7c-.48-.27-.53-.68-.12-.92L216,127.17a1.76,1.76,0,0,1,1.59.06l6.41,3.7C224.51,131.21,224.56,131.62,224.15,131.85Z"/><path class="cls-14" d="M218.34,136.22l6.69-3.86a1.73,1.73,0,0,1,1.59.07l6.41,3.69c.47.28.52.69.11.93l-6.68,3.86a1.81,1.81,0,0,1-1.6-.07l-6.4-3.7C218,136.87,217.93,136.46,218.34,136.22Z"/><path class="cls-14" d="M209.29,141.44l6.69-3.86a1.81,1.81,0,0,1,1.6.07l6.4,3.7c.48.27.53.68.12.92l-6.69,3.86a1.75,1.75,0,0,1-1.6-.07l-6.4-3.7C208.94,142.09,208.89,141.68,209.29,141.44Z"/><path class="cls-14" d="M200.25,146.67l6.68-3.86a1.78,1.78,0,0,1,1.6.06l6.41,3.7c.47.27.52.69.11.92l-6.69,3.86a1.76,1.76,0,0,1-1.59-.06l-6.41-3.7C199.89,147.32,199.84,146.9,200.25,146.67Z"/><path class="cls-14" d="M191.2,151.89l6.69-3.86a1.73,1.73,0,0,1,1.59.07l6.41,3.7c.47.27.52.68.11.92l-6.69,3.86a1.79,1.79,0,0,1-1.59-.07l-6.41-3.7C190.84,152.54,190.79,152.13,191.2,151.89Z"/><path class="cls-14" d="M182.15,157.12l6.69-3.87a1.79,1.79,0,0,1,1.59.07l6.41,3.7c.47.27.52.68.11.92l-6.68,3.86a1.78,1.78,0,0,1-1.6-.06l-6.4-3.7C181.79,157.76,181.74,157.35,182.15,157.12Z"/><path class="cls-14" d="M173.1,162.34l6.69-3.86a1.78,1.78,0,0,1,1.6.06l6.4,3.7c.47.28.52.69.12.92L181.22,167a1.81,1.81,0,0,1-1.6-.07l-6.4-3.7C172.75,163,172.69,162.57,173.1,162.34Z"/><path class="cls-14" d="M164.06,167.56l6.68-3.86a1.81,1.81,0,0,1,1.6.07l6.4,3.7c.48.27.53.68.12.92l-6.69,3.86a1.76,1.76,0,0,1-1.59-.07l-6.41-3.7C163.7,168.21,163.65,167.8,164.06,167.56Z"/><path class="cls-14" d="M155,172.79l6.68-3.86a1.78,1.78,0,0,1,1.6.06l6.41,3.7c.47.27.52.69.11.92l-6.69,3.86a1.76,1.76,0,0,1-1.59-.06l-6.41-3.7C154.65,173.44,154.6,173,155,172.79Z"/><path class="cls-14" d="M146,178l6.69-3.86a1.73,1.73,0,0,1,1.59.07l6.41,3.69c.47.28.52.69.11.93l-6.68,3.86a1.81,1.81,0,0,1-1.6-.07l-6.41-3.7C145.6,178.66,145.55,178.25,146,178Z"/><path class="cls-14" d="M136.91,183.23l6.69-3.86a1.79,1.79,0,0,1,1.59.07l6.41,3.7c.47.27.52.68.12.92L145,187.92a1.75,1.75,0,0,1-1.6-.07l-6.4-3.69C136.55,183.88,136.5,183.47,136.91,183.23Z"/><path class="cls-14" d="M127.86,188.46l6.69-3.86a1.78,1.78,0,0,1,1.6.06l6.4,3.7c.47.27.53.69.12.92L136,193.14a1.76,1.76,0,0,1-1.59-.06l-6.41-3.7C127.51,189.11,127.46,188.69,127.86,188.46Z"/><path class="cls-14" d="M118.82,193.68l6.68-3.86a1.75,1.75,0,0,1,1.6.07l6.41,3.7c.47.27.52.68.11.92l-6.69,3.86a1.79,1.79,0,0,1-1.59-.07l-6.41-3.7C118.46,194.33,118.41,193.92,118.82,193.68Z"/><path class="cls-14" d="M109.77,198.91l6.69-3.87a1.79,1.79,0,0,1,1.59.07l6.41,3.7c.47.27.52.68.11.92l-6.68,3.86a1.78,1.78,0,0,1-1.6-.06l-6.41-3.7C109.41,199.55,109.36,199.14,109.77,198.91Z"/><path class="cls-14" d="M96.63,206.49l10.78-6.22a1.76,1.76,0,0,1,1.59.06l6.41,3.7c.47.28.52.69.11.92l-10.77,6.23a1.81,1.81,0,0,1-1.6-.07l-6.4-3.7C96.27,207.14,96.22,206.73,96.63,206.49Z"/><path class="cls-14" d="M220.8,145.18,234,137.55a1.73,1.73,0,0,1,1.59.07l6.41,3.7c.47.27.53.68.12.92l-13.22,7.63a1.81,1.81,0,0,1-1.6-.07l-6.4-3.7C220.44,145.83,220.39,145.42,220.8,145.18Z"/><path class="cls-14" d="M105.7,211.64,118.92,204a1.76,1.76,0,0,1,1.59.06l6.41,3.7c.47.27.52.69.11.92l-13.22,7.63a1.76,1.76,0,0,1-1.59-.06l-6.41-3.7C105.34,212.29,105.29,211.87,105.7,211.64Z"/><path class="cls-14" d="M211.75,150.41l6.69-3.86a1.78,1.78,0,0,1,1.6.06l6.4,3.7c.48.27.53.68.12.92l-6.69,3.86a1.76,1.76,0,0,1-1.59-.06l-6.41-3.7C211.4,151.05,211.35,150.64,211.75,150.41Z"/><path class="cls-14" d="M202.71,155.63l6.68-3.86a1.75,1.75,0,0,1,1.6.07l6.41,3.69c.47.28.52.69.11.92l-6.69,3.87a1.79,1.79,0,0,1-1.59-.07l-6.41-3.7C202.35,156.28,202.3,155.87,202.71,155.63Z"/><path class="cls-14" d="M193.66,160.85l6.69-3.86a1.79,1.79,0,0,1,1.59.07l6.41,3.7c.47.27.52.68.11.92l-6.68,3.86a1.75,1.75,0,0,1-1.6-.07l-6.41-3.7C193.3,161.5,193.25,161.09,193.66,160.85Z"/><path class="cls-14" d="M184.61,166.08l6.69-3.86a1.76,1.76,0,0,1,1.59.06l6.41,3.7c.47.27.52.69.11.92l-6.68,3.86a1.78,1.78,0,0,1-1.6-.06l-6.4-3.7C184.25,166.73,184.2,166.31,184.61,166.08Z"/><path class="cls-14" d="M175.56,171.3l6.69-3.86a1.75,1.75,0,0,1,1.6.07l6.4,3.69c.47.28.53.69.12.93L183.68,176a1.81,1.81,0,0,1-1.6-.07l-6.4-3.7C175.21,172,175.15,171.54,175.56,171.3Z"/><path class="cls-14" d="M166.52,176.52l6.68-3.86a1.81,1.81,0,0,1,1.6.07l6.4,3.7c.48.27.53.68.12.92l-6.69,3.86a1.73,1.73,0,0,1-1.59-.07l-6.41-3.69C166.16,177.17,166.11,176.76,166.52,176.52Z"/><path class="cls-14" d="M157.47,181.75l6.68-3.86a1.78,1.78,0,0,1,1.6.06l6.41,3.7c.47.28.52.69.11.92l-6.69,3.86a1.76,1.76,0,0,1-1.59-.06l-6.41-3.7C157.11,182.4,157.06,182,157.47,181.75Z"/><path class="cls-14" d="M148.42,187l6.69-3.86a1.76,1.76,0,0,1,1.59.07l6.41,3.7c.47.27.52.68.11.92l-6.68,3.86a1.81,1.81,0,0,1-1.6-.07l-6.41-3.7C148.06,187.62,148,187.21,148.42,187Z"/><path class="cls-14" d="M139.37,192.2l6.69-3.87a1.79,1.79,0,0,1,1.59.07l6.41,3.7c.47.27.52.68.12.92l-6.69,3.86a1.78,1.78,0,0,1-1.6-.06l-6.4-3.7C139,192.84,139,192.43,139.37,192.2Z"/><path class="cls-14" d="M130.32,197.42l6.69-3.86a1.78,1.78,0,0,1,1.6.06l6.4,3.7c.48.28.53.69.12.92l-6.69,3.87a1.79,1.79,0,0,1-1.59-.07l-6.41-3.7C130,198.07,129.92,197.66,130.32,197.42Z"/><path class="cls-14" d="M121.28,202.64l6.68-3.86a1.81,1.81,0,0,1,1.6.07l6.41,3.7c.47.27.52.68.11.92l-6.69,3.86a1.73,1.73,0,0,1-1.59-.07l-6.41-3.7C120.92,203.29,120.87,202.88,121.28,202.64Z"/><path class="cls-14" d="M225.3,153,243,142.74a1.81,1.81,0,0,1,1.6.07l6.4,3.7c.48.27.53.68.12.92l-17.71,10.22a1.78,1.78,0,0,1-1.6-.06l-6.4-3.7C224.94,153.61,224.89,153.2,225.3,153Z"/><path class="cls-14" d="M216.25,158.19l6.69-3.86a1.75,1.75,0,0,1,1.6.07l6.4,3.69c.47.28.53.69.12.93l-6.69,3.86a1.79,1.79,0,0,1-1.59-.07l-6.41-3.7C215.9,158.84,215.85,158.43,216.25,158.19Z"/><path class="cls-14" d="M207.21,163.41l6.68-3.86a1.81,1.81,0,0,1,1.6.07l6.4,3.7c.48.27.53.68.12.92l-6.69,3.86a1.73,1.73,0,0,1-1.59-.07l-6.41-3.7C206.85,164.06,206.8,163.65,207.21,163.41Z"/><path class="cls-14" d="M198.16,168.64l6.69-3.86a1.76,1.76,0,0,1,1.59.06l6.41,3.7c.47.27.52.69.11.92l-6.69,3.86a1.76,1.76,0,0,1-1.59-.06l-6.41-3.7C197.8,169.29,197.75,168.87,198.16,168.64Z"/><path class="cls-14" d="M189.11,173.86,195.8,170a1.73,1.73,0,0,1,1.59.07l6.41,3.7c.47.27.52.68.11.92l-6.68,3.86a1.81,1.81,0,0,1-1.6-.07l-6.4-3.7C188.75,174.51,188.7,174.1,189.11,173.86Z"/><path class="cls-14" d="M180.06,179.08l6.69-3.86a1.81,1.81,0,0,1,1.6.07l6.4,3.7c.47.27.52.68.12.92l-6.69,3.86a1.75,1.75,0,0,1-1.6-.07l-6.4-3.69C179.71,179.73,179.65,179.32,180.06,179.08Z"/><path class="cls-14" d="M171,184.31l6.68-3.86a1.78,1.78,0,0,1,1.6.06l6.4,3.7c.48.28.53.69.12.92L179.13,189a1.76,1.76,0,0,1-1.59-.06l-6.41-3.7C170.66,185,170.61,184.54,171,184.31Z"/><path class="cls-14" d="M162,189.53l6.68-3.86a1.81,1.81,0,0,1,1.6.07l6.41,3.7c.47.27.52.68.11.92l-6.69,3.86a1.79,1.79,0,0,1-1.59-.07l-6.41-3.7C161.61,190.18,161.56,189.77,162,189.53Z"/><path class="cls-14" d="M152.92,194.76l6.69-3.86a1.76,1.76,0,0,1,1.59.06l6.41,3.7c.47.27.52.69.11.92L161,199.44a1.78,1.78,0,0,1-1.6-.06l-6.41-3.7C152.56,195.41,152.51,195,152.92,194.76Z"/><path class="cls-14" d="M143.87,200l6.69-3.86a1.73,1.73,0,0,1,1.59.07l6.41,3.69c.47.28.52.69.12.93L152,204.67a1.81,1.81,0,0,1-1.6-.07l-6.4-3.7C143.51,200.63,143.46,200.22,143.87,200Z"/><path class="cls-14" d="M134.82,205.2l6.69-3.86a1.81,1.81,0,0,1,1.6.07l6.4,3.7c.47.27.53.68.12.92l-6.69,3.86a1.73,1.73,0,0,1-1.59-.07l-6.41-3.7C134.47,205.85,134.42,205.44,134.82,205.2Z"/><path class="cls-14" d="M114.69,216.83l17.77-10.26a1.78,1.78,0,0,1,1.6.06l6.41,3.7c.47.27.52.69.11.92l-17.77,10.26a1.78,1.78,0,0,1-1.6-.06l-6.41-3.7C114.33,217.48,114.28,217.06,114.69,216.83Z"/><path class="cls-14" d="M161.91,200l42.88-24.76a1.79,1.79,0,0,1,1.59.07l6.41,3.7c.47.27.52.68.12.92L170,204.63a1.78,1.78,0,0,1-1.6-.06l-6.4-3.7C161.55,200.6,161.5,200.18,161.91,200Z"/><path class="cls-14" d="M218.17,167.47l6.69-3.87a1.79,1.79,0,0,1,1.59.07l6.41,3.7c.47.27.53.68.12.92l-6.69,3.86a1.75,1.75,0,0,1-1.6-.07l-6.4-3.69C217.81,168.11,217.76,167.7,218.17,167.47Z"/><path class="cls-14" d="M207.15,173.83l8.66-5a1.78,1.78,0,0,1,1.6.06l6.4,3.7c.48.28.53.69.12.92l-8.66,5a1.78,1.78,0,0,1-1.6-.06l-6.41-3.7C206.79,174.48,206.74,174.07,207.15,173.83Z"/><path class="cls-14" d="M148.53,207.67l-6.69,3.86c-.41.24-.36.65.12.93l6.4,3.7a1.78,1.78,0,0,0,1.6.06l6.68-3.86c.41-.24.36-.65-.11-.92l-6.41-3.7A1.79,1.79,0,0,0,148.53,207.67Z"/><path class="cls-14" d="M159.55,201.31l-8.66,5c-.41.24-.36.65.11.92l6.41,3.7A1.79,1.79,0,0,0,159,211l8.67-5c.41-.24.35-.65-.12-.92l-6.41-3.7A1.73,1.73,0,0,0,159.55,201.31Z"/><path class="cls-14" d="M245.32,151.79l6.68-3.86a1.81,1.81,0,0,1,1.6.07l6.4,3.7c.48.27.53.68.12.92l-6.69,3.86a1.73,1.73,0,0,1-1.59-.07l-6.41-3.7C245,152.44,244.91,152,245.32,151.79Z"/><path class="cls-14" d="M236.27,157l6.68-3.86a1.78,1.78,0,0,1,1.6.06l6.41,3.7c.47.27.52.69.11.92l-6.69,3.86a1.76,1.76,0,0,1-1.59-.06l-6.41-3.7C235.91,157.67,235.86,157.25,236.27,157Z"/><path class="cls-14" d="M227.22,162.24l6.69-3.86a1.73,1.73,0,0,1,1.59.07l6.41,3.7c.47.27.52.68.11.92l-6.68,3.86a1.81,1.81,0,0,1-1.6-.07l-6.41-3.7C226.86,162.89,226.81,162.48,227.22,162.24Z"/><path class="cls-14" d="M123.68,222l15.8-9.12a1.76,1.76,0,0,1,1.59.06l6.41,3.7c.47.28.53.69.12.92l-15.8,9.13a1.81,1.81,0,0,1-1.6-.07l-6.4-3.7C123.32,222.67,123.27,222.26,123.68,222Z"/><path class="cls-14" d="M93.45,196.93l-6.68,3.86a1.78,1.78,0,0,1-1.6-.06L82,198.89c-.48-.28-.53-.69-.12-.92l6.69-3.86a1.76,1.76,0,0,1,1.59.06L93.34,196C93.81,196.28,93.86,196.7,93.45,196.93Z"/><path class="cls-14" d="M102.5,191.71l-6.69,3.86a1.73,1.73,0,0,1-1.59-.07L91,193.66c-.47-.27-.52-.68-.11-.92l6.69-3.86a1.79,1.79,0,0,1,1.59.07l3.19,1.84C102.86,191.06,102.91,191.47,102.5,191.71Z"/><path class="cls-14" d="M111.55,186.49l-6.69,3.86a1.79,1.79,0,0,1-1.59-.07l-3.19-1.84c-.47-.27-.52-.68-.11-.92l6.68-3.86a1.78,1.78,0,0,1,1.6.06l3.18,1.84C111.91,185.84,112,186.25,111.55,186.49Z"/><path class="cls-14" d="M120.6,181.26l-6.69,3.86a1.78,1.78,0,0,1-1.6-.06l-3.18-1.84c-.47-.28-.52-.69-.12-.92l6.69-3.86a1.78,1.78,0,0,1,1.6.06l3.18,1.84C121,180.61,121,181,120.6,181.26Z"/><path class="cls-14" d="M129.64,176,123,179.9a1.81,1.81,0,0,1-1.6-.07L118.18,178c-.48-.27-.53-.68-.12-.92l6.69-3.86a1.76,1.76,0,0,1,1.59.07l3.19,1.84C130,175.39,130.05,175.8,129.64,176Z"/><path class="cls-14" d="M138.69,170.81,132,174.67a1.78,1.78,0,0,1-1.6-.06l-3.18-1.84c-.48-.27-.53-.69-.12-.92L133.8,168a1.76,1.76,0,0,1,1.59.06l3.19,1.84C139.05,170.16,139.1,170.58,138.69,170.81Z"/><path class="cls-14" d="M147.74,165.59l-6.69,3.86a1.73,1.73,0,0,1-1.59-.07l-3.19-1.83c-.47-.28-.52-.69-.11-.93l6.69-3.86a1.79,1.79,0,0,1,1.59.07l3.19,1.84C148.1,164.94,148.15,165.35,147.74,165.59Z"/><path class="cls-14" d="M156.79,160.37l-6.69,3.86a1.79,1.79,0,0,1-1.59-.07l-3.19-1.84c-.47-.27-.52-.68-.11-.92l6.68-3.86a1.75,1.75,0,0,1,1.6.07l3.18,1.84C157.14,159.72,157.2,160.13,156.79,160.37Z"/><path class="cls-14" d="M165.84,155.14,159.15,159a1.78,1.78,0,0,1-1.6-.06l-3.18-1.84c-.47-.27-.53-.69-.12-.92l6.69-3.86a1.78,1.78,0,0,1,1.6.06l3.18,1.84C166.19,154.49,166.24,154.91,165.84,155.14Z"/><path class="cls-14" d="M174.88,149.92l-6.68,3.86a1.75,1.75,0,0,1-1.6-.07l-3.18-1.84c-.48-.27-.53-.68-.12-.92l6.69-3.86a1.79,1.79,0,0,1,1.59.07l3.19,1.84C175.24,149.27,175.29,149.68,174.88,149.92Z"/><path class="cls-14" d="M183.93,144.7l-6.69,3.86a1.79,1.79,0,0,1-1.59-.07l-3.19-1.84c-.47-.27-.52-.68-.11-.92l6.69-3.86a1.76,1.76,0,0,1,1.59.06l3.19,1.84C184.29,144.05,184.34,144.46,183.93,144.7Z"/><path class="cls-14" d="M193,139.47l-6.69,3.86a1.76,1.76,0,0,1-1.59-.06l-3.19-1.84c-.47-.28-.52-.69-.11-.92l6.68-3.87a1.81,1.81,0,0,1,1.6.07l3.18,1.84C193.34,138.82,193.39,139.24,193,139.47Z"/><path class="cls-14" d="M202,134.25l-6.69,3.86a1.81,1.81,0,0,1-1.6-.07l-3.18-1.84c-.47-.27-.52-.68-.12-.92l6.69-3.86a1.81,1.81,0,0,1,1.6.07l3.18,1.84C202.38,133.6,202.44,134,202,134.25Z"/><path class="cls-14" d="M215.16,126.66l-10.77,6.22a1.78,1.78,0,0,1-1.6-.06L199.61,131c-.47-.27-.53-.69-.12-.92l10.78-6.22a1.76,1.76,0,0,1,1.59.06l3.19,1.84C215.52,126,215.57,126.43,215.16,126.66Z"/><path class="cls-13" d="M249,207.69l-21.8,12.58a.65.65,0,0,0,0,1.22l23.91-13.81A2.34,2.34,0,0,0,249,207.69Z"/><polygon class="cls-13" points="196.81 124.93 83.82 190.17 82.27 189.28 195.26 124.04 196.81 124.93"/><path class="cls-15" d="M124.62,232.05,72.81,202.14c-3.54-2-3.92-5.14-.86-6.91l133.64-77.15c3.06-1.77,8.42-1.55,12,.49l51.81,29.92Z"/><polygon class="cls-13" points="66.4 89.98 66.4 191.04 63.98 189.64 63.98 88.58 66.4 89.98"/><path class="cls-1" d="M205.59,118.08,72,195.23C68.89,197,66.4,196,66.4,191V90c0-5.68,1.86-8.44,5.55-10.61L205.59,2.22c3.06-1.77,5.55-1,5.55,4.2V107.47C211.14,114.08,208.94,116.15,205.59,118.08Z"/><path class="cls-14" d="M206,2.8,71.58,80.38a9.92,9.92,0,0,0-4.49,7.75v104c0,2.84,2,4,4.49,2.56L206,117.07a9.9,9.9,0,0,0,4.5-7.74V5.36C210.45,2.52,208.43,1.37,206,2.8Z"/><polygon id="_Clipping_Path_2" data-name="&lt;Clipping Path&gt;" class="cls-1" points="72.27 183.15 72.27 85.93 205.26 9.14 205.26 106.37 72.27 183.15"/><g class="cls-16"><g class="cls-17"><path class="cls-12" d="M1,137.32c-1.95-1.92-1.07-4.78,2-6.38L131.06,63.07a9.7,9.7,0,0,1,4.33-1h0l7.38-.07h0a9.54,9.54,0,0,0-4.1,1L10.51,131c-3,1.61-3.89,4.47-1.91,6.4Z"/><path class="cls-12" d="M8.6,137.42,60.52,188.2a7.35,7.35,0,0,0,4.65,1.87h0l-7.41-.2c-.25,0-.49,0-.74,0H57A7.27,7.27,0,0,1,52.38,188L1,137.32Z"/><path class="cls-11" d="M171,81,147.86,63.34c-2.23-1.71-6.35-1.85-9.2-.34L10.51,131c-3,1.61-3.89,4.47-1.91,6.4l20.44,20Z"/><path class="cls-11" d="M29,157.41,60.52,188.2c2.24,2.19,6.66,2.54,9.86.78l135.26-74.41c3-1.65,3.4-4.56.88-6.49L171,81Z"/><path class="cls-14" d="M66.56,170.84l-6.87,3.75c-.42.23-.53.65-.23.93l4,3.86a1.17,1.17,0,0,0,1.3.1l6.9-3.77c.43-.24.53-.65.23-.94l-4-3.83A1.17,1.17,0,0,0,66.56,170.84Z"/><path class="cls-14" d="M75.82,165.79,69,169.52c-.42.23-.52.64-.22.92l4,3.84a1.19,1.19,0,0,0,1.31.09L81,170.61c.42-.23.52-.64.21-.92l-4.06-3.81A1.19,1.19,0,0,0,75.82,165.79Z"/><path class="cls-14" d="M85.05,160.75l-6.82,3.72c-.42.23-.51.64-.21.92l4.07,3.8a1.19,1.19,0,0,0,1.3.1l6.85-3.75c.42-.23.51-.64.21-.92l-4.11-3.78A1.21,1.21,0,0,0,85.05,160.75Z"/><path class="cls-14" d="M94.24,155.74l-6.79,3.7c-.42.23-.51.64-.21.91l4.1,3.78a1.21,1.21,0,0,0,1.31.09l6.82-3.73c.42-.23.51-.64.2-.92l-4.13-3.75A1.21,1.21,0,0,0,94.24,155.74Z"/><path class="cls-14" d="M103.39,150.74l-6.76,3.69c-.42.23-.51.63-.2.91l4.13,3.74a1.21,1.21,0,0,0,1.31.09l6.79-3.72c.42-.22.5-.63.2-.91l-4.17-3.71A1.21,1.21,0,0,0,103.39,150.74Z"/><path class="cls-14" d="M112.51,145.77l-6.74,3.67c-.41.23-.5.63-.19.9l4.17,3.71a1.21,1.21,0,0,0,1.31.09l6.76-3.7c.41-.23.5-.63.19-.9l-4.2-3.69A1.21,1.21,0,0,0,112.51,145.77Z"/><path class="cls-14" d="M121.59,140.81l-6.71,3.66c-.41.23-.49.63-.19.9l4.2,3.68a1.25,1.25,0,0,0,1.32.08l6.73-3.68c.42-.23.49-.63.18-.9l-4.23-3.66A1.23,1.23,0,0,0,121.59,140.81Z"/><path class="cls-14" d="M130.63,135.87,124,139.52c-.41.22-.49.62-.18.89l4.24,3.65a1.25,1.25,0,0,0,1.31.09l6.71-3.68c.41-.22.49-.62.17-.89L131.94,136A1.27,1.27,0,0,0,130.63,135.87Z"/><path class="cls-14" d="M139.64,131,133,134.59c-.41.22-.49.62-.18.88l4.27,3.63a1.25,1.25,0,0,0,1.31.08l6.69-3.66c.41-.22.48-.62.16-.89L141,131A1.27,1.27,0,0,0,139.64,131Z"/><path class="cls-14" d="M148.62,126.06,142,129.68c-.41.22-.48.61-.17.88l4.3,3.59a1.25,1.25,0,0,0,1.31.08l6.66-3.64c.41-.23.48-.62.16-.89l-4.33-3.57A1.26,1.26,0,0,0,148.62,126.06Z"/><path class="cls-14" d="M157.56,121.18l-6.61,3.6c-.4.23-.47.62-.15.88l4.32,3.56a1.27,1.27,0,0,0,1.32.08l6.63-3.63c.41-.22.47-.61.15-.88l-4.36-3.54A1.26,1.26,0,0,0,157.56,121.18Z"/><path class="cls-14" d="M166.46,116.32l-6.58,3.59c-.4.22-.47.61-.15.87l4.36,3.54a1.29,1.29,0,0,0,1.32.07l6.6-3.62c.41-.22.47-.61.15-.87l-4.39-3.51A1.28,1.28,0,0,0,166.46,116.32Z"/><path class="cls-14" d="M175.33,111.48l-6.55,3.58c-.4.22-.47.6-.15.86l4.39,3.51a1.3,1.3,0,0,0,1.32.07l6.58-3.6c.4-.22.47-.61.14-.87l-4.42-3.48A1.28,1.28,0,0,0,175.33,111.48Z"/><path class="cls-14" d="M188.15,104.49l-10.51,5.73c-.4.22-.46.6-.14.86l4.42,3.48a1.3,1.3,0,0,0,1.32.07l10.55-5.78c.4-.22.46-.6.13-.85l-4.46-3.45A1.3,1.3,0,0,0,188.15,104.49Z"/><path class="cls-14" d="M181,107.57l6.51-3.55c.4-.22.46-.6.13-.85l-4.41-3.4a1.3,1.3,0,0,0-1.3-.07l-6.48,3.53c-.4.22-.46.6-.14.85l4.38,3.43A1.3,1.3,0,0,0,181,107.57Z"/><path class="cls-14" d="M172.19,112.39l6.54-3.56c.39-.22.46-.6.13-.86l-4.38-3.43a1.28,1.28,0,0,0-1.3-.06L166.67,108c-.39.22-.46.6-.14.85l4.35,3.46A1.3,1.3,0,0,0,172.19,112.39Z"/><path class="cls-14" d="M163.31,117.24l6.57-3.58c.4-.22.46-.61.14-.86l-4.35-3.46a1.3,1.3,0,0,0-1.3-.07l-6.53,3.56c-.4.21-.47.6-.15.85l4.32,3.49A1.28,1.28,0,0,0,163.31,117.24Z"/><path class="cls-14" d="M154.4,122.1l6.59-3.6c.4-.22.47-.6.15-.86l-4.32-3.49a1.28,1.28,0,0,0-1.29-.07L149,117.65c-.41.22-.48.61-.16.86L153.1,122A1.26,1.26,0,0,0,154.4,122.1Z"/><path class="cls-14" d="M145.46,127l6.61-3.61c.41-.22.48-.61.16-.87L147.94,119a1.25,1.25,0,0,0-1.3-.07l-6.58,3.58c-.4.22-.48.61-.17.86l4.26,3.54A1.25,1.25,0,0,0,145.46,127Z"/><path class="cls-14" d="M136.48,131.88l6.64-3.63c.4-.22.48-.61.16-.87L139,123.84a1.28,1.28,0,0,0-1.3-.08l-6.61,3.6c-.41.22-.48.61-.17.87l4.22,3.57A1.25,1.25,0,0,0,136.48,131.88Z"/><path class="cls-14" d="M127.46,136.8l6.67-3.64c.41-.22.48-.62.17-.88l-4.23-3.57a1.24,1.24,0,0,0-1.29-.08l-6.64,3.61c-.4.22-.48.62-.18.88l4.2,3.6A1.25,1.25,0,0,0,127.46,136.8Z"/><path class="cls-14" d="M118.41,141.73l6.69-3.65c.41-.22.49-.62.18-.88l-4.19-3.6a1.23,1.23,0,0,0-1.3-.08l-6.66,3.63c-.41.22-.49.61-.19.88l4.17,3.62A1.21,1.21,0,0,0,118.41,141.73Z"/><path class="cls-14" d="M109.32,146.69,116,143c.41-.23.5-.63.19-.9l-4.16-3.62a1.21,1.21,0,0,0-1.3-.08l-6.69,3.64c-.4.22-.49.62-.19.88l4.13,3.66A1.21,1.21,0,0,0,109.32,146.69Z"/><path class="cls-14" d="M100.2,151.67,107,148c.41-.23.49-.63.19-.9L103,143.43a1.24,1.24,0,0,0-1.29-.08L95,147c-.41.22-.5.62-.2.89l4.1,3.68A1.21,1.21,0,0,0,100.2,151.67Z"/><path class="cls-14" d="M91,156.67l6.77-3.7c.42-.22.51-.63.2-.9l-4.09-3.69a1.2,1.2,0,0,0-1.29-.08L85.88,152c-.41.22-.5.62-.2.9l4.06,3.71A1.23,1.23,0,0,0,91,156.67Z"/><path class="cls-14" d="M81.85,161.68,88.64,158c.42-.22.51-.63.21-.91l-4.06-3.71a1.21,1.21,0,0,0-1.29-.09L76.73,157c-.41.22-.51.63-.21.9l4,3.74A1.19,1.19,0,0,0,81.85,161.68Z"/><path class="cls-14" d="M72.61,166.72,79.44,163c.42-.22.51-.63.21-.91l-4-3.74a1.16,1.16,0,0,0-1.28-.09l-6.8,3.69c-.42.23-.52.64-.22.92l4,3.77A1.17,1.17,0,0,0,72.61,166.72Z"/><path class="cls-14" d="M59.14,174.07l11.06-6c.42-.23.52-.64.22-.92l-4-3.78a1.19,1.19,0,0,0-1.28-.09l-11,6c-.42.23-.52.64-.23.92l4,3.81A1.17,1.17,0,0,0,59.14,174.07Z"/><path class="cls-14" d="M168.54,106.22l12.82-7c.4-.21.46-.59.14-.84L177.14,95a1.29,1.29,0,0,0-1.29-.06l-12.77,6.93c-.4.21-.46.59-.15.84l4.31,3.4A1.26,1.26,0,0,0,168.54,106.22Z"/><path class="cls-14" d="M53.67,168.68l13.48-7.33c.42-.23.52-.64.23-.91l-4-3.72a1.19,1.19,0,0,0-1.28-.09l-13.42,7.28c-.42.22-.52.63-.24.91l3.91,3.77A1.17,1.17,0,0,0,53.67,168.68Z"/><path class="cls-14" d="M159.71,111l6.53-3.55c.39-.22.46-.6.14-.85l-4.3-3.41a1.26,1.26,0,0,0-1.29-.06l-6.5,3.52c-.4.22-.46.59-.15.85l4.27,3.43A1.3,1.3,0,0,0,159.71,111Z"/><path class="cls-14" d="M150.85,115.83l6.55-3.56c.4-.22.47-.6.16-.85L153.28,108a1.26,1.26,0,0,0-1.29-.06l-6.52,3.53c-.4.22-.47.6-.16.85l4.25,3.46A1.24,1.24,0,0,0,150.85,115.83Z"/><path class="cls-14" d="M142,120.67l6.58-3.58c.4-.21.47-.6.15-.86l-4.24-3.46a1.27,1.27,0,0,0-1.28-.07l-6.55,3.55c-.4.22-.48.6-.17.86l4.22,3.49A1.24,1.24,0,0,0,142,120.67Z"/><path class="cls-14" d="M133,125.52l6.61-3.59c.4-.22.47-.6.16-.86l-4.21-3.49a1.24,1.24,0,0,0-1.29-.07l-6.57,3.56c-.4.22-.48.61-.17.86l4.18,3.52A1.24,1.24,0,0,0,133,125.52Z"/><path class="cls-14" d="M124.07,130.4l6.63-3.61c.4-.22.48-.61.17-.87l-4.18-3.52a1.26,1.26,0,0,0-1.29-.07l-6.59,3.58c-.41.22-.49.61-.18.87l4.15,3.54A1.24,1.24,0,0,0,124.07,130.4Z"/><path class="cls-14" d="M115.07,135.29l6.66-3.62c.4-.22.48-.61.18-.87l-4.15-3.55a1.24,1.24,0,0,0-1.29-.07l-6.62,3.59c-.41.22-.49.61-.19.87l4.12,3.57A1.22,1.22,0,0,0,115.07,135.29Z"/><path class="cls-14" d="M106,140.2l6.68-3.63c.41-.22.49-.62.19-.88l-4.12-3.58a1.22,1.22,0,0,0-1.28-.07l-6.65,3.6c-.41.22-.5.62-.2.88l4.09,3.6A1.22,1.22,0,0,0,106,140.2Z"/><path class="cls-14" d="M97,145.13l6.71-3.64c.41-.23.5-.62.19-.89L99.79,137a1.22,1.22,0,0,0-1.29-.08l-6.67,3.62c-.41.22-.5.61-.2.88l4.06,3.63A1.2,1.2,0,0,0,97,145.13Z"/><path class="cls-14" d="M87.87,150.08l6.73-3.66c.41-.22.5-.62.2-.89l-4-3.63a1.18,1.18,0,0,0-1.28-.08l-6.7,3.63c-.41.22-.51.62-.21.89l4,3.66A1.19,1.19,0,0,0,87.87,150.08Z"/><path class="cls-14" d="M78.73,155.05l6.76-3.67c.41-.23.5-.63.21-.9l-4-3.66a1.17,1.17,0,0,0-1.28-.08l-6.72,3.64c-.41.23-.51.63-.22.9l4,3.69A1.17,1.17,0,0,0,78.73,155.05Z"/><path class="cls-14" d="M69.56,160l6.78-3.69c.41-.22.51-.63.22-.9l-4-3.69a1.18,1.18,0,0,0-1.27-.09l-6.76,3.67c-.41.22-.51.62-.22.9l4,3.71A1.17,1.17,0,0,0,69.56,160Z"/><path class="cls-14" d="M158.14,103.81l17.12-9.29c.4-.21.46-.58.14-.83l-4.3-3.32a1.29,1.29,0,0,0-1.28-.06l-17,9.22c-.4.21-.47.59-.16.83l4.24,3.38A1.28,1.28,0,0,0,158.14,103.81Z"/><path class="cls-14" d="M149.34,108.57l6.51-3.52c.39-.22.46-.59.15-.84l-4.24-3.39a1.29,1.29,0,0,0-1.28-.06l-6.48,3.5c-.39.22-.46.59-.16.84l4.21,3.41A1.26,1.26,0,0,0,149.34,108.57Z"/><path class="cls-14" d="M140.51,113.36l6.53-3.54c.4-.21.47-.59.16-.85l-4.21-3.4a1.27,1.27,0,0,0-1.28-.07l-6.5,3.52c-.4.21-.47.59-.17.84l4.18,3.43A1.24,1.24,0,0,0,140.51,113.36Z"/><path class="cls-14" d="M131.64,118.17l6.56-3.56c.4-.21.47-.59.16-.85l-4.17-3.43a1.22,1.22,0,0,0-1.28-.07l-6.53,3.53c-.4.21-.48.59-.17.85l4.15,3.46A1.24,1.24,0,0,0,131.64,118.17Z"/><path class="cls-14" d="M122.74,123l6.58-3.56c.4-.22.48-.61.17-.86l-4.14-3.47a1.24,1.24,0,0,0-1.28-.06l-6.55,3.54c-.4.21-.48.6-.18.85l4.12,3.49A1.22,1.22,0,0,0,122.74,123Z"/><path class="cls-14" d="M113.8,127.84l6.61-3.59c.4-.21.48-.6.18-.86l-4.12-3.49a1.2,1.2,0,0,0-1.27-.07l-6.58,3.56c-.4.21-.48.6-.19.86l4.09,3.51A1.24,1.24,0,0,0,113.8,127.84Z"/><path class="cls-14" d="M104.83,132.7l6.64-3.6c.4-.22.48-.61.18-.87l-4.08-3.51a1.24,1.24,0,0,0-1.28-.08l-6.6,3.57c-.4.22-.49.61-.19.87l4,3.54A1.22,1.22,0,0,0,104.83,132.7Z"/><path class="cls-14" d="M95.83,137.58l6.65-3.61c.41-.22.5-.61.2-.87l-4.06-3.55a1.22,1.22,0,0,0-1.27-.08l-6.63,3.59c-.4.22-.49.61-.2.87l4,3.57A1.22,1.22,0,0,0,95.83,137.58Z"/><path class="cls-14" d="M86.79,142.48l6.68-3.62c.41-.23.5-.62.2-.88l-4-3.58a1.2,1.2,0,0,0-1.27-.07l-6.66,3.59c-.41.22-.5.61-.21.88l4,3.6A1.22,1.22,0,0,0,86.79,142.48Z"/><path class="cls-14" d="M77.71,147.4l6.71-3.64c.41-.22.5-.62.21-.88l-4-3.61a1.2,1.2,0,0,0-1.27-.08l-6.68,3.62c-.41.22-.51.61-.22.88l4,3.63A1.22,1.22,0,0,0,77.71,147.4Z"/><path class="cls-14" d="M68.6,152.34l6.73-3.65c.42-.23.51-.63.22-.89l-4-3.64a1.2,1.2,0,0,0-1.27-.08l-6.71,3.63c-.41.22-.51.62-.22.89l3.93,3.65A1.19,1.19,0,0,0,68.6,152.34Z"/><path class="cls-14" d="M48.19,163.4l18-9.77c.42-.22.52-.63.22-.9l-3.92-3.66a1.2,1.2,0,0,0-1.27-.08l-17.94,9.7c-.41.22-.52.62-.24.9l3.86,3.72A1.17,1.17,0,0,0,48.19,163.4Z"/><path class="cls-14" d="M81.18,137.43l42.33-22.86c.4-.22.48-.6.17-.85l-4.09-3.42a1.2,1.2,0,0,0-1.27-.07l-42.14,22.7c-.41.22-.5.61-.21.87l3.94,3.56A1.2,1.2,0,0,0,81.18,137.43Z"/><path class="cls-14" d="M136.56,107.51l6.5-3.51c.39-.21.47-.59.16-.83l-4.16-3.37a1.27,1.27,0,0,0-1.27-.06l-6.47,3.49c-.39.21-.47.58-.17.83l4.14,3.39A1.22,1.22,0,0,0,136.56,107.51Z"/><path class="cls-14" d="M125.82,113.32l8.45-4.57c.39-.21.47-.59.16-.84l-4.13-3.39a1.25,1.25,0,0,0-1.27-.06L120.62,109c-.4.22-.48.59-.17.84l4.09,3.42A1.27,1.27,0,0,0,125.82,113.32Z"/><path class="cls-14" d="M67.81,144.66l-6.71,3.62a1.16,1.16,0,0,1-1.27-.08L56,144.58c-.28-.26-.18-.66.23-.88l6.68-3.6a1.16,1.16,0,0,1,1.25.08l3.91,3.6C68.31,144,68.22,144.44,67.81,144.66Z"/><path class="cls-14" d="M78.83,138.71l-8.66,4.67a1.16,1.16,0,0,1-1.26-.08L65,139.71c-.29-.26-.19-.65.22-.87l8.62-4.64a1.16,1.16,0,0,1,1.25.07l4,3.56C79.33,138.09,79.23,138.49,78.83,138.71Z"/><path class="cls-14" d="M162.81,93.33l6.42-3.47c.39-.21.46-.58.14-.82l-4.25-3.28a1.27,1.27,0,0,0-1.27-.06l-6.39,3.45c-.39.21-.46.58-.15.82l4.22,3.3A1.27,1.27,0,0,0,162.81,93.33Z"/><path class="cls-14" d="M154.1,98l6.44-3.48c.39-.21.46-.58.15-.83l-4.22-3.31a1.27,1.27,0,0,0-1.27-.06l-6.42,3.46c-.39.21-.46.58-.16.83l4.2,3.33A1.27,1.27,0,0,0,154.1,98Z"/><path class="cls-14" d="M145.35,102.77l6.47-3.5c.39-.21.46-.58.15-.83l-4.19-3.34a1.25,1.25,0,0,0-1.27,0l-6.44,3.47c-.4.21-.47.58-.16.83l4.16,3.36A1.29,1.29,0,0,0,145.35,102.77Z"/><path class="cls-14" d="M42.78,158.18l15.94-8.61c.42-.23.52-.62.23-.89l-3.87-3.62a1.16,1.16,0,0,0-1.26-.08L38,153.53c-.42.22-.52.62-.24.89l3.81,3.67A1.12,1.12,0,0,0,42.78,158.18Z"/><path class="cls-14" d="M72.22,176.23,65.31,180c-.42.24-.52.66-.22.94l2,1.94a1.17,1.17,0,0,0,1.31.1l6.92-3.79c.42-.24.52-.66.22-.94l-2-1.93A1.19,1.19,0,0,0,72.22,176.23Z"/><path class="cls-14" d="M81.53,171.13l-6.88,3.77c-.42.23-.52.65-.22.93l2,1.93a1.19,1.19,0,0,0,1.31.1l6.9-3.79c.42-.23.51-.64.21-.93l-2-1.91A1.23,1.23,0,0,0,81.53,171.13Z"/><path class="cls-14" d="M90.8,166.06,84,169.81c-.42.23-.51.64-.21.93l2.05,1.91a1.21,1.21,0,0,0,1.31.09L94,169c.42-.23.51-.64.2-.92l-2.06-1.9A1.21,1.21,0,0,0,90.8,166.06Z"/><path class="cls-14" d="M100,161l-6.82,3.74c-.42.22-.51.64-.21.92l2.06,1.89a1.23,1.23,0,0,0,1.32.1l6.84-3.76c.41-.23.5-.64.19-.92l-2.07-1.88A1.21,1.21,0,0,0,100,161Z"/><path class="cls-14" d="M109.24,156l-6.8,3.72c-.42.23-.5.64-.2.92l2.08,1.88a1.23,1.23,0,0,0,1.32.09l6.81-3.74c.42-.22.5-.63.19-.91l-2.09-1.87A1.25,1.25,0,0,0,109.24,156Z"/><path class="cls-14" d="M118.4,151l-6.77,3.7c-.41.23-.5.64-.19.91l2.1,1.87a1.25,1.25,0,0,0,1.31.09l6.79-3.73c.41-.22.49-.63.18-.91L119.71,151A1.23,1.23,0,0,0,118.4,151Z"/><path class="cls-14" d="M127.52,146l-6.74,3.69c-.41.23-.49.63-.18.9l2.11,1.86a1.25,1.25,0,0,0,1.32.08l6.76-3.71c.41-.22.49-.63.17-.9L128.84,146A1.25,1.25,0,0,0,127.52,146Z"/><path class="cls-14" d="M136.61,141l-6.71,3.68c-.41.22-.49.63-.17.9l2.12,1.83a1.25,1.25,0,0,0,1.32.09l6.73-3.7c.41-.22.49-.62.17-.89l-2.14-1.83A1.27,1.27,0,0,0,136.61,141Z"/><path class="cls-14" d="M145.67,136,139,139.68c-.41.22-.48.62-.17.89l2.15,1.82a1.25,1.25,0,0,0,1.32.08l6.7-3.68c.41-.22.48-.62.16-.89L147,136.09A1.27,1.27,0,0,0,145.67,136Z"/><path class="cls-14" d="M154.69,131.08,148,134.72c-.4.23-.48.62-.16.89l2.16,1.81a1.27,1.27,0,0,0,1.32.08l6.68-3.67c.41-.22.48-.62.16-.88l-2.18-1.8A1.25,1.25,0,0,0,154.69,131.08Z"/><path class="cls-14" d="M163.67,126.16,157,129.79c-.4.22-.47.62-.15.88l2.17,1.8a1.29,1.29,0,0,0,1.33.07l6.65-3.65c.41-.22.47-.62.15-.88L165,126.23A1.3,1.3,0,0,0,163.67,126.16Z"/><path class="cls-14" d="M172.62,121.26,166,124.88c-.41.22-.47.61-.15.87l2.19,1.78a1.27,1.27,0,0,0,1.32.08L176,124c.4-.22.47-.61.14-.88l-2.2-1.76A1.3,1.3,0,0,0,172.62,121.26Z"/><path class="cls-14" d="M181.53,116.38,175,120c-.41.22-.47.61-.14.87l2.2,1.77a1.31,1.31,0,0,0,1.33.07l6.6-3.62c.4-.22.46-.61.13-.87l-2.22-1.75A1.3,1.3,0,0,0,181.53,116.38Z"/><path class="cls-14" d="M194.41,109.33l-10.56,5.78c-.4.22-.46.61-.13.86l2.22,1.75a1.3,1.3,0,0,0,1.32.07l10.59-5.8c.4-.22.45-.61.12-.87l-2.24-1.73A1.32,1.32,0,0,0,194.41,109.33Z"/><path class="cls-13" d="M86.52,91.54l-20.91,11.1a1.58,1.58,0,0,1-1.63,0L86.9,90.47C87.25,90.76,87.08,91.24,86.52,91.54Z"/><polygon class="cls-13" points="194.38 119.31 80.11 182.13 81.11 183.08 195.48 120.16 194.38 119.31"/><path class="cls-18" d="M29,157.41,60.52,188.2c2.24,2.19,6.66,2.54,9.86.78l135.26-74.41c3-1.65,3.4-4.56.88-6.49L171,81Z"/></g></g><path class="cls-12" d="M256.46,197.49l-10-5.77,0,0,0,0-.76-.45h0l-18.43-10.64a4.44,4.44,0,0,0-4,0l-44.69,25.8a1.22,1.22,0,0,0,0,2.31l18.35,10.6h0l.88.5h0l10,5.76a4.42,4.42,0,0,0,4,0l22-12.68.77-.45,22-12.68C257.56,199.15,257.56,198.12,256.46,197.49Z"/><path class="cls-19" d="M256.36,196.25l-10.67-5.94h0l-18.46-10.66a4.44,4.44,0,0,0-4,0l-44.69,25.8c-.78.45-1,1.1-.69,1.66a1.91,1.91,0,0,1,.69-.66l44.69-25.8a4.44,4.44,0,0,1,4,0l17.64,10.13,11.67,6.79a2.12,2.12,0,0,1,.8.77A1.82,1.82,0,0,0,256.36,196.25Z"/><polygon class="cls-13" points="244.53 191.01 244.62 190.95 244.55 190.91 244.53 191.01"/><path class="cls-10" d="M331.79,149.91c-2.31-14.44-32.27-29.75-48.33-25.24a26.92,26.92,0,0,0-6.29,3.26c-5.35,3.27-4.87,9.11,1.4,12.73l27,15.58c6.28,3.63,15.77,4,21.2.88l1.47-.84C331.12,154.61,332.28,152.27,331.79,149.91Z"/><path class="cls-14" d="M331.94,147.7c-.08,1.91-1.29,3.73-3.66,5.1l-1.47.85c-5.43,3.13-14.93,2.74-21.2-.88l-27-15.58c-3.33-1.93-5.09-4.38-5.19-6.72h0v2.29c.06,2.37,1.82,4.86,5.19,6.81l27,15.58c6.27,3.62,15.77,4,21.2.88l1.47-.85c2.4-1.39,3.61-3.24,3.66-5.18v-2.3Z"/><path class="cls-13" d="M331.94,147.24c0,.24.65,3.44-5.13,6.41h0c-5.44,3.13-14.94,2.74-21.22-.88l-27-15.58c-3.09-1.79-4.82-4-5.14-6.2.1,2.34,1.85,4.79,5.18,6.71l27,15.58c6.27,3.63,15.77,4,21.2.88l1.47-.84c2.4-1.39,3.61-3.24,3.66-5.19Z"/><path class="cls-11" d="M331.84,146.44c-2.31-14.45-32.27-29.76-48.33-25.24a25.81,25.81,0,0,0-6.29,3.26c-5.36,3.27-4.87,9.1,1.4,12.73l27,15.58c6.27,3.62,15.77,4,21.2.88l1.47-.85C331.17,151.13,332.33,148.8,331.84,146.44Z"/><path class="cls-20" d="M254.9,101.36c8.25,4.77,8.21,12.51-.09,17.3s-21.72,4.82-30,.06-8.2-12.51.1-17.3S246.65,96.6,254.9,101.36Z"/><path class="cls-21" d="M261.06,108.62V74.16H218.69v34.48c0,3.14,2,6.28,6.15,8.68,8.25,4.76,21.67,4.73,30-.06,4.13-2.39,6.21-5.5,6.25-8.62h0Z"/><path class="cls-22" d="M239.13,74.16H218.69v34.48c0,3.14,2,6.28,6.15,8.68a30.13,30.13,0,0,0,14.29,3.53Z"/><path class="cls-23" d="M254.9,65.49c8.25,4.76,8.21,12.5-.09,17.3s-21.72,4.81-30,0-8.2-12.51.1-17.3S246.65,60.72,254.9,65.49Z"/><g class="cls-24"><path class="cls-25" d="M230.1,47.75l-4.23-5.62-.05,0a.22.22,0,0,0-.19.07s0,0,0,0l.06,7.08Z"/><path class="cls-1" d="M225.82,42.1h-.06l2.14,6.41,2.2-.77-4.23-5.62Z"/><path class="cls-25" d="M230.41,48h0a1.24,1.24,0,0,0-1.06-.79,4,4,0,0,0-3.43,1.16,1.23,1.23,0,0,0-.37,1.23h0l22.31,65.62,4.88-1.38Z"/><path class="cls-1" d="M250.28,114.51l2.45-.69L230.41,48h0a1.24,1.24,0,0,0-1.06-.79,3.71,3.71,0,0,0-1.85.16Z"/><path class="cls-26" d="M251.68,113.05c1.13.23,1.44,1.11.68,2a4,4,0,0,1-3.42,1.16c-1.13-.23-1.43-1.11-.68-2A4,4,0,0,1,251.68,113.05Z"/><path class="cls-27" d="M242.63,46.6l-1.72-6.83a.05.05,0,0,0,0,0,.26.26,0,0,0-.21,0,.05.05,0,0,0,0,0l-2.7,6.54Z"/><path class="cls-28" d="M240.88,39.73l-.06,0-.52,6.74,2.33.15-1.72-6.83A.05.05,0,0,0,240.88,39.73Z"/><path class="cls-27" d="M242.82,46.92h0a1.26,1.26,0,0,0-.67-1.15,4,4,0,0,0-3.62-.26,1.23,1.23,0,0,0-.81,1h0l-5,69.14,5,.62Z"/><path class="cls-28" d="M235.27,116l2.53.32,5-69.35h0a1.26,1.26,0,0,0-.67-1.15,3.78,3.78,0,0,0-1.77-.56Z"/><path class="cls-29" d="M237.13,115.15a1.1,1.1,0,0,1-.14,2.08,4,4,0,0,1-3.6-.26,1.1,1.1,0,0,1,.14-2.08A4,4,0,0,1,237.13,115.15Z"/><path class="cls-30" d="M249.07,46.86l-1.82-6.8s0,0,0-.05a.26.26,0,0,0-.21,0s0,0,0,0l-2.61,6.58Z"/><path class="cls-31" d="M247.22,40h-.06l-.43,6.74,2.34.12-1.82-6.8S247.23,40,247.22,40Z"/><path class="cls-30" d="M249.26,47.17h0a1.24,1.24,0,0,0-.69-1.13,4,4,0,0,0-3.61-.22,1.28,1.28,0,0,0-.81,1h0l-4,69.2,5.05.55Z"/><path class="cls-31" d="M242.7,116.31l2.54.28,4-69.42h0a1.24,1.24,0,0,0-.69-1.13,3.65,3.65,0,0,0-1.77-.54Z"/><path class="cls-32" d="M244.55,115.48c1,.64.91,1.57-.11,2.08a4,4,0,0,1-3.61-.21,1.1,1.1,0,0,1,.11-2.08A4,4,0,0,1,244.55,115.48Z"/></g></g></g></g></svg>