<svg xmlns="http://www.w3.org/2000/svg" xmlns:xlink="http://www.w3.org/1999/xlink" viewBox="0 0 600 400"><defs><style>.cls-1{fill:none;}.cls-2{isolation:isolate;}.cls-3{fill:#1b1c63;opacity:0.3;}.cls-4{fill:#dce7f5;}.cls-5{fill:#fff;}.cls-6,.cls-9{fill:#cdd5ea;}.cls-6{opacity:0.4;mix-blend-mode:multiply;}.cls-7{fill:#9fadd3;}.cls-8{fill:#361a53;}.cls-10{clip-path:url(#clip-path);}.cls-11{opacity:0.6;}.cls-12{clip-path:url(#clip-path-2);}.cls-13{clip-path:url(#clip-path-3);}.cls-14,.cls-17,.cls-18,.cls-20,.cls-22,.cls-23{fill:#fc6591;}.cls-15{fill:#5b3a89;}.cls-16{clip-path:url(#clip-path-4);}.cls-17{opacity:0.7;}.cls-18{opacity:0.91;}.cls-19{clip-path:url(#clip-path-5);}.cls-20{opacity:0.8;}.cls-21{clip-path:url(#clip-path-6);}.cls-22{opacity:0.6;}.cls-23{opacity:0.84;}.cls-24{clip-path:url(#clip-path-7);}.cls-25{fill:#262768;}.cls-26{clip-path:url(#clip-path-8);}.cls-27{clip-path:url(#clip-path-9);}</style><clipPath id="clip-path"><polygon class="cls-1" points="288.92 150.35 297 145.65 327.38 163.19 319.29 167.89 288.92 150.35"/></clipPath><clipPath id="clip-path-2"><polygon class="cls-1" points="275.63 154.73 279.57 152.44 322.75 177.36 318.8 179.66 275.63 154.73"/></clipPath><clipPath id="clip-path-3"><polygon class="cls-1" points="452.81 151.96 460.17 147.69 467.51 151.93 460.16 156.2 452.81 151.96"/></clipPath><clipPath id="clip-path-4"><polygon class="cls-1" points="195.17 260.17 258.71 223.24 322.68 260.18 259.13 297.11 195.17 260.17"/></clipPath><clipPath id="clip-path-5"><polygon class="cls-1" points="343.57 175.04 407.13 138.11 471.1 175.04 407.54 211.97 343.57 175.04"/></clipPath><clipPath id="clip-path-6"><polygon class="cls-1" points="268.57 216.85 332.12 179.91 396.09 216.84 332.54 253.78 268.57 216.85"/></clipPath><clipPath id="clip-path-7"><polygon class="cls-1" points="313.45 212.05 326.13 204.68 352.88 220.13 340.2 227.5 313.45 212.05"/></clipPath><clipPath id="clip-path-8"><polygon class="cls-1" points="240.4 256.92 253.08 249.55 279.92 265.04 267.24 272.41 240.4 256.92"/></clipPath><clipPath id="clip-path-9"><polygon class="cls-1" points="389.46 170.46 402.08 163.12 428.96 178.63 416.33 185.97 389.46 170.46"/></clipPath></defs><title>Asset 2seo3</title><g class="cls-2"><g id="Layer_2" data-name="Layer 2"><g id="OBJECTS"><rect class="cls-1" width="600" height="400"/><path class="cls-3" d="M548.1,151.51a23,23,0,0,0-.67-3.32,21.64,21.64,0,0,0-1.26-3.44,22.77,22.77,0,0,0-1.51-2.71,19.44,19.44,0,0,0-1.63-2.19,35.09,35.09,0,0,0-2.49-2.54,41.13,41.13,0,0,0-3.3-2.53c-.53-.39-1.31-.82-1.87-1.16a1,1,0,0,0-1,0c13.78,7.95,13.86,20.86.16,28.82L234.8,336.62c-13.68,8-36,8-49.74,0h0L68.11,269.1c-13.78-8-13.86-20.86-.17-28.82a1,1,0,0,0-1,0c-1.06.65-2.45,1.57-3.46,2.3a19.2,19.2,0,0,0-1.57,1.29c-.68.64-1.59,1.5-2.2,2.21A23,23,0,0,0,57.51,249a22,22,0,0,0-2.57,5.88,24,24,0,0,0-.64,3.29,26,26,0,0,0-.19,3v1.62A13.31,13.31,0,0,0,54.5,266a13.31,13.31,0,0,1-.39-3.25,24.28,24.28,0,0,0,.91,6.7A22.06,22.06,0,0,0,57.54,275a21.09,21.09,0,0,0,1.75,2.4A34.14,34.14,0,0,0,62,280.15a35.59,35.59,0,0,0,3.24,2.48c.53.38,1.29.8,1.84,1.14h0l117,67.52a38.3,38.3,0,0,0,4.74,2.33c1.46.56,3.42,1.24,4.91,1.71.78.25,1.84.49,2.63.69a61.48,61.48,0,0,0,13.67,1.53A60.49,60.49,0,0,0,223.62,356c.81-.2,1.89-.46,2.69-.71,1.48-.48,3.43-1.16,4.88-1.72.76-.3,1.75-.77,2.48-1.14s1.5-.81,2.15-1.15a2.54,2.54,0,0,0,.93-1.29,2.54,2.54,0,0,1-.93,1.29l119.87-69.66L535.5,177.13c1-.63,2.37-1.48,3.32-2.2s2.11-1.78,3-2.59a20.3,20.3,0,0,0,1.79-2,28.64,28.64,0,0,0,1.65-2.42,21.69,21.69,0,0,0,2.15-5,24.72,24.72,0,0,0,.69-3.26,24.39,24.39,0,0,0,.22-3.28h0v-1.63A26.58,26.58,0,0,0,548.1,151.51Z"/><path class="cls-4" d="M364.14,64.92a1,1,0,0,1,1.05,0c13.7-8,36-8,49.76,0a1,1,0,0,1,1,0,39.11,39.11,0,0,0-4.74-2.33c-1.46-.56-3.43-1.23-4.91-1.71-.78-.24-1.84-.49-2.63-.68a61.57,61.57,0,0,0-27.37,0c-.81.2-1.89.46-2.69.71-1.47.48-3.43,1.16-4.88,1.72-.76.3-1.75.77-2.48,1.14S364.79,64.58,364.14,64.92Z"/><path class="cls-4" d="M416,64.92l11.69,6.75,11.7,6.75,11.69,6.75,11.7,6.76,11.69,6.75,11.7,6.75,11.69,6.75,11.7,6.75,11.69,6.76,11.7,6.75a1,1,0,0,0-1,0L415,65A1,1,0,0,1,416,64.92Z"/><path class="cls-4" d="M64.46,239.08l30-17.42,30-17.41,30-17.42,30-17.41,30-17.42,30-17.41,30-17.42,30-17.42,30-17.41,30-17.42a1,1,0,0,1,1.05,0L65.51,239.11A1,1,0,0,0,64.46,239.08Z"/><path class="cls-4" d="M531.9,132.47c13.78,8,13.86,20.86.16,28.82L232.37,335.45c-13.68,7.95-36,7.95-49.74,0L65.68,267.93c-13.78-8-13.86-20.87-.17-28.82L365.19,65c13.7-8,36-8,49.76,0Z"/><path class="cls-5" d="M499,164.65c2.15,1.24,2.16,3.26,0,4.5L241.76,318.68a8.54,8.54,0,0,1-7.78,0L89.65,235.35c-2.16-1.25-2.17-3.27,0-4.51L346.92,81.31a8.6,8.6,0,0,1,7.78,0Z"/><path class="cls-5" d="M499.74,164.24c2.54,1.47,2.55,3.86,0,5.32L242.47,319.09a10.13,10.13,0,0,1-9.19,0L88.94,235.76c-2.54-1.47-2.55-3.86,0-5.33L346.21,80.9a10.13,10.13,0,0,1,9.19,0Zm-258,154.45,257.3-149.54c2.13-1.24,2.12-3.26,0-4.5L354.7,81.31a8.6,8.6,0,0,0-7.78,0L89.62,230.84c-2.14,1.24-2.13,3.26,0,4.51L234,318.69a8.6,8.6,0,0,0,7.78,0"/><path class="cls-6" d="M147.13,277.1c7,4.06,7.07,10.64.08,14.7s-18.36,4.06-25.39,0-7.07-10.64-.08-14.7S140.09,273,147.13,277.1Z"/><path class="cls-7" d="M123.52,278.89c7-4.06,18.36-4.06,25.39,0a14.73,14.73,0,0,1,1.9,1.31,12.6,12.6,0,0,0-3.69-3.1c-7-4.06-18.4-4.07-25.39,0-6.29,3.65-6.87,9.34-1.81,13.4C116.94,286.67,118.12,282,123.52,278.89Z"/><path class="cls-8" d="M461.27,114.93c1.41.82,1.42,2.13,0,2.95a5.61,5.61,0,0,1-5.08,0l-25.47-14.71c-1.42-.82-1.42-2.13,0-2.94a5.57,5.57,0,0,1,5.09,0Z"/><path class="cls-8" d="M421.08,91.73c1.4.81,1.41,2.13,0,2.94a5.59,5.59,0,0,1-5.07,0c-1.41-.81-1.42-2.13,0-2.94A5.57,5.57,0,0,1,421.08,91.73Z"/><path class="cls-9" d="M545.7,150.31A22.91,22.91,0,0,0,545,147a22.29,22.29,0,0,0-1.27-3.44,21.9,21.9,0,0,0-1.5-2.72,18.27,18.27,0,0,0-1.64-2.18,31.31,31.31,0,0,0-2.48-2.54,39,39,0,0,0-3.3-2.54c-.54-.38-1.31-.81-1.88-1.16a1,1,0,0,0-1,0c13.78,8,13.85,20.86.15,28.82L232.41,335.43c-13.69,7.95-36,7.95-49.75,0h0L65.71,267.91c-13.78-8-13.86-20.87-.16-28.82a1,1,0,0,0-1.06,0c-1.06.66-2.44,1.58-3.45,2.3a19.57,19.57,0,0,0-1.57,1.29,30.58,30.58,0,0,0-2.2,2.21,23,23,0,0,0-2.16,2.89,21.79,21.79,0,0,0-2.56,5.89,23.47,23.47,0,0,0-.65,3.28,24.05,24.05,0,0,0-.18,3v1.62a13.33,13.33,0,0,0,.4,3.25,13.33,13.33,0,0,1-.4-3.25,23.77,23.77,0,0,0,.92,6.7,22,22,0,0,0,2.51,5.62,23,23,0,0,0,1.75,2.41c.75.86,1.82,1.94,2.66,2.72a35.73,35.73,0,0,0,3.25,2.48c.53.37,1.29.79,1.84,1.14h0l117,67.52a39,39,0,0,0,4.74,2.32c1.45.56,3.42,1.24,4.91,1.71.77.25,1.83.5,2.63.69a60.79,60.79,0,0,0,13.66,1.54,60,60,0,0,0,13.7-1.55c.81-.2,1.89-.45,2.68-.71,1.48-.47,3.44-1.16,4.88-1.72.77-.3,1.75-.77,2.48-1.13s1.51-.81,2.15-1.16a2.48,2.48,0,0,0,.93-1.29,2.48,2.48,0,0,1-.93,1.29L353.3,280.43l179.81-104.5c1-.62,2.37-1.47,3.32-2.2a38.09,38.09,0,0,0,3-2.59,19.25,19.25,0,0,0,1.79-2c.53-.69,1.18-1.67,1.64-2.41a22.23,22.23,0,0,0,2.16-5.06,24.72,24.72,0,0,0,.68-3.25,26.55,26.55,0,0,0,.23-3.29h0v-1.63A24.73,24.73,0,0,0,545.7,150.31Z"/><g class="cls-2"><g class="cls-10"><path class="cls-5" d="M299.46,147.18a6.34,6.34,0,0,0-3.3-.72l-.08.06,0,.07.11,0a5.88,5.88,0,0,1,3,.66c1.2.69,1.23,1.59.21,2.18a3.92,3.92,0,0,1-3.59,0l-1.56-.89h-.15l-.05,0v.09l1.55.89c1.22.71,1.13,1.7.22,2.23a4.62,4.62,0,0,1-4.44-.21c-1.32-.77-1.23-1.52-1.22-1.82l-.09-.07h-.1l-.11.06c0,.32-.1,1.12,1.32,2a5.08,5.08,0,0,0,4.84.21,1.21,1.21,0,0,0,.32-2,4.4,4.4,0,0,0,3.27-.28c1.14-.66,1.08-1.65-.23-2.41"/><polyline class="cls-5" points="310.35 153.36 305.35 150.47 305.19 150.47 305.14 150.5 305.14 150.59 307.53 151.97 299.84 156.44 299.84 156.53 299.89 156.56 300.04 156.56 307.73 152.09 310.14 153.48 310.3 153.48 310.35 153.45 310.35 153.36"/><path class="cls-5" d="M303.63,158.61c-.78-.45-.9-1.08-.05-1.57a3.33,3.33,0,0,1,3.17.26,4.26,4.26,0,0,1,1.09.93l-1.64,1a5.3,5.3,0,0,1-2.57-.58m5.09-2.37a5.51,5.51,0,0,0-1.89-.65l-.12,0,0,.05.08.07a5.21,5.21,0,0,1,1.74.61c1,.57.85,1-.05,1.51l-.41.24a4.19,4.19,0,0,0-1.1-.93,3.8,3.8,0,0,0-3.58-.26c-.95.55-.84,1.3.06,1.81a5.88,5.88,0,0,0,2.48.62l-.51.3v.09l.05,0h.15l3.07-1.78c1-.61,1.17-1.1.05-1.75"/><path class="cls-5" d="M313.22,158.85a2.9,2.9,0,0,0-2.72-.21c-.63.36-.45.83.29,1.58s1.07,1.17.41,1.55a2.75,2.75,0,0,1-2.49-.22,1.65,1.65,0,0,1-.92-1.08l-.1-.06-.14,0,0,.06a1.76,1.76,0,0,0,1,1.18,3.3,3.3,0,0,0,2.92.24c.84-.49.24-1.09-.4-1.77s-.84-1.07-.31-1.38a2.46,2.46,0,0,1,2.3.2,1.93,1.93,0,0,1,.86.88l.13,0h.08l.08-.07a2,2,0,0,0-.95-1"/><polyline class="cls-5" points="319.81 158.82 319.76 158.79 319.6 158.79 311.79 163.34 311.79 163.43 311.84 163.45 311.99 163.45 314.35 162.08 315.04 165.35 315.12 165.39 315.25 165.39 315.33 165.32 314.66 162.15 319.45 162.72 319.56 162.68 319.6 162.61 319.52 162.55 314.55 161.97 319.8 158.91 319.81 158.82"/><path class="cls-5" d="M322.33,164.1a3,3,0,0,0-2.73-.21c-.63.37-.45.83.29,1.59s1.07,1.17.42,1.55a2.77,2.77,0,0,1-2.5-.23,1.58,1.58,0,0,1-.91-1.07l-.11-.06h-.14l0,.07a1.76,1.76,0,0,0,1,1.17,3.26,3.26,0,0,0,2.93.24c.83-.48.24-1.08-.41-1.77s-.84-1.07-.31-1.38a2.49,2.49,0,0,1,2.3.21,1.93,1.93,0,0,1,.86.88l.13.05.09,0,.07-.07a2.1,2.1,0,0,0-.94-1"/></g></g><g class="cls-11"><g class="cls-2"><g class="cls-12"><path class="cls-5" d="M281,153.33l-.3-.17h-.16l-2.09,1.21a1,1,0,0,1-1,.07.31.31,0,0,1-.17-.32l-.14-.09h-.33l-.12.06c0,.1,0,.35.36.58a1.94,1.94,0,0,0,1.88,0l2.09-1.21v-.1"/><path class="cls-5" d="M280.75,155.54l1.76-.4,0,0-.66,1-1.12-.64m2.67-.88,0,0h-.13l-4.34.94c-.08,0-.1.07,0,.11l.28.16.17,0,.88-.19,1.46.84-.34.51,0,.1.28.16a.18.18,0,0,0,.19,0l1.62-2.52,0-.07"/><polyline class="cls-5" points="285.94 156.11 285.83 156.05 285.66 156.05 282.69 157.78 282.69 157.87 282.97 158.03 283.14 158.03 285.29 156.78 285.3 156.78 284.94 159.22 285.06 159.29 285.23 159.29 288.2 157.57 288.2 157.47 287.92 157.31 287.75 157.31 285.66 158.52 285.65 158.52 285.94 156.11"/><path class="cls-5" d="M291.89,159.6l-.3-.18h-.17l-1.84,1.07a1.55,1.55,0,0,1-1.52,0c-.45-.26-.4-.62.05-.88l1.83-1.06v-.1l-.3-.17h-.17l-1.86,1.08c-.67.39-.69,1,0,1.39a2.57,2.57,0,0,0,2.41,0l1.86-1.08v-.09"/><path class="cls-5" d="M291.64,161.82l1.75-.39h0l-.67,1-1.11-.64m2.67-.87,0,0h-.13l-4.34.94c-.08,0-.11.07,0,.11l.28.16.17,0,.88-.2,1.45.84-.33.51,0,.1.28.16a.15.15,0,0,0,.19,0l1.61-2.51,0-.07"/><path class="cls-5" d="M295.55,163.45l1.07-.62.79.46c.3.17.31.45,0,.62a1.23,1.23,0,0,1-1.09,0l-.79-.46m2.33-.39-1.21-.7h-.16l-2.94,1.7v.1l.29.17H294l1.13-.66.67.39-.58,1,0,.07.34.19c.08,0,.18,0,.2,0l.52-1a2.22,2.22,0,0,0,1.56-.14c.53-.31.5-.81,0-1.11"/><path class="cls-5" d="M302.05,165.46l-.34-.19-.12,0-1.92.19.31-1.12,0-.06-.33-.19a.15.15,0,0,0-.2,0l-.43,1.46-1.41.82v.1l.29.17h.17l1.41-.82,2.53-.25c.1,0,.13-.08.06-.12"/><path class="cls-5" d="M305,167.24a2.6,2.6,0,0,0-1.3-.25l-.11.07v.18l.11.06a1.88,1.88,0,0,1,.86.16c.39.23.3.47.07.6a2.28,2.28,0,0,1-1,.17l-2.45.13-.11.06v.1l1.72,1H303l.21-.12v-.1l-1.13-.65,1.75-.08a2.84,2.84,0,0,0,1.29-.26c.46-.26.53-.7-.11-1.06"/><path class="cls-5" d="M307.78,168.82a2.66,2.66,0,0,0-1.3-.24l-.11.07v.17l.13.07a1.84,1.84,0,0,1,.85.16c.39.22.29.46.07.59a2.28,2.28,0,0,1-1,.18c-.73,0-1.75.1-2.45.12l-.12.07v.1l1.72,1h.17L306,171v-.1l-1.13-.65,1.75-.08a2.9,2.9,0,0,0,1.28-.26c.46-.27.53-.7-.1-1.07"/><path class="cls-5" d="M307.48,171.52a.72.72,0,0,0-.64,0,.19.19,0,0,0,0,.35l.14,0a1.76,1.76,0,0,1-.92.17l-.13,0v.08l.11.06a2.42,2.42,0,0,0,1.32-.26c.38-.22.29-.4.13-.5"/><path class="cls-5" d="M313.48,172.12a2.6,2.6,0,0,0-1.3-.25l-.11.07v.17l.12.07a1.84,1.84,0,0,1,.85.16c.4.23.3.46.07.59a2.25,2.25,0,0,1-1,.18l-2.44.13-.12.06v.1l1.72,1h.17l.22-.12v-.1l-1.13-.65,1.75-.08a2.77,2.77,0,0,0,1.28-.26c.47-.27.54-.69-.1-1.06"/><path class="cls-5" d="M313.84,175.45c-.41-.24-.23-.62.5-1a1.89,1.89,0,0,1,1.79-.29c.42.24.24.62-.49,1a1.88,1.88,0,0,1-1.8.29m2.7-1.57a2.69,2.69,0,0,0-2.65.26c-1,.57-1.15,1.14-.45,1.54a2.67,2.67,0,0,0,2.65-.26c1-.57,1.15-1.13.45-1.54"/><polyline class="cls-5" points="319.35 175.56 319.13 175.43 317.93 175.4 317.83 175.44 317.73 175.56 317.79 175.63 318.31 175.74 316.07 177.05 316.07 177.15 316.34 177.3 316.5 177.3 319.34 175.65 319.35 175.56"/><path class="cls-5" d="M318.88,178.41c-.29-.17-.36-.43-.07-.6a1.32,1.32,0,0,1,1.09,0c.32.24.27.5,0,.64a1.14,1.14,0,0,1-1.06-.05m1.45-.83c-.3-.23-.27-.43,0-.56a1,1,0,0,1,.95,0c.3.17.32.41.05.57a1.09,1.09,0,0,1-1,0m1.29-.76a1.82,1.82,0,0,0-1.75-.07.48.48,0,0,0-.23.66h0a2.23,2.23,0,0,0-1.27.12c-.49.28-.46.72.17,1.09a2,2,0,0,0,1.88.1.5.5,0,0,0,.2-.74h0a1.78,1.78,0,0,0,1.14-.13c.49-.28.4-.71-.15-1"/></g></g></g><g class="cls-2"><g class="cls-13"><path class="cls-5" d="M457.49,152.9c-1.49-.86-1.51-2.27,0-3.13a5.93,5.93,0,0,1,5.41,0c1.5.86,1.5,2.27,0,3.13a6,6,0,0,1-5.41,0m5.84-3.38a7,7,0,0,0-6.3,0c-1.73,1-1.72,2.64,0,3.65a6.36,6.36,0,0,0,2.84.75l0,2.07.09.13.22.06c.16,0,.3-.09.31-.18v-2.08a6.45,6.45,0,0,0,2.83-.75c1.73-1,1.71-2.64,0-3.64"/></g></g><path class="cls-14" d="M347.1,83.05c-6.69-2.76-17.37,3.61-23.74,14.14l-.53.88c-6.38,10.53-14.95,14.3-19.07,8.37L287.49,83c-4.11-5.93-11.5-2-16.43,8.69l-5.29,11.52c-4.92,10.72-11.94,14.25-15.6,7.87L230.75,77.16c-3.66-6.39-11.09-2.87-16.52,7.83l-35.84,70.62C173,166.31,165,171.86,160.72,168s-11.05,1.61-15,12.25l-21.23,56.89L372.9,93.68,347.1,83.05"/><path class="cls-15" d="M376.24,107.37c-6.69-2.76-17.36,3.61-23.74,14.14l-.53.88c-6.38,10.53-15,14.3-19.07,8.37l-16.27-23.45c-4.11-5.93-11.51-2-16.43,8.69l-5.29,11.52c-4.92,10.71-11.94,14.25-15.6,7.87l-19.42-33.91c-3.66-6.39-11.09-2.87-16.52,7.83l-35.84,70.62c-5.43,10.7-13.38,16.25-17.67,12.36s-11.05,1.61-15,12.25l-21.23,56.89L402,118l-25.8-10.63"/><g class="cls-2"><g class="cls-16"><path class="cls-17" d="M290.7,241.71c-17.67-10.2-46.21-10.2-63.76,0l8.37,4.83c12.95-7.53,34-7.53,47.09,0s13.1,19.74.14,27.27l8.37,4.83-8.37-4.83c13-7.53,12.9-19.74-.14-27.27l8.3-4.83"/><path class="cls-15" d="M290.91,278.64l-8.37-4.83c-13,7.54-34,7.54-47.08,0l-8.31,4.82c17.67,10.2,46.21,10.2,63.76,0"/><path class="cls-15" d="M290.7,241.71l-8.3,4.83c13,7.53,13.1,19.74.14,27.27l8.37,4.83c17.55-10.2,17.46-26.73-.21-36.93"/><path class="cls-18" d="M235.31,246.54l-8.37-4.83c-17.55,10.2-17.45,26.73.21,36.93l8.31-4.82c-13.05-7.53-13.11-19.75-.15-27.28"/></g></g><g class="cls-2"><g class="cls-19"><path class="cls-20" d="M439.11,156.58c-17.66-10.2-46.2-10.21-63.76,0l8.37,4.83c12.95-7.53,34-7.53,47.08,0s13.11,19.75.16,27.28l8.36,4.83L431,188.68c13-7.53,12.89-19.74-.16-27.28l8.31-4.82"/><path class="cls-15" d="M439.32,193.51,431,188.68c-13,7.53-34,7.53-47.09,0l-8.31,4.83c17.67,10.2,46.21,10.2,63.76,0"/><path class="cls-15" d="M439.11,156.58l-8.31,4.82c13.05,7.54,13.11,19.75.16,27.28l8.36,4.83c17.55-10.2,17.46-26.73-.21-36.93"/><path class="cls-15" d="M383.72,161.4l-8.37-4.83c-17.55,10.2-17.45,26.74.21,36.94l8.31-4.83c-13-7.53-13.11-19.75-.15-27.28"/></g></g><g class="cls-2"><g class="cls-21"><path class="cls-22" d="M364.11,198.38c-17.67-10.2-46.21-10.2-63.76,0l8.36,4.83c13-7.53,34-7.53,47.09,0s13.1,19.74.15,27.27l8.37,4.83L356,230.48c12.95-7.53,12.89-19.74-.15-27.27l8.31-4.83"/><path class="cls-23" d="M364.32,235.31,356,230.48c-13,7.53-34,7.54-47.08,0l-8.31,4.82c17.66,10.2,46.2,10.2,63.76,0"/><path class="cls-15" d="M364.11,198.38l-8.31,4.83c13,7.53,13.1,19.74.15,27.27l8.37,4.83c17.55-10.2,17.45-26.73-.21-36.93"/><path class="cls-23" d="M308.71,203.21l-8.36-4.83c-17.55,10.2-17.46,26.73.21,36.93l8.31-4.82c-13.05-7.54-13.12-19.75-.16-27.28"/></g></g><g class="cls-2"><g class="cls-24"><path class="cls-25" d="M329.06,206.37a5.81,5.81,0,0,0-6,.12l-1.21.7,1.86,1.07,1.32-.77a2.12,2.12,0,0,1,2.25-.12c.62.36.71.76-.41,1.41-3.58,2.08-8.06.18-11.71,2.31l-1.53.88,5.67,3.28,1.77-1-3.71-2.14a1.1,1.1,0,0,1,.25-.17c2-1.18,7.4.23,11.3-2,2-1.15,2.12-2.38.19-3.5"/><path class="cls-25" d="M338.49,212l-5.17-3-7.55,4,1.86,1.07.37-.21a2.09,2.09,0,0,1,2.24-.13c.62.36.68.79-.2,1.3l-2.73,1.58a2.05,2.05,0,0,1-2.22.12c-.63-.36-.7-.77.19-1.29l1.15-.67-1.86-1.07-1,.6c-2,1.15-2.12,2.38-.19,3.5a5.81,5.81,0,0,0,6-.12l2.76-1.61c1.82-1.06,2.1-2.07.66-2.91a4,4,0,0,0-2.62-.46l3.13-1.63,3.4,2,1.77-1"/><path class="cls-25" d="M339.48,225.73c-.41-.24-.41-.51.14-.83l4.25-2.47a1.32,1.32,0,0,1,1.42-.08c.39.23.41.5-.14.82l-4.25,2.47a1.34,1.34,0,0,1-1.42.09m6.92-4a3.72,3.72,0,0,0-3.87.06l-4.08,2.37c-1.27.74-1.32,1.54-.09,2.24a3.7,3.7,0,0,0,3.87-.06l4.08-2.36c1.27-.75,1.32-1.54.09-2.25m4.34-2.65-1.16-.66-17.32,4.36,1.16.67,17.32-4.37m-12.92.47c-.4-.24-.41-.5.15-.82l4.25-2.47a1.32,1.32,0,0,1,1.41-.09c.4.23.42.51-.13.83l-4.25,2.47a1.36,1.36,0,0,1-1.43.08m6.93-4a3.7,3.7,0,0,0-3.87.07l-4.08,2.36c-1.27.74-1.32,1.54-.09,2.25a3.72,3.72,0,0,0,3.87-.07l4.08-2.36c1.27-.74,1.32-1.54.09-2.25"/></g></g><g class="cls-2"><g class="cls-26"><path class="cls-25" d="M258.47,252.82l-5.17-3-7.55,4,1.85,1.07.37-.22a2.08,2.08,0,0,1,2.24-.11c.62.35.68.78-.2,1.29l-2.73,1.59a2.07,2.07,0,0,1-2.22.11c-.62-.36-.7-.78.18-1.29l1.15-.67-1.85-1.07-1,.6c-2,1.15-2.11,2.38-.19,3.5a5.81,5.81,0,0,0,6-.12l2.77-1.61c1.82-1.06,2.09-2.07.65-2.9a4,4,0,0,0-2.61-.47l3.11-1.62,3.41,2,1.78-1"/><path class="cls-25" d="M252.14,261.65c-.62-.36-.68-.79.2-1.3l6.7-3.89a2.11,2.11,0,0,1,2.24-.13c.62.36.68.78-.21,1.3l-6.7,3.89a2.07,2.07,0,0,1-2.23.13m10.91-6.35a5.92,5.92,0,0,0-6.1.1l-6.44,3.75c-2,1.15-2.06,2.41-.14,3.52a5.87,5.87,0,0,0,6.09-.08l6.45-3.75c2-1.15,2.07-2.42.14-3.54"/><path class="cls-25" d="M266.51,270.64c-.41-.23-.41-.5.14-.82l4.25-2.47a1.32,1.32,0,0,1,1.42-.08c.4.23.41.51-.13.82l-4.25,2.47a1.36,1.36,0,0,1-1.43.08m6.93-4a3.73,3.73,0,0,0-3.88.06l-4.07,2.37c-1.27.74-1.33,1.53-.09,2.24a3.72,3.72,0,0,0,3.87-.06l4.07-2.37c1.28-.74,1.33-1.53.1-2.24m4.34-2.65-1.16-.67-17.32,4.37,1.16.67L277.78,264m-12.92.47c-.41-.24-.41-.51.14-.83l4.25-2.47a1.34,1.34,0,0,1,1.42-.08c.4.23.41.51-.13.82l-4.25,2.47a1.36,1.36,0,0,1-1.43.09m6.92-4a3.74,3.74,0,0,0-3.87.06l-4.07,2.37c-1.28.74-1.32,1.54-.1,2.24a3.69,3.69,0,0,0,3.88-.06l4.07-2.36c1.28-.75,1.32-1.53.09-2.25"/></g></g><g class="cls-2"><g class="cls-27"><polyline class="cls-25" points="407.88 166.57 402 163.17 400.23 164.2 404.13 166.45 390.64 170.97 392.6 172.1 406.18 167.56 407.88 166.57"/><path class="cls-25" d="M414.62,170.46l-5.17-3-7.55,4,1.85,1.07.38-.22a2.08,2.08,0,0,1,2.24-.12c.62.36.68.78-.2,1.3l-2.73,1.58a2.07,2.07,0,0,1-2.22.12c-.63-.37-.71-.78.18-1.29l1.16-.68-1.86-1.06-1,.59c-2,1.16-2.13,2.39-.2,3.51a5.83,5.83,0,0,0,6-.13l2.76-1.6c1.83-1.07,2.1-2.08.66-2.91a4,4,0,0,0-2.61-.46l3.12-1.63,3.41,2,1.76-1"/><path class="cls-25" d="M415.61,184.2c-.41-.23-.41-.5.14-.82l4.25-2.47a1.32,1.32,0,0,1,1.42-.08c.39.23.41.5-.14.82L417,184.12a1.34,1.34,0,0,1-1.42.08m6.92-4a3.72,3.72,0,0,0-3.87.06l-4.08,2.37c-1.27.74-1.32,1.53-.08,2.24a3.7,3.7,0,0,0,3.86-.06l4.08-2.37c1.28-.74,1.32-1.53.09-2.24m4.34-2.65-1.16-.67-17.31,4.37,1.16.67,17.31-4.37M414,178c-.4-.24-.4-.51.15-.83l4.25-2.47a1.3,1.3,0,0,1,1.41-.08c.4.23.42.5-.13.83l-4.25,2.46A1.38,1.38,0,0,1,414,178m6.93-4A3.72,3.72,0,0,0,417,174l-4.08,2.37c-1.27.74-1.32,1.53-.09,2.24a3.7,3.7,0,0,0,3.87-.06l4.08-2.36c1.27-.75,1.32-1.54.09-2.25"/></g></g></g></g></g></svg>