<svg xmlns="http://www.w3.org/2000/svg" xmlns:xlink="http://www.w3.org/1999/xlink" viewBox="0 0 600 400"><defs><style>.cls-1{fill:#6b78bd;}.cls-2,.cls-3{fill:none;}.cls-3{stroke:#231f20;stroke-width:0.3px;}.cls-4{isolation:isolate;}.cls-10,.cls-5{fill:#1b1c63;}.cls-5{opacity:0.3;}.cls-10,.cls-15,.cls-18,.cls-19,.cls-20,.cls-5{mix-blend-mode:multiply;}.cls-6{fill:#c29cb7;}.cls-7{fill:#eacedf;}.cls-8{mix-blend-mode:overlay;fill:url(#Unnamed_Pattern_3);}.cls-9{fill:#fff;}.cls-19,.cls-9{opacity:0.6;}.cls-10,.cls-15{opacity:0.4;}.cls-11{fill:#dce7f5;}.cls-12{fill:#cdd5ea;}.cls-13,.cls-15,.cls-18,.cls-19{fill:#a0afd5;}.cls-14{fill:#2c2d6f;}.cls-16{clip-path:url(#clip-path);}.cls-17{opacity:0.1;}.cls-18{opacity:0.5;}.cls-20{fill:#e4e0dd;}.cls-21{fill:#c45a8d;}.cls-22{fill:#fc6591;}.cls-23{fill:#361a53;}.cls-24{clip-path:url(#clip-path-2);}.cls-25{fill:#484f96;}.cls-26{fill:#a76460;}.cls-27{fill:#6496bf;}.cls-28{fill:#85c8ff;}.cls-29{fill:#645443;}.cls-30{fill:#5b3a89;}.cls-31{fill:#6f559b;}.cls-32{fill:#e4aa63;}.cls-33{fill:#6e89c4;}.cls-34{fill:#ffc543;}.cls-35{fill:#ddd;}.cls-36{fill:#a29fb0;}.cls-37{fill:#ea5444;}</style><pattern id="Unnamed_Pattern_3" data-name="Unnamed Pattern 3" width="72" height="72" patternTransform="translate(-1.69 -21.66)" patternUnits="userSpaceOnUse" viewBox="0 0 72 72"><rect class="cls-2" width="72" height="72"/><polyline class="cls-3" points="48.71 27.84 42.04 25 44.02 32.16"/><polyline class="cls-3" points="32.88 18.57 39.92 14.97 33.27 12.97"/><polyline class="cls-3" points="50.11 26.23 56.39 22.65 50.01 18.86"/><polyline class="cls-3" points="29.99 28.48 29.73 20.77 24.48 25.27"/><polyline class="cls-3" points="60.25 44.29 66.75 47.5 65.18 40.25"/><polyline class="cls-3" points="58.26 59.77 58.2 52.52 52.43 57.19"/><polyline class="cls-3" points="52.99 44.72 52.85 51.97 58.75 47.46"/><polyline class="cls-3" points="46.51 37.69 53.75 37.25 48.79 31.73"/><polyline class="cls-3" points="43.45 43.65 49.25 48 49.04 40.58"/><polyline class="cls-3" points="32.27 51.9 28.84 47.32 26.73 52.56"/><polyline class="cls-3" points="33.38 41.24 40.06 44.09 37.27 37.28"/><polyline class="cls-3" points="16.3 53.58 13.75 46.38 9.48 52.45"/><polyline class="cls-3" points="34.56 27.65 34.05 33.9 40.37 30.28"/><polyline class="cls-3" points="8.42 19.47 14.75 23 13.55 15.68"/><polyline class="cls-3" points="26.44 40.53 20.8 35.98 20.75 43.4"/><polyline class="cls-3" points="24.5 20.75 18.7 14.61 18.08 22.85"/><polyline class="cls-3" points="25.23 55.29 27.64 61.94 32.35 54.13"/><polyline class="cls-3" points="42.96 14.07 43.25 22.25 48.33 16.84"/><polyline class="cls-3" points="18.08 37.68 11.59 36.26 14.5 43.09"/><polyline class="cls-3" points="63.25 49.61 61 56.5 67.96 53.91"/><polyline class="cls-3" points="58.27 36.64 54.89 42.85 61.55 42.11"/><polyline class="cls-3" points="53.61 8.93 60.86 9.1 56.38 3.18"/><polyline class="cls-3" points="64.82 4 64.81 11.25 70.63 6.64"/><polyline class="cls-3" points="26.66 37.19 30.61 31.11 23.23 31.82"/><polyline class="cls-3" points="40 20.5 32.75 20.35 37.25 26.25"/><polyline class="cls-3" points="30.76 69.42 33.83 61.64 26.26 64.89"/><polyline class="cls-3" points="66.47 15.02 60 11.75 61.51 19.02"/><polyline class="cls-3" points="35 50 41.46 52.66 38.75 45.75"/><polyline class="cls-3" points="42.76 50.35 49.75 52.28 43.75 56.65"/><polyline class="cls-3" points="21.61 23.15 18.08 29.48 25.15 29.28"/><polyline class="cls-3" points="58 62.38 51.59 65.75 58.38 68.74"/><polyline class="cls-3" points="48.08 56.87 47.38 64.08 53.61 60.05"/><polyline class="cls-3" points="42.13 4.83 40.3 12.53 47.1 9.11"/><polyline class="cls-3" points="60.24 61.82 66.9 64.68 64.95 57.52"/><polyline class="cls-3" points="11.75 25 4.98 22.24 8 29.25"/><polyline class="cls-3" points="21.25 61.75 21.97 52.61 15.47 57.18"/><polyline class="cls-3" points="12.78 56.84 6.35 53.49 7.76 60.77"/><polyline class="cls-3" points="23.73 3.12 22.02 9.34 29.14 7.23"/><polyline class="cls-3" points="6.01 10.29 5.89 17.54 11.78 13.03"/><polyline class="cls-3" points="11.64 59.59 14.5 66.25 18.02 59.72"/><polyline class="cls-3" points="17.98 43.25 18.82 50.45 24.75 45.5"/><polyline class="cls-3" points="39.06 66.18 45.5 69.5 44.25 61.25"/><polyline class="cls-3" points="67.77 33.28 61.38 29.63 62.04 36.55"/><polyline class="cls-3" points="59.34 21.52 63.54 27.43 65.6 20.3"/><polyline class="cls-3" points="52.5 28.77 55.25 33.75 58.37 27.02"/><polyline class="cls-3" points="7.63 1.72 1.65 5.83 8.75 8"/><polyline class="cls-3" points="48.66 12.22 52.4 6.02 47.05 5.97"/><polyline class="cls-3" points="6.94 63.13 3.89 69.71 11.1 67.96"/><polyline class="cls-3" points="25.77 69.66 19.58 65.89 20.5 73.25"/><polyline class="cls-3" points="40.67 56.27 34.75 57.25 39.96 62.6"/><polyline class="cls-3" points="46.95 35.21 39.72 34.76 43.97 40.84"/><polyline class="cls-3" points="43.89 73.78 38.17 69.33 38.25 76.75"/><polyline class="cls-3" points="55.25 10.81 51.26 16.86 58.65 16.2"/><polyline class="cls-3" points="12.01 6.12 15.62 12.41 18.36 5.52"/><polyline class="cls-3" points="5.6 49.17 11.55 45.03 4.44 42.89"/><polyline class="cls-3" points="14.51 35.36 16.14 26.84 8.87 32.33"/><polyline class="cls-3" points="7.35 35.53 2.25 39.68 9.62 40.49"/><polyline class="cls-3" points="57.62 70.85 63.29 75.36 63.79 66.44"/><polyline class="cls-3" points="27.75 69.66 31 76.14 34.12 69.4"/><polyline class="cls-3" points="53.41 76.54 52.46 69.36 47.31 74.69"/><polyline class="cls-3" points="15.75 75.75 15.17 68.52 9.75 73.59"/><polyline class="cls-3" points="38.44 9.21 33.94 3.52 32 10.75"/><polyline class="cls-3" points="72.93 33.69 71.65 40.82 66.75 35.25"/><polyline class="cls-3" points="67.25 24.75 73.59 21.24 66.73 18.39"/><polyline class="cls-3" points="74.75 25.25 69.79 30.54 77.19 31.14"/><polyline class="cls-3" points="74.5 73.5 69.42 68.33 68.51 75.69"/><polyline class="cls-3" points="72.05 17.72 75.36 11.27 68.08 12.73"/><polyline class="cls-3" points="72.54 65.15 76.75 59.25 69.34 59.63"/><polyline class="cls-3" points="75.85 50.65 70.25 55.25 77.5 56.81"/><polyline class="cls-3" points="72.34 50.34 69.81 43.55 76.86 45.85"/><polyline class="cls-3" points="30.83 16.57 27.41 10.17 24.47 16.98"/><polyline class="cls-3" points="30.5 38.56 27.01 43.86 32.15 44.45"/><polyline class="cls-3" points="0.93 33.69 -0.35 40.82 -5.25 35.25"/><polyline class="cls-3" points="-4.75 24.75 1.59 21.24 -5.27 18.39"/><polyline class="cls-3" points="2.75 25.25 -2.21 30.54 5.19 31.14"/><polyline class="cls-3" points="2.5 73.5 -2.58 68.33 -3.49 75.69"/><polyline class="cls-3" points="0.05 17.72 3.35 11.27 -3.92 12.73"/><polyline class="cls-3" points="0.54 65.15 4.75 59.25 -2.66 59.63"/><polyline class="cls-3" points="3.85 50.65 -1.75 55.25 5.5 56.81"/><polyline class="cls-3" points="0.34 50.34 -2.19 43.55 4.86 45.85"/><polyline class="cls-3" points="25.77 -2.34 19.58 -6.11 20.5 1.25"/><polyline class="cls-3" points="43.89 1.78 38.17 -2.67 38.25 4.75"/><polyline class="cls-3" points="57.62 -1.15 63.29 3.36 63.79 -5.56"/><polyline class="cls-3" points="27.75 -2.34 31 4.14 34.12 -2.6"/><polyline class="cls-3" points="53.41 4.54 52.46 -2.64 47.31 2.69"/><polyline class="cls-3" points="15.75 3.75 15.17 -3.48 9.75 1.59"/><polyline class="cls-3" points="74.5 1.5 69.42 -3.67 68.51 3.69"/><polyline class="cls-3" points="2.5 1.5 -2.58 -3.67 -3.49 3.69"/></pattern><clipPath id="clip-path"><polygon id="_Clipping_Path_" data-name="&lt;Clipping Path&gt;" class="cls-1" points="120.34 255.15 120.34 121.27 303.47 15.55 303.47 149.43 120.34 255.15"/></clipPath><clipPath id="clip-path-2"><path class="cls-2" d="M376.66,59.67c14,5.62,2.79,51.9-7.33,57.74s-26.47,5.87-36.53.06-21.22-52.09-7.1-57.73S362.63,54.06,376.66,59.67Z"/></clipPath></defs><title>Asset 1web-design2</title><g class="cls-4"><g id="Layer_2" data-name="Layer 2"><g id="OBJECTS"><rect class="cls-2" width="600" height="400"/><path class="cls-5" d="M534.61,234.91,257.17,395.09c-5,2.89-13.74,2.53-19.52-.8L65.41,294.84c-5.78-3.33-6.4-8.38-1.4-11.27L341.45,123.39c5-2.89,13.75-2.53,19.52.81l172.24,99.44C539,227,539.62,232,534.61,234.91Z"/><path class="cls-6" d="M536,232.16,258.55,392.34c-5,2.89-13.75,2.53-19.52-.81L66.79,292.09c-5.78-3.34-6.41-8.38-1.41-11.27L342.83,120.64c5-2.89,13.74-2.53,19.52.8l172.24,99.45C540.37,224.22,541,229.27,536,232.16Z"/><path class="cls-7" d="M536,229.4,258.55,389.59c-5,2.89-13.75,2.52-19.52-.81L66.79,289.33C61,286,60.38,281,65.38,278.07L342.83,117.88c5-2.89,13.74-2.52,19.52.81l172.24,99.44C540.37,221.47,541,226.51,536,229.4Z"/><path class="cls-8" d="M536,229.4,258.55,389.59c-5,2.89-13.75,2.52-19.52-.81L66.79,289.33C61,286,60.38,281,65.38,278.07L342.83,117.88c5-2.89,13.74-2.52,19.52.81l172.24,99.44C540.37,221.47,541,226.51,536,229.4Z"/><path class="cls-8" d="M536,229.4,258.55,389.59c-5,2.89-13.75,2.52-19.52-.81L66.79,289.33C61,286,60.38,281,65.38,278.07L342.83,117.88c5-2.89,13.74-2.52,19.52.81l172.24,99.44C540.37,221.47,541,226.51,536,229.4Z"/><path class="cls-9" d="M536.53,220.17c2.42,3,1.86,6.37-1.92,8.55L257.17,388.9c-5,2.89-13.74,2.53-19.52-.8L65.41,288.65a13.46,13.46,0,0,1-1.94-1.34A11.81,11.81,0,0,0,66.79,290L239,389.47c5.77,3.34,14.51,3.7,19.52.81L536,230.1C540.36,227.58,540.43,223.41,536.53,220.17Z"/><path class="cls-10" d="M438.05,246.82l-49.16-28.38-71.35-41.19c-4.87-2.82-12.25-3.12-16.47-.69l-184,106.24c-4.22,2.44-3.69,6.69,1.18,9.51l71.34,41.19,49.17,28.39c4.88,2.81,12.25,3.11,16.47.68l184-106.24C443.45,253.89,442.92,249.63,438.05,246.82Z"/><path class="cls-11" d="M112.26,266V126.85c0-7.82,2.56-11.62,7.64-14.6L303.91,6c1.88-1.08,3.6-1.47,4.93-.94h0s-3.1-1.79-3.38-1.9h0c-1.33-.5-3-.11-4.88,1l-184,106.24c-5.08,3-7.64,6.78-7.64,14.61V264.13c0,3.74,1,5.84,2.65,6.58l2.78,1.56C113.06,271.33,112.26,269.3,112.26,266Z"/><path class="cls-12" d="M241.59,358.64c4.88,2.81,12.25,3.12,16.47.68l184-106.24c1.9-1.1,2.83-2.56,2.84-4.1h0v-7.54h0a5,5,0,0,1-2.84,3.87l-184,106.24c-4.22,2.44-11.59,2.13-16.47-.68Z"/><path class="cls-13" d="M241.59,350.87,121.08,281.29c-2.47-1.43-3.82-3.22-4-5h0v7a3.37,3.37,0,0,0,0,.71v.05h0c.19,1.74,1.54,3.53,4,4.95l120.51,69.58Z"/><path class="cls-11" d="M391.73,207.42l49.16,28.38c4.87,2.82,5.4,7.08,1.18,9.51l-184,106.24c-4.22,2.44-11.59,2.13-16.47-.68l-49.17-28.39Z"/><path class="cls-11" d="M192.42,322.48l-71.34-41.19c-4.87-2.81-5.4-7.07-1.18-9.51l184-106.23c4.22-2.44,11.6-2.14,16.47.68l71.35,41.19Z"/><path class="cls-14" d="M161.89,281.27l-9.21,5.32a2.46,2.46,0,0,1-2.19-.09l-8.83-5.1c-.65-.37-.72-.94-.15-1.26l9.2-5.32a2.45,2.45,0,0,1,2.2.09l8.82,5.09C162.38,280.38,162.45,281,161.89,281.27Z"/><path class="cls-14" d="M174.35,274.08l-9.21,5.31a2.42,2.42,0,0,1-2.2-.09l-8.82-5.09c-.65-.38-.72-.94-.16-1.27l9.21-5.31a2.42,2.42,0,0,1,2.2.09l8.82,5.09C174.84,273.19,174.91,273.75,174.35,274.08Z"/><path class="cls-14" d="M186.81,266.89l-9.21,5.31a2.42,2.42,0,0,1-2.2-.09L166.58,267c-.65-.38-.72-.95-.16-1.27l9.21-5.32a2.48,2.48,0,0,1,2.2.09l8.82,5.1C187.3,266,187.37,266.56,186.81,266.89Z"/><path class="cls-14" d="M199.27,259.69,190.06,265a2.48,2.48,0,0,1-2.2-.09l-8.82-5.1c-.65-.37-.72-.94-.16-1.26l9.21-5.32a2.48,2.48,0,0,1,2.2.09l8.82,5.09C199.76,258.8,199.83,259.37,199.27,259.69Z"/><path class="cls-14" d="M211.72,252.5l-9.2,5.32a2.48,2.48,0,0,1-2.2-.09l-8.82-5.1c-.65-.37-.72-.94-.16-1.27l9.21-5.31a2.4,2.4,0,0,1,2.19.09l8.83,5.09C212.22,251.61,212.29,252.18,211.72,252.5Z"/><path class="cls-14" d="M224.18,245.31,215,250.62a2.4,2.4,0,0,1-2.19-.09L204,245.44c-.65-.38-.72-.94-.16-1.27l9.21-5.31a2.4,2.4,0,0,1,2.19.09L224,244C224.68,244.41,224.75,245,224.18,245.31Z"/><path class="cls-14" d="M236.64,238.11l-9.21,5.32a2.43,2.43,0,0,1-2.19-.09l-8.83-5.09c-.64-.38-.72-.95-.15-1.27l9.2-5.32a2.48,2.48,0,0,1,2.2.09l8.82,5.1C237.13,237.22,237.2,237.79,236.64,238.11Z"/><path class="cls-14" d="M249.1,230.92l-9.21,5.32a2.48,2.48,0,0,1-2.2-.09l-8.82-5.1c-.65-.37-.72-.94-.16-1.26l9.21-5.32a2.42,2.42,0,0,1,2.2.09l8.82,5.09C249.59,230,249.66,230.6,249.1,230.92Z"/><path class="cls-14" d="M261.56,223.73,252.35,229a2.42,2.42,0,0,1-2.2-.09l-8.82-5.09c-.65-.38-.72-.94-.16-1.27l9.21-5.31a2.42,2.42,0,0,1,2.2.09l8.82,5.09C262.05,222.84,262.12,223.4,261.56,223.73Z"/><path class="cls-14" d="M274,216.54l-9.21,5.31a2.42,2.42,0,0,1-2.2-.09l-8.82-5.09c-.65-.38-.72-.95-.16-1.27l9.21-5.32a2.48,2.48,0,0,1,2.2.09l8.82,5.1C274.51,215.64,274.58,216.21,274,216.54Z"/><path class="cls-14" d="M286.47,209.34l-9.2,5.32a2.48,2.48,0,0,1-2.2-.09l-8.82-5.1c-.65-.37-.72-.94-.16-1.26l9.21-5.32a2.46,2.46,0,0,1,2.19.09l8.83,5.09C287,208.45,287,209,286.47,209.34Z"/><path class="cls-14" d="M298.93,202.15l-9.21,5.32a2.46,2.46,0,0,1-2.19-.09l-8.82-5.1c-.65-.37-.72-.94-.16-1.27l9.21-5.31a2.4,2.4,0,0,1,2.19.09l8.83,5.09C299.43,201.26,299.5,201.82,298.93,202.15Z"/><path class="cls-14" d="M311.39,195l-9.21,5.31a2.4,2.4,0,0,1-2.19-.09l-8.82-5.09c-.65-.38-.72-.94-.16-1.27l9.2-5.32a2.45,2.45,0,0,1,2.2.1l8.82,5.09C311.88,194.06,312,194.63,311.39,195Z"/><path class="cls-14" d="M329.48,184.51l-14.84,8.57a2.43,2.43,0,0,1-2.19-.09l-8.83-5.09c-.65-.38-.72-1-.15-1.27l14.83-8.57a2.48,2.48,0,0,1,2.2.09l8.82,5.1C330,183.62,330,184.19,329.48,184.51Z"/><path class="cls-14" d="M321.48,190.53l9.2-5.32a2.42,2.42,0,0,1,2.2.09l8.82,5.09c.65.38.72,1,.16,1.27L332.65,197a2.46,2.46,0,0,1-2.19-.09l-8.83-5.1C321,191.42,320.91,190.85,321.48,190.53Z"/><path class="cls-14" d="M309,197.72l9.21-5.32a2.46,2.46,0,0,1,2.19.09l8.82,5.1c.65.37.72.94.16,1.26l-9.21,5.32a2.4,2.4,0,0,1-2.19-.09L309.18,199C308.53,198.61,308.46,198,309,197.72Z"/><path class="cls-14" d="M296.56,204.91l9.21-5.31a2.4,2.4,0,0,1,2.19.09l8.83,5.09c.65.38.72.94.15,1.27l-9.2,5.31a2.42,2.42,0,0,1-2.2-.09l-8.82-5.09C296.07,205.8,296,205.24,296.56,204.91Z"/><path class="cls-14" d="M284.1,212.1l9.21-5.31a2.42,2.42,0,0,1,2.2.09l8.82,5.09c.65.38.72.95.16,1.27l-9.21,5.32a2.48,2.48,0,0,1-2.2-.09l-8.82-5.1C283.61,213,283.54,212.43,284.1,212.1Z"/><path class="cls-14" d="M271.64,219.3l9.21-5.32a2.48,2.48,0,0,1,2.2.09l8.82,5.1c.65.37.72.94.16,1.26l-9.21,5.32a2.48,2.48,0,0,1-2.2-.09l-8.82-5.1C271.15,220.19,271.08,219.62,271.64,219.3Z"/><path class="cls-14" d="M259.18,226.49l9.21-5.32a2.48,2.48,0,0,1,2.2.09l8.82,5.1c.65.37.72.94.16,1.27l-9.21,5.31a2.42,2.42,0,0,1-2.2-.09l-8.82-5.09C258.69,227.38,258.62,226.81,259.18,226.49Z"/><path class="cls-14" d="M246.73,233.68l9.2-5.31a2.42,2.42,0,0,1,2.2.09l8.82,5.09c.65.38.72.94.16,1.27l-9.21,5.32a2.43,2.43,0,0,1-2.19-.1L246.88,235C246.23,234.58,246.16,234,246.73,233.68Z"/><path class="cls-14" d="M234.27,240.88l9.21-5.32a2.43,2.43,0,0,1,2.19.09l8.82,5.09c.65.38.72.95.16,1.27l-9.21,5.32a2.46,2.46,0,0,1-2.19-.09l-8.83-5.1C233.77,241.77,233.7,241.2,234.27,240.88Z"/><path class="cls-14" d="M221.81,248.07l9.21-5.32a2.46,2.46,0,0,1,2.19.09l8.83,5.1c.64.37.72.94.15,1.27l-9.2,5.31a2.42,2.42,0,0,1-2.2-.09L222,249.34C221.32,249,221.25,248.39,221.81,248.07Z"/><path class="cls-14" d="M209.35,255.26l9.21-5.32a2.43,2.43,0,0,1,2.19.1l8.83,5.09c.65.38.72.94.15,1.27l-9.2,5.31a2.42,2.42,0,0,1-2.2-.09l-8.82-5.09C208.86,256.15,208.79,255.59,209.35,255.26Z"/><path class="cls-14" d="M196.89,262.45l9.21-5.31a2.42,2.42,0,0,1,2.2.09l8.82,5.09c.65.38.72.95.16,1.27l-9.21,5.32a2.48,2.48,0,0,1-2.2-.09l-8.82-5.1C196.4,263.35,196.33,262.78,196.89,262.45Z"/><path class="cls-14" d="M184.43,269.65l9.21-5.32a2.48,2.48,0,0,1,2.2.09l8.82,5.1c.65.37.72.94.16,1.26l-9.21,5.32a2.48,2.48,0,0,1-2.2-.09l-8.82-5.09C183.94,270.54,183.87,270,184.43,269.65Z"/><path class="cls-14" d="M172,276.84l9.21-5.32a2.48,2.48,0,0,1,2.2.09l8.82,5.1c.65.37.72.94.16,1.27l-9.21,5.31a2.4,2.4,0,0,1-2.19-.09l-8.83-5.09C171.48,277.73,171.41,277.17,172,276.84Z"/><path class="cls-14" d="M153.89,287.28l14.83-8.56a2.42,2.42,0,0,1,2.2.09l8.82,5.09c.65.38.72.94.16,1.27l-14.84,8.57a2.43,2.43,0,0,1-2.19-.1L154,288.55C153.39,288.18,153.32,287.61,153.89,287.28Z"/><path class="cls-14" d="M324.86,202.87l18.2-10.51a2.42,2.42,0,0,1,2.2.09l8.82,5.09c.65.38.72.94.16,1.27L336,209.32a2.48,2.48,0,0,1-2.2-.09l-8.82-5.1C324.37,203.76,324.3,203.19,324.86,202.87Z"/><path class="cls-14" d="M166.37,294.37l18.2-10.51a2.48,2.48,0,0,1,2.2.09l8.82,5.1c.65.37.72.94.16,1.27l-18.2,10.51a2.45,2.45,0,0,1-2.2-.1l-8.82-5.09C165.88,295.27,165.81,294.7,166.37,294.37Z"/><path class="cls-14" d="M312.41,210.06l9.2-5.32a2.48,2.48,0,0,1,2.2.09l8.82,5.1c.65.37.72.94.16,1.26l-9.21,5.32a2.4,2.4,0,0,1-2.19-.09l-8.83-5.09C311.91,211,311.84,210.38,312.41,210.06Z"/><path class="cls-14" d="M300,217.25l9.21-5.31a2.4,2.4,0,0,1,2.19.09l8.82,5.09c.65.37.72.94.16,1.27l-9.21,5.31a2.4,2.4,0,0,1-2.19-.09l-8.83-5.09C299.46,218.14,299.38,217.58,300,217.25Z"/><path class="cls-14" d="M287.49,224.44l9.21-5.31a2.4,2.4,0,0,1,2.19.09l8.83,5.09c.65.38.72.95.15,1.27l-9.2,5.32a2.48,2.48,0,0,1-2.2-.09l-8.82-5.1C287,225.34,286.93,224.77,287.49,224.44Z"/><path class="cls-14" d="M275,231.64l9.21-5.32a2.46,2.46,0,0,1,2.19.09l8.83,5.1c.65.37.72.94.15,1.26l-9.2,5.32A2.48,2.48,0,0,1,284,238l-8.82-5.1C274.54,232.53,274.47,232,275,231.64Z"/><path class="cls-14" d="M262.57,238.83l9.21-5.32a2.48,2.48,0,0,1,2.2.09l8.82,5.1c.65.37.72.94.16,1.27l-9.21,5.31a2.42,2.42,0,0,1-2.2-.09l-8.82-5.09C262.08,239.72,262,239.16,262.57,238.83Z"/><path class="cls-14" d="M250.11,246l9.21-5.31a2.42,2.42,0,0,1,2.2.09l8.82,5.09c.65.38.72.94.16,1.27l-9.21,5.32a2.45,2.45,0,0,1-2.2-.1l-8.82-5.09C249.62,246.92,249.55,246.35,250.11,246Z"/><path class="cls-14" d="M237.65,253.22l9.21-5.32a2.45,2.45,0,0,1,2.2.09l8.82,5.09c.65.38.72.95.16,1.27l-9.21,5.32a2.46,2.46,0,0,1-2.19-.09l-8.83-5.1C237.16,254.11,237.09,253.54,237.65,253.22Z"/><path class="cls-14" d="M225.2,260.41l9.2-5.32a2.48,2.48,0,0,1,2.2.09l8.82,5.1c.65.37.72.94.16,1.27l-9.21,5.31a2.43,2.43,0,0,1-2.19-.09l-8.83-5.09C224.71,261.3,224.63,260.73,225.2,260.41Z"/><path class="cls-14" d="M212.74,267.6l9.21-5.31a2.4,2.4,0,0,1,2.19.09l8.82,5.09c.65.38.72.94.16,1.27l-9.21,5.31a2.4,2.4,0,0,1-2.19-.09l-8.82-5.09C212.25,268.49,212.18,267.93,212.74,267.6Z"/><path class="cls-14" d="M200.28,274.79l9.21-5.31a2.4,2.4,0,0,1,2.19.09l8.83,5.09c.65.38.72.95.15,1.27l-9.2,5.32a2.48,2.48,0,0,1-2.2-.09l-8.82-5.1C199.79,275.69,199.72,275.12,200.28,274.79Z"/><path class="cls-14" d="M187.82,282l9.21-5.32a2.48,2.48,0,0,1,2.2.09l8.82,5.1c.65.37.72.94.16,1.26L199,288.44a2.48,2.48,0,0,1-2.2-.09L188,283.26C187.33,282.88,187.26,282.31,187.82,282Z"/><path class="cls-14" d="M331.06,213.58l24.39-14.07a2.4,2.4,0,0,1,2.19.09l8.82,5.09c.65.38.72.94.16,1.27L342.24,220A2.48,2.48,0,0,1,340,220l-8.82-5.1C330.57,214.48,330.5,213.91,331.06,213.58Z"/><path class="cls-14" d="M318.6,220.78l9.21-5.32a2.48,2.48,0,0,1,2.2.09l8.82,5.1c.65.37.72.94.15,1.26l-9.2,5.32a2.48,2.48,0,0,1-2.2-.09l-8.82-5.09C318.11,221.67,318,221.1,318.6,220.78Z"/><path class="cls-14" d="M306.14,228l9.21-5.32a2.45,2.45,0,0,1,2.2.1l8.82,5.09c.65.37.72.94.16,1.27l-9.21,5.31a2.42,2.42,0,0,1-2.2-.09l-8.82-5.09C305.65,228.86,305.58,228.3,306.14,228Z"/><path class="cls-14" d="M293.69,235.16l9.2-5.31a2.42,2.42,0,0,1,2.2.09l8.82,5.09c.65.38.72.94.16,1.27l-9.21,5.32a2.45,2.45,0,0,1-2.2-.1l-8.82-5.09C293.19,236.06,293.12,235.49,293.69,235.16Z"/><path class="cls-14" d="M281.23,242.36l9.2-5.32a2.42,2.42,0,0,1,2.2.09l8.82,5.09c.65.38.72.95.16,1.27l-9.21,5.32a2.46,2.46,0,0,1-2.19-.09l-8.83-5.1C280.73,243.25,280.66,242.68,281.23,242.36Z"/><path class="cls-14" d="M268.77,249.55l9.21-5.32a2.46,2.46,0,0,1,2.19.09l8.82,5.1c.65.37.72.94.16,1.27L279.94,256a2.4,2.4,0,0,1-2.19-.09l-8.82-5.09C268.28,250.44,268.21,249.87,268.77,249.55Z"/><path class="cls-14" d="M256.31,256.74l9.21-5.31a2.4,2.4,0,0,1,2.19.09l8.82,5.09c.66.38.73.94.16,1.27l-9.21,5.31a2.4,2.4,0,0,1-2.19-.09L256.47,258C255.82,257.63,255.75,257.07,256.31,256.74Z"/><path class="cls-14" d="M243.85,263.94l9.21-5.32a2.42,2.42,0,0,1,2.2.09l8.82,5.09c.65.38.72.95.15,1.27l-9.2,5.32a2.48,2.48,0,0,1-2.2-.09L244,265.2C243.36,264.83,243.29,264.26,243.85,263.94Z"/><path class="cls-14" d="M231.39,271.13l9.21-5.32a2.48,2.48,0,0,1,2.2.09l8.82,5.1c.65.37.72.94.16,1.26l-9.21,5.32a2.45,2.45,0,0,1-2.2-.09l-8.82-5.1C230.9,272,230.83,271.45,231.39,271.13Z"/><path class="cls-14" d="M218.93,278.32l9.21-5.32a2.45,2.45,0,0,1,2.2.1l8.82,5.09c.65.37.72.94.16,1.27l-9.21,5.31a2.42,2.42,0,0,1-2.2-.09l-8.82-5.09C218.44,279.21,218.37,278.64,218.93,278.32Z"/><path class="cls-14" d="M206.47,285.51l9.21-5.31a2.42,2.42,0,0,1,2.2.09l8.82,5.09c.65.38.72.94.16,1.27L217.65,292a2.48,2.48,0,0,1-2.2-.09l-8.82-5.1C206,286.41,205.91,285.84,206.47,285.51Z"/><path class="cls-14" d="M178.75,301.52l24.47-14.13a2.48,2.48,0,0,1,2.2.09l8.82,5.09c.65.38.72.95.16,1.27L189.93,308a2.42,2.42,0,0,1-2.2-.09l-8.82-5.09C178.26,302.41,178.19,301.84,178.75,301.52Z"/><path class="cls-14" d="M243.77,278.27l59-34.08a2.4,2.4,0,0,1,2.19.09l8.82,5.09c.65.38.72.94.16,1.27l-59,34.09a2.48,2.48,0,0,1-2.2-.09l-8.82-5.1C243.28,279.17,243.21,278.6,243.77,278.27Z"/><path class="cls-14" d="M321.24,233.55l9.21-5.32a2.48,2.48,0,0,1,2.2.09l8.82,5.1c.65.37.72.94.16,1.26L332.42,240a2.45,2.45,0,0,1-2.2-.09l-8.82-5.09C320.75,234.44,320.68,233.87,321.24,233.55Z"/><path class="cls-14" d="M306.07,242.31,318,235.42a2.45,2.45,0,0,1,2.2.1l8.82,5.09c.65.38.72.94.16,1.27l-11.93,6.88a2.4,2.4,0,0,1-2.19-.09l-8.83-5.09C305.57,243.2,305.5,242.64,306.07,242.31Z"/><path class="cls-14" d="M225.35,288.92l-9.21,5.31c-.57.33-.5.89.16,1.27l8.82,5.09a2.4,2.4,0,0,0,2.19.09l9.21-5.31c.56-.33.49-.9-.16-1.27L227.54,289A2.4,2.4,0,0,0,225.35,288.92Z"/><path class="cls-14" d="M240.52,280.15,228.6,287c-.57.32-.5.89.15,1.27l8.83,5.09a2.4,2.4,0,0,0,2.19.09l11.93-6.88c.56-.33.49-.9-.16-1.27l-8.82-5.1A2.48,2.48,0,0,0,240.52,280.15Z"/><path class="cls-14" d="M358.62,212l9.21-5.32a2.46,2.46,0,0,1,2.19.09l8.82,5.1c.66.37.73.94.16,1.27l-9.21,5.31a2.4,2.4,0,0,1-2.19-.09l-8.82-5.09C358.13,212.86,358.06,212.29,358.62,212Z"/><path class="cls-14" d="M346.16,219.16l9.21-5.31a2.4,2.4,0,0,1,2.19.09l8.83,5.09c.65.38.72.94.15,1.27l-9.2,5.31a2.42,2.42,0,0,1-2.2-.09l-8.82-5.09C345.67,220.06,345.6,219.49,346.16,219.16Z"/><path class="cls-14" d="M333.7,226.35l9.21-5.31a2.42,2.42,0,0,1,2.2.09l8.82,5.09c.65.38.72.95.16,1.27l-9.21,5.32a2.48,2.48,0,0,1-2.2-.09l-8.82-5.1C333.21,227.25,333.14,226.68,333.7,226.35Z"/><path class="cls-14" d="M191.13,308.67l21.76-12.56a2.4,2.4,0,0,1,2.19.09l8.82,5.09c.65.38.73.95.16,1.27l-21.75,12.56a2.45,2.45,0,0,1-2.2-.09l-8.82-5.09C190.64,309.56,190.57,309,191.13,308.67Z"/><path class="cls-14" d="M149.51,274.12l-9.21,5.32a2.46,2.46,0,0,1-2.19-.09l-4.39-2.53c-.65-.38-.72-.95-.16-1.27l9.21-5.32a2.46,2.46,0,0,1,2.19.09l4.39,2.54C150,273.23,150.07,273.8,149.51,274.12Z"/><path class="cls-14" d="M162,266.93l-9.21,5.32a2.48,2.48,0,0,1-2.2-.09l-4.38-2.54c-.65-.37-.72-.94-.16-1.26l9.21-5.32a2.4,2.4,0,0,1,2.19.09l4.39,2.53C162.46,266,162.53,266.61,162,266.93Z"/><path class="cls-14" d="M174.43,259.74l-9.21,5.31A2.42,2.42,0,0,1,163,265l-4.38-2.53c-.65-.37-.72-.94-.16-1.27l9.21-5.31a2.4,2.4,0,0,1,2.19.09l4.39,2.53C174.92,258.85,175,259.41,174.43,259.74Z"/><path class="cls-14" d="M186.89,252.55l-9.21,5.31a2.42,2.42,0,0,1-2.2-.09l-4.39-2.53c-.65-.38-.72-1-.15-1.27l9.2-5.32a2.48,2.48,0,0,1,2.2.09l4.39,2.54C187.38,251.65,187.45,252.22,186.89,252.55Z"/><path class="cls-14" d="M199.34,245.35l-9.2,5.32a2.48,2.48,0,0,1-2.2-.09L183.55,248c-.65-.37-.72-.94-.16-1.26l9.21-5.32a2.48,2.48,0,0,1,2.2.09l4.39,2.53C199.84,244.46,199.91,245,199.34,245.35Z"/><path class="cls-14" d="M211.8,238.16l-9.21,5.32a2.43,2.43,0,0,1-2.19-.1L196,240.85c-.65-.37-.72-.94-.16-1.27l9.21-5.31a2.42,2.42,0,0,1,2.2.09l4.38,2.53C212.29,237.27,212.36,237.83,211.8,238.16Z"/><path class="cls-14" d="M224.26,231l-9.21,5.31a2.4,2.4,0,0,1-2.19-.09l-4.39-2.53c-.65-.38-.72-.94-.16-1.27l9.21-5.32a2.45,2.45,0,0,1,2.2.1l4.38,2.53C224.75,230.07,224.82,230.64,224.26,231Z"/><path class="cls-14" d="M236.72,223.77l-9.21,5.32a2.46,2.46,0,0,1-2.19-.09l-4.39-2.53c-.65-.38-.72-.95-.16-1.27l9.21-5.32a2.46,2.46,0,0,1,2.19.09l4.39,2.54C237.21,222.88,237.28,223.45,236.72,223.77Z"/><path class="cls-14" d="M249.18,216.58,240,221.9a2.48,2.48,0,0,1-2.2-.09l-4.38-2.54c-.65-.37-.72-.94-.16-1.26l9.21-5.32a2.4,2.4,0,0,1,2.19.09l4.39,2.53C249.67,215.69,249.74,216.26,249.18,216.58Z"/><path class="cls-14" d="M261.64,209.39l-9.21,5.31a2.42,2.42,0,0,1-2.2-.09l-4.39-2.53c-.64-.37-.72-.94-.15-1.27l9.21-5.31a2.4,2.4,0,0,1,2.19.09l4.39,2.53C262.13,208.49,262.2,209.06,261.64,209.39Z"/><path class="cls-14" d="M274.09,202.19l-9.2,5.32a2.45,2.45,0,0,1-2.2-.09l-4.39-2.53c-.65-.38-.72-.95-.15-1.27l9.2-5.32a2.48,2.48,0,0,1,2.2.09l4.39,2.54C274.59,201.3,274.66,201.87,274.09,202.19Z"/><path class="cls-14" d="M286.55,195l-9.21,5.32a2.46,2.46,0,0,1-2.19-.09l-4.39-2.54c-.65-.37-.72-.94-.16-1.26l9.21-5.32a2.48,2.48,0,0,1,2.2.09l4.39,2.53C287,194.11,287.11,194.68,286.55,195Z"/><path class="cls-14" d="M299,187.81l-9.21,5.31a2.4,2.4,0,0,1-2.19-.09l-4.39-2.53c-.65-.37-.72-.94-.16-1.27l9.21-5.31a2.42,2.42,0,0,1,2.2.09l4.38,2.53C299.5,186.92,299.57,187.48,299,187.81Z"/><path class="cls-14" d="M317.1,177.37l-14.84,8.56a2.4,2.4,0,0,1-2.19-.09l-4.39-2.53c-.65-.38-.72-.94-.16-1.27l14.84-8.57a2.45,2.45,0,0,1,2.2.1l4.38,2.53C317.59,176.47,317.66,177,317.1,177.37Z"/><path class="cls-13" d="M363.63,288.93l-30,17.33a.89.89,0,0,0,0,1.68l32.93-19A3.19,3.19,0,0,0,363.63,288.93Z"/><polygon class="cls-13" points="291.83 174.98 136.24 264.81 134.11 263.58 289.7 173.75 291.83 174.98"/><path class="cls-15" d="M192.42,322.48l-71.34-41.19c-4.87-2.81-5.4-7.07-1.18-9.51l184-106.23c4.22-2.44,11.6-2.14,16.47.68l71.35,41.19Z"/><polygon class="cls-13" points="112.26 126.85 112.26 266 108.93 264.08 108.93 124.93 112.26 126.85"/><path class="cls-1" d="M303.91,165.55l-184,106.23c-4.22,2.44-7.64,1.05-7.64-5.78V126.85c0-7.82,2.56-11.62,7.64-14.6L303.91,6c4.22-2.44,7.65-1.36,7.65,5.78V150.94C311.56,160,308.53,162.89,303.91,165.55Z"/><path class="cls-14" d="M304.42,6.81l-185,106.82a13.65,13.65,0,0,0-6.18,10.67V267.46c0,3.91,2.77,5.49,6.18,3.53l185-106.83a13.64,13.64,0,0,0,6.18-10.67V10.34C310.6,6.42,307.83,4.84,304.42,6.81Z"/><polygon id="_Clipping_Path_2" data-name="&lt;Clipping Path&gt;" class="cls-1" points="120.34 255.15 120.34 121.27 303.47 15.55 303.47 149.43 120.34 255.15"/><g class="cls-16"><g class="cls-17"><path class="cls-12" d="M22.26,192c-2.69-2.65-1.48-6.58,2.68-8.78L201.3,89.8a13.25,13.25,0,0,1,5.95-1.43h0l10.16-.1h0a13,13,0,0,0-5.66,1.43L35.3,183.37c-4.16,2.21-5.35,6.14-2.63,8.8Z"/><path class="cls-12" d="M32.67,192.17l71.5,69.93a10.16,10.16,0,0,0,6.39,2.58h0l-10.19-.28a8.8,8.8,0,0,1-1,0h-.08A10,10,0,0,1,93,261.8L22.26,192Z"/><path class="cls-11" d="M256.25,114.44,224.43,90.17c-3.07-2.35-8.74-2.55-12.68-.46L35.3,183.37c-4.16,2.21-5.35,6.14-2.63,8.8L60.81,219.7Z"/><path class="cls-11" d="M60.81,219.7l43.36,42.4c3.08,3,9.16,3.5,13.56,1.08L304,160.72c4.15-2.28,4.68-6.29,1.21-8.94l-48.95-37.34Z"/><path class="cls-14" d="M112.47,238.2,103,243.36c-.58.32-.73.89-.32,1.28l5.51,5.32a1.62,1.62,0,0,0,1.8.14l9.5-5.2c.58-.32.72-.9.3-1.29l-5.55-5.28A1.62,1.62,0,0,0,112.47,238.2Z"/><path class="cls-14" d="M125.23,231.24l-9.42,5.14c-.58.32-.72.88-.31,1.27l5.56,5.28a1.64,1.64,0,0,0,1.8.13l9.46-5.18c.58-.32.71-.89.3-1.27L127,231.37A1.61,1.61,0,0,0,125.23,231.24Z"/><path class="cls-14" d="M137.93,224.3l-9.38,5.13c-.58.31-.71.88-.3,1.26l5.61,5.24a1.68,1.68,0,0,0,1.8.13l9.42-5.16c.58-.32.7-.89.29-1.27l-5.65-5.2A1.66,1.66,0,0,0,137.93,224.3Z"/><path class="cls-14" d="M150.59,217.4l-9.35,5.1c-.57.31-.7.88-.29,1.26l5.66,5.19a1.66,1.66,0,0,0,1.79.13l9.39-5.14c.58-.32.7-.88.28-1.26l-5.69-5.16A1.66,1.66,0,0,0,150.59,217.4Z"/><path class="cls-14" d="M163.19,210.52l-9.31,5.08c-.57.31-.69.87-.28,1.25l5.7,5.15a1.68,1.68,0,0,0,1.8.13l9.35-5.12c.57-.32.69-.88.27-1.25L165,210.64A1.66,1.66,0,0,0,163.19,210.52Z"/><path class="cls-14" d="M175.74,203.67l-9.27,5.06c-.57.31-.69.87-.26,1.24l5.74,5.11a1.66,1.66,0,0,0,1.8.12l9.32-5.1c.56-.31.68-.86.25-1.24l-5.78-5.08A1.7,1.7,0,0,0,175.74,203.67Z"/><path class="cls-14" d="M188.25,196.85l-9.24,5c-.56.31-.68.86-.25,1.23l5.78,5.07a1.7,1.7,0,0,0,1.81.12l9.27-5.08c.57-.31.68-.86.25-1.24L190,197A1.69,1.69,0,0,0,188.25,196.85Z"/><path class="cls-14" d="M200.7,190.05l-9.2,5c-.56.31-.67.86-.24,1.22l5.83,5a1.71,1.71,0,0,0,1.8.11l9.25-5.06c.56-.31.66-.86.23-1.23l-5.87-5A1.7,1.7,0,0,0,200.7,190.05Z"/><path class="cls-14" d="M213.11,183.28l-9.16,5c-.57.31-.67.85-.24,1.22l5.87,5a1.72,1.72,0,0,0,1.81.11l9.21-5c.56-.31.66-.85.22-1.22l-5.91-5A1.73,1.73,0,0,0,213.11,183.28Z"/><path class="cls-14" d="M225.47,176.53l-9.13,5c-.56.3-.66.84-.23,1.21l5.92,5a1.75,1.75,0,0,0,1.81.1l9.17-5c.56-.31.65-.85.21-1.22l-5.95-4.91A1.75,1.75,0,0,0,225.47,176.53Z"/><path class="cls-14" d="M237.78,169.82l-9.1,5c-.55.3-.65.84-.21,1.2l6,4.91a1.75,1.75,0,0,0,1.81.11l9.13-5c.56-.31.65-.85.21-1.21l-6-4.87A1.73,1.73,0,0,0,237.78,169.82Z"/><path class="cls-14" d="M250,163.12,241,168.07c-.55.3-.65.84-.21,1.19l6,4.88a1.77,1.77,0,0,0,1.81.1l9.09-5c.56-.31.65-.84.2-1.2l-6-4.84A1.78,1.78,0,0,0,250,163.12Z"/><path class="cls-14" d="M262.25,156.46l-9,4.92c-.55.3-.64.84-.2,1.19l6,4.84a1.77,1.77,0,0,0,1.81.09l9.06-5c.56-.3.64-.83.19-1.19l-6.08-4.8A1.8,1.8,0,0,0,262.25,156.46Z"/><path class="cls-14" d="M279.9,146.83l-14.47,7.89c-.55.31-.64.83-.19,1.19l6.09,4.79a1.77,1.77,0,0,0,1.81.1l14.53-8c.56-.3.63-.83.18-1.18l-6.14-4.74A1.8,1.8,0,0,0,279.9,146.83Z"/><path class="cls-14" d="M270.1,151.08l9-4.9c.54-.29.62-.82.17-1.16l-6.07-4.69a1.8,1.8,0,0,0-1.79-.09l-8.93,4.86c-.54.3-.63.82-.19,1.17l6,4.72A1.78,1.78,0,0,0,270.1,151.08Z"/><path class="cls-14" d="M257.92,157.72l9-4.91c.55-.3.63-.83.18-1.18l-6-4.72a1.76,1.76,0,0,0-1.79-.09l-9,4.87c-.55.3-.64.83-.2,1.18l6,4.75A1.75,1.75,0,0,0,257.92,157.72Z"/><path class="cls-14" d="M245.7,164.39l9-4.93c.55-.31.64-.84.2-1.19l-6-4.76a1.76,1.76,0,0,0-1.79-.09l-9,4.89c-.55.3-.64.83-.2,1.18l5.94,4.8A1.78,1.78,0,0,0,245.7,164.39Z"/><path class="cls-14" d="M233.43,171.08l9.08-5c.55-.3.64-.84.2-1.19l-5.94-4.8a1.76,1.76,0,0,0-1.79-.09L226,165c-.56.3-.65.83-.22,1.19l5.91,4.83A1.73,1.73,0,0,0,233.43,171.08Z"/><path class="cls-14" d="M221.12,177.8l9.1-5c.56-.3.66-.84.22-1.2l-5.9-4.84a1.75,1.75,0,0,0-1.79-.09l-9.07,4.93c-.55.3-.65.84-.22,1.19l5.86,4.88A1.75,1.75,0,0,0,221.12,177.8Z"/><path class="cls-14" d="M208.75,184.55l9.15-5c.55-.31.65-.85.22-1.21l-5.86-4.88a1.74,1.74,0,0,0-1.78-.1l-9.11,5c-.55.3-.66.84-.23,1.2l5.82,4.91A1.73,1.73,0,0,0,208.75,184.55Z"/><path class="cls-14" d="M196.34,191.32l9.18-5c.56-.31.66-.85.23-1.21l-5.82-4.92a1.69,1.69,0,0,0-1.78-.1l-9.14,5c-.56.3-.67.84-.24,1.21l5.77,5A1.73,1.73,0,0,0,196.34,191.32Z"/><path class="cls-14" d="M183.87,198.12l9.22-5c.56-.31.67-.85.24-1.22l-5.77-5a1.69,1.69,0,0,0-1.78-.1l-9.17,5c-.57.3-.68.85-.26,1.21l5.73,5A1.69,1.69,0,0,0,183.87,198.12Z"/><path class="cls-14" d="M171.36,204.94l9.25-5c.57-.31.68-.86.26-1.23l-5.73-5a1.71,1.71,0,0,0-1.78-.11l-9.21,5c-.57.31-.68.86-.27,1.23l5.69,5A1.68,1.68,0,0,0,171.36,204.94Z"/><path class="cls-14" d="M158.8,211.8l9.29-5.07c.57-.31.68-.86.26-1.24l-5.68-5a1.67,1.67,0,0,0-1.78-.11l-9.25,5c-.57.31-.69.86-.27,1.23l5.64,5.07A1.68,1.68,0,0,0,158.8,211.8Z"/><path class="cls-14" d="M146.19,218.68l9.32-5.09c.57-.31.7-.87.28-1.24l-5.64-5.08a1.67,1.67,0,0,0-1.78-.11l-9.28,5.05c-.57.31-.7.86-.29,1.24l5.6,5.11A1.66,1.66,0,0,0,146.19,218.68Z"/><path class="cls-14" d="M133.53,225.59l9.36-5.11c.57-.31.7-.87.28-1.25l-5.59-5.12a1.67,1.67,0,0,0-1.78-.12l-9.32,5.07c-.57.31-.7.87-.29,1.25l5.55,5.15A1.66,1.66,0,0,0,133.53,225.59Z"/><path class="cls-14" d="M120.81,232.52l9.4-5.13c.58-.31.71-.87.3-1.25L125,221a1.64,1.64,0,0,0-1.78-.12L113.83,226c-.58.31-.71.87-.31,1.25l5.51,5.19A1.61,1.61,0,0,0,120.81,232.52Z"/><path class="cls-14" d="M102.27,242.64l15.22-8.3c.57-.32.71-.89.3-1.27l-5.5-5.2a1.63,1.63,0,0,0-1.77-.12L95.36,236c-.57.31-.72.88-.32,1.26l5.45,5.26A1.6,1.6,0,0,0,102.27,242.64Z"/><path class="cls-14" d="M252.9,149.21l17.66-9.6c.55-.3.63-.82.18-1.16l-6-4.63a1.79,1.79,0,0,0-1.78-.08l-17.59,9.54c-.54.29-.64.81-.2,1.16l5.93,4.69A1.78,1.78,0,0,0,252.9,149.21Z"/><path class="cls-14" d="M94.73,235.22l18.57-10.1c.57-.31.71-.87.3-1.25l-5.45-5.12a1.61,1.61,0,0,0-1.75-.12l-18.49,10c-.57.31-.72.87-.32,1.25L93,235.09A1.59,1.59,0,0,0,94.73,235.22Z"/><path class="cls-14" d="M240.74,155.82l9-4.88c.55-.3.64-.83.2-1.17l-5.93-4.7a1.74,1.74,0,0,0-1.77-.08l-8.95,4.85c-.55.29-.64.81-.21,1.16l5.89,4.73A1.74,1.74,0,0,0,240.74,155.82Z"/><path class="cls-14" d="M228.55,162.45l9-4.9c.55-.3.64-.83.21-1.18l-5.89-4.73a1.72,1.72,0,0,0-1.77-.09l-9,4.87c-.55.3-.65.82-.22,1.17l5.84,4.77A1.76,1.76,0,0,0,228.55,162.45Z"/><path class="cls-14" d="M216.3,169.11l9.06-4.92c.55-.3.65-.83.21-1.18l-5.84-4.77a1.72,1.72,0,0,0-1.77-.1L209,163c-.56.3-.66.83-.23,1.18l5.8,4.8A1.71,1.71,0,0,0,216.3,169.11Z"/><path class="cls-14" d="M204,175.8l9.09-5c.55-.3.66-.83.23-1.19l-5.8-4.8a1.7,1.7,0,0,0-1.77-.1l-9,4.91c-.56.3-.66.83-.24,1.18l5.76,4.85A1.74,1.74,0,0,0,204,175.8Z"/><path class="cls-14" d="M191.67,182.51l9.12-5c.56-.3.67-.84.24-1.19l-5.75-4.85a1.72,1.72,0,0,0-1.77-.1l-9.09,4.93c-.56.3-.67.83-.25,1.19l5.72,4.88A1.71,1.71,0,0,0,191.67,182.51Z"/><path class="cls-14" d="M179.28,189.24l9.16-5c.56-.3.67-.84.25-1.2L183,178.17a1.68,1.68,0,0,0-1.76-.1l-9.12,5c-.56.3-.68.84-.26,1.2l5.67,4.92A1.69,1.69,0,0,0,179.28,189.24Z"/><path class="cls-14" d="M166.84,196l9.2-5c.56-.31.68-.85.26-1.22l-5.68-4.92a1.67,1.67,0,0,0-1.76-.11l-9.16,5c-.56.3-.68.84-.26,1.21l5.63,5A1.69,1.69,0,0,0,166.84,196Z"/><path class="cls-14" d="M154.36,202.8l9.23-5c.56-.31.68-.86.27-1.22l-5.63-5a1.67,1.67,0,0,0-1.77-.1l-9.19,5c-.56.3-.68.85-.27,1.21l5.59,5A1.67,1.67,0,0,0,154.36,202.8Z"/><path class="cls-14" d="M141.82,209.61l9.27-5c.57-.31.69-.86.28-1.23l-5.59-5a1.67,1.67,0,0,0-1.76-.11l-9.23,5c-.56.3-.69.85-.28,1.22l5.54,5A1.65,1.65,0,0,0,141.82,209.61Z"/><path class="cls-14" d="M129.24,216.46l9.3-5.06c.57-.31.7-.87.29-1.24l-5.54-5a1.65,1.65,0,0,0-1.76-.12l-9.27,5c-.56.3-.7.86-.29,1.23l5.5,5.08A1.65,1.65,0,0,0,129.24,216.46Z"/><path class="cls-14" d="M116.6,223.33l9.35-5.08c.57-.31.7-.87.29-1.25l-5.49-5.08a1.65,1.65,0,0,0-1.76-.12l-9.3,5c-.57.31-.71.86-.31,1.24l5.46,5.11A1.61,1.61,0,0,0,116.6,223.33Z"/><path class="cls-14" d="M238.58,145.89l23.58-12.78c.54-.29.62-.8.18-1.14l-5.92-4.58a1.77,1.77,0,0,0-1.76-.08L231.18,140c-.54.3-.64.81-.21,1.15l5.84,4.65A1.72,1.72,0,0,0,238.58,145.89Z"/><path class="cls-14" d="M226.46,152.46l9-4.86c.55-.29.64-.81.21-1.16l-5.83-4.65a1.75,1.75,0,0,0-1.76-.09l-8.92,4.82c-.55.3-.65.82-.22,1.16l5.79,4.69A1.72,1.72,0,0,0,226.46,152.46Z"/><path class="cls-14" d="M214.3,159.05l9-4.87c.55-.3.65-.82.22-1.17l-5.79-4.69a1.7,1.7,0,0,0-1.76-.09l-9,4.84c-.55.29-.65.81-.23,1.16l5.75,4.73A1.72,1.72,0,0,0,214.3,159.05Z"/><path class="cls-14" d="M202.09,165.67l9-4.9c.55-.29.65-.82.23-1.17l-5.75-4.73a1.7,1.7,0,0,0-1.76-.09l-9,4.86c-.55.29-.66.82-.24,1.17l5.71,4.76A1.72,1.72,0,0,0,202.09,165.67Z"/><path class="cls-14" d="M189.83,172.31l9.07-4.91c.55-.3.66-.83.23-1.18l-5.71-4.77a1.68,1.68,0,0,0-1.75-.09l-9,4.87c-.56.3-.67.83-.25,1.18l5.67,4.8A1.68,1.68,0,0,0,189.83,172.31Z"/><path class="cls-14" d="M177.53,179l9.1-4.93c.55-.3.66-.83.24-1.19l-5.66-4.81a1.7,1.7,0,0,0-1.76-.09l-9,4.89c-.56.3-.67.83-.26,1.19l5.63,4.84A1.67,1.67,0,0,0,177.53,179Z"/><path class="cls-14" d="M165.18,185.68l9.13-5c.56-.3.67-.83.26-1.19l-5.63-4.85a1.68,1.68,0,0,0-1.75-.1l-9.09,4.92c-.56.3-.68.83-.27,1.19l5.59,4.88A1.67,1.67,0,0,0,165.18,185.68Z"/><path class="cls-14" d="M152.78,192.4l9.17-5c.56-.31.67-.85.26-1.21l-5.58-4.88a1.66,1.66,0,0,0-1.75-.1l-9.13,4.93c-.56.3-.68.84-.28,1.2l5.55,4.92A1.67,1.67,0,0,0,152.78,192.4Z"/><path class="cls-14" d="M140.33,199.14l9.2-5c.56-.3.69-.84.28-1.21L144.27,188a1.64,1.64,0,0,0-1.75-.1l-9.16,5c-.56.3-.69.84-.29,1.21l5.5,4.95A1.63,1.63,0,0,0,140.33,199.14Z"/><path class="cls-14" d="M127.83,205.92l9.24-5c.56-.31.69-.85.29-1.22l-5.5-5a1.65,1.65,0,0,0-1.75-.11l-9.2,5c-.56.31-.69.85-.29,1.22l5.45,5A1.65,1.65,0,0,0,127.83,205.92Z"/><path class="cls-14" d="M115.28,212.72l9.28-5c.57-.31.7-.86.29-1.23l-5.45-5a1.64,1.64,0,0,0-1.74-.11l-9.24,5c-.56.31-.7.86-.3,1.23l5.41,5A1.61,1.61,0,0,0,115.28,212.72Z"/><path class="cls-14" d="M87.18,228,112,214.5c.57-.31.71-.86.3-1.24l-5.4-5a1.62,1.62,0,0,0-1.74-.11L80.45,221.46c-.57.31-.72.86-.33,1.24l5.31,5.12A1.59,1.59,0,0,0,87.18,228Z"/><path class="cls-14" d="M132.61,192.2l58.29-31.49c.55-.3.65-.82.24-1.17l-5.64-4.71a1.67,1.67,0,0,0-1.74-.09l-58,31.26c-.55.3-.68.83-.29,1.19l5.44,4.9A1.64,1.64,0,0,0,132.61,192.2Z"/><path class="cls-14" d="M208.87,151l8.94-4.84c.55-.29.65-.81.22-1.15l-5.73-4.63a1.71,1.71,0,0,0-1.74-.08l-8.91,4.8c-.54.29-.65.8-.23,1.15l5.7,4.66A1.73,1.73,0,0,0,208.87,151Z"/><path class="cls-14" d="M194.07,159l11.64-6.28c.54-.3.65-.82.23-1.17l-5.69-4.66a1.73,1.73,0,0,0-1.75-.09L186.92,153c-.55.3-.66.82-.24,1.16l5.64,4.71A1.68,1.68,0,0,0,194.07,159Z"/><path class="cls-14" d="M114.2,202.15l-9.24,5a1.61,1.61,0,0,1-1.74-.12l-5.34-5c-.39-.37-.25-.91.31-1.21l9.2-5a1.62,1.62,0,0,1,1.73.11l5.38,5C114.89,201.3,114.76,201.84,114.2,202.15Z"/><path class="cls-14" d="M129.37,194l-11.92,6.44a1.62,1.62,0,0,1-1.74-.12l-5.38-4.94c-.39-.36-.26-.9.3-1.2l11.87-6.39a1.62,1.62,0,0,1,1.73.1l5.43,4.9C130.06,193.1,129.93,193.64,129.37,194Z"/><path class="cls-14" d="M245,131.47l8.85-4.78c.53-.29.62-.8.19-1.13L248.2,121a1.76,1.76,0,0,0-1.75-.08l-8.81,4.75c-.54.29-.63.79-.2,1.13l5.81,4.55A1.75,1.75,0,0,0,245,131.47Z"/><path class="cls-14" d="M233,138l8.88-4.79c.54-.29.63-.8.2-1.14l-5.81-4.56a1.75,1.75,0,0,0-1.75-.08l-8.84,4.77c-.54.29-.64.8-.21,1.13l5.77,4.59A1.72,1.72,0,0,0,233,138Z"/><path class="cls-14" d="M221,144.46l8.91-4.81c.55-.29.64-.81.21-1.15l-5.77-4.59a1.71,1.71,0,0,0-1.74-.08l-8.88,4.78c-.54.29-.64.8-.22,1.14l5.74,4.63A1.71,1.71,0,0,0,221,144.46Z"/><path class="cls-14" d="M79.73,220.77l22-11.87c.56-.3.7-.85.31-1.22l-5.33-5a1.62,1.62,0,0,0-1.73-.11L73.08,214.36c-.57.3-.72.85-.33,1.22L78,220.65A1.61,1.61,0,0,0,79.73,220.77Z"/><path class="cls-14" d="M120.27,245.62l-9.51,5.21c-.58.32-.72.9-.31,1.29l2.77,2.67a1.62,1.62,0,0,0,1.8.14l9.54-5.23c.58-.32.71-.9.3-1.29l-2.79-2.65A1.62,1.62,0,0,0,120.27,245.62Z"/><path class="cls-14" d="M133.09,238.6l-9.47,5.19c-.58.31-.72.89-.3,1.28l2.79,2.65a1.64,1.64,0,0,0,1.81.14l9.49-5.21c.58-.32.71-.89.29-1.28l-2.81-2.64A1.66,1.66,0,0,0,133.09,238.6Z"/><path class="cls-14" d="M145.86,231.61l-9.43,5.16c-.58.32-.71.89-.3,1.28l2.82,2.63a1.66,1.66,0,0,0,1.81.13l9.45-5.18c.58-.32.71-.89.29-1.28l-2.84-2.61A1.64,1.64,0,0,0,145.86,231.61Z"/><path class="cls-14" d="M158.58,224.65l-9.4,5.14c-.57.32-.7.88-.28,1.27l2.84,2.61a1.68,1.68,0,0,0,1.81.13l9.42-5.17c.57-.32.69-.88.27-1.27l-2.86-2.59A1.66,1.66,0,0,0,158.58,224.65Z"/><path class="cls-14" d="M171.24,217.71l-9.36,5.12c-.57.32-.69.88-.27,1.26l2.87,2.59a1.68,1.68,0,0,0,1.81.13l9.38-5.15c.57-.31.69-.88.26-1.26l-2.88-2.57A1.7,1.7,0,0,0,171.24,217.71Z"/><path class="cls-14" d="M183.86,210.8l-9.32,5.11c-.57.31-.69.87-.26,1.25l2.88,2.57a1.7,1.7,0,0,0,1.81.12l9.35-5.13c.57-.31.68-.87.25-1.25l-2.9-2.55A1.7,1.7,0,0,0,183.86,210.8Z"/><path class="cls-14" d="M196.42,203.92,187.14,209c-.57.32-.68.87-.25,1.25l2.91,2.55a1.7,1.7,0,0,0,1.81.12l9.31-5.11c.57-.31.68-.87.24-1.24L198.23,204A1.7,1.7,0,0,0,196.42,203.92Z"/><path class="cls-14" d="M208.94,197.07l-9.24,5.06c-.57.31-.68.86-.25,1.24l2.93,2.53a1.74,1.74,0,0,0,1.82.11l9.27-5.08c.56-.31.67-.87.23-1.24l-2.95-2.51A1.72,1.72,0,0,0,208.94,197.07Z"/><path class="cls-14" d="M221.41,190.24l-9.21,5c-.57.31-.67.86-.23,1.23l2.95,2.51a1.74,1.74,0,0,0,1.82.11l9.23-5.06c.56-.31.66-.86.22-1.23l-3-2.49A1.72,1.72,0,0,0,221.41,190.24Z"/><path class="cls-14" d="M233.83,183.44l-9.18,5c-.56.31-.66.86-.22,1.23l3,2.48a1.74,1.74,0,0,0,1.82.11l9.2-5c.56-.31.66-.86.21-1.22l-3-2.47A1.75,1.75,0,0,0,233.83,183.44Z"/><path class="cls-14" d="M246.19,176.67l-9.13,5c-.56.31-.66.85-.22,1.22l3,2.46a1.74,1.74,0,0,0,1.82.11l9.16-5c.56-.31.65-.86.2-1.22l-3-2.45A1.77,1.77,0,0,0,246.19,176.67Z"/><path class="cls-14" d="M258.51,169.92l-9.1,5c-.55.3-.64.84-.2,1.2l3,2.45a1.76,1.76,0,0,0,1.82.1l9.12-5c.56-.31.65-.85.2-1.21l-3-2.43A1.79,1.79,0,0,0,258.51,169.92Z"/><path class="cls-14" d="M270.79,163.2l-9.07,5c-.55.3-.64.84-.19,1.2l3,2.42a1.79,1.79,0,0,0,1.83.11l9.09-5c.55-.31.64-.84.18-1.2l-3.05-2.41A1.79,1.79,0,0,0,270.79,163.2Z"/><path class="cls-14" d="M288.52,153.49l-14.54,8c-.55.31-.63.84-.18,1.2l3.05,2.41a1.81,1.81,0,0,0,1.83.09l14.58-8c.55-.31.62-.84.17-1.19l-3.09-2.38A1.79,1.79,0,0,0,288.52,153.49Z"/><path class="cls-13" d="M140,129l-28.8,15.29a2.19,2.19,0,0,1-2.25,0l31.57-16.76C141,127.93,140.73,128.59,140,129Z"/><polygon class="cls-13" points="288.49 167.24 131.14 253.74 132.51 255.04 289.99 168.42 288.49 167.24"/><path class="cls-18" d="M60.81,219.7l43.36,42.4c3.08,3,9.16,3.5,13.56,1.08L304,160.72c4.15-2.28,4.68-6.29,1.21-8.94l-48.95-37.34Z"/></g></g><path class="cls-12" d="M374,274.89,360.21,267l0,0,0,0-1-.62h0l-25.38-14.65a6.09,6.09,0,0,0-5.5,0L266.7,287.21c-1.53.88-1.53,2.3,0,3.17L292,305h0l1.21.69h0l13.73,7.93a6.09,6.09,0,0,0,5.5,0l30.25-17.46,1.06-.62L374,278.06C375.47,277.18,375.48,275.76,374,274.89Z"/><path class="cls-19" d="M373.82,273.19,359.13,265h0l-25.41-14.67a6.09,6.09,0,0,0-5.5,0l-61.55,35.53c-1.07.62-1.37,1.51-.94,2.29a2.5,2.5,0,0,1,.94-.91l61.55-35.53a6.06,6.06,0,0,1,5.5,0L358,265.65,374.08,275a3,3,0,0,1,1.11,1.06A2.5,2.5,0,0,0,373.82,273.19Z"/><polygon class="cls-13" points="357.53 265.97 357.66 265.89 357.56 265.83 357.53 265.97"/><path class="cls-10" d="M477.69,209.38c-3.18-19.89-44.44-41-66.55-34.75-3.33.94-6.47,3.15-8.66,4.48-7.37,4.51-6.71,12.54,1.93,17.53l37.16,21.46c8.65,5,21.72,5.53,29.2,1.21l2-1.17C476.77,215.84,478.37,212.63,477.69,209.38Z"/><path class="cls-14" d="M477.9,206.34c-.12,2.63-1.78,5.13-5,7l-2,1.16c-7.48,4.32-20.55,3.78-29.19-1.21l-37.16-21.45c-4.59-2.66-7-6-7.14-9.26h0v3.16c.08,3.27,2.49,6.69,7.14,9.37l37.16,21.46c8.64,5,21.71,5.53,29.19,1.21l2-1.17c3.32-1.91,5-4.46,5-7.13v-3.16Z"/><path class="cls-13" d="M477.9,205.7c0,.33.89,4.74-7.07,8.82h0c-7.49,4.32-20.57,3.78-29.22-1.21l-37.19-21.45c-4.25-2.46-6.64-5.53-7.08-8.54.14,3.23,2.55,6.6,7.14,9.25L441.64,214c8.64,5,21.71,5.53,29.19,1.21l2-1.16c3.32-1.92,5-4.46,5-7.14Z"/><path class="cls-11" d="M477.75,204.59c-3.18-19.88-44.43-41-66.54-34.75-3.34.94-6.48,3.15-8.66,4.49-7.37,4.5-6.71,12.54,1.93,17.53l37.16,21.45c8.64,5,21.71,5.53,29.19,1.21l2-1.16C476.84,211.06,478.43,207.84,477.75,204.59Z"/><path class="cls-20" d="M371.82,142.53c11.36,6.56,11.3,17.22-.13,23.82s-29.9,6.63-41.26.08-11.3-17.23.13-23.83S360.46,136,371.82,142.53Z"/><path class="cls-21" d="M380.3,152.52V105.08H322v47.46c-.05,4.33,2.78,8.66,8.48,12,11.36,6.56,29.83,6.53,41.26-.07,5.69-3.29,8.56-7.58,8.61-11.88h0Z"/><path class="cls-22" d="M350.11,105.08H322v47.46c-.05,4.33,2.78,8.66,8.48,12,5.44,3.15,12.52,4.76,19.68,4.88Z"/><path class="cls-23" d="M371.82,93.13c11.36,6.55,11.3,17.22-.13,23.82s-29.9,6.63-41.26.07-11.3-17.22.13-23.82S360.46,86.57,371.82,93.13Z"/><g class="cls-24"><path class="cls-25" d="M337.67,68.7,331.84,61a.08.08,0,0,0-.07,0,.28.28,0,0,0-.26.09.09.09,0,0,0,0,.06l.08,9.75Z"/><path class="cls-1" d="M331.77,60.93a.12.12,0,0,0-.08,0l2.94,8.82,3-1.06L331.84,61A.08.08,0,0,0,331.77,60.93Z"/><path class="cls-25" d="M338.09,69h0a1.73,1.73,0,0,0-1.47-1.09,5.51,5.51,0,0,0-4.73,1.59,1.72,1.72,0,0,0-.5,1.71h0l30.72,90.37,6.72-1.91Z"/><path class="cls-1" d="M365.45,160.64l3.38-1L338.09,69h0a1.73,1.73,0,0,0-1.47-1.09,5,5,0,0,0-2.55.23Z"/><path class="cls-26" d="M367.38,158.62c1.56.32,2,1.53.94,2.72a5.48,5.48,0,0,1-4.71,1.58c-1.56-.31-2-1.52-.93-2.71A5.51,5.51,0,0,1,367.38,158.62Z"/><path class="cls-27" d="M354.92,67.12l-2.37-9.4s0,0,0-.06a.31.31,0,0,0-.28,0s-.05,0-.05,0l-3.72,9Z"/><path class="cls-28" d="M352.51,57.66l-.08,0-.72,9.27,3.21.21-2.37-9.4S352.53,57.68,352.51,57.66Z"/><path class="cls-27" d="M355.19,67.56h0a1.72,1.72,0,0,0-.92-1.58,5.55,5.55,0,0,0-5-.37A1.72,1.72,0,0,0,348.16,67h0l-6.81,95.2,6.93.86Z"/><path class="cls-28" d="M344.78,162.62l3.49.43,6.92-95.49h0a1.72,1.72,0,0,0-.92-1.58,5.21,5.21,0,0,0-2.44-.78Z"/><path class="cls-29" d="M347.35,161.52c1.31.89,1.23,2.17-.19,2.86a5.5,5.5,0,0,1-5-.37c-1.32-.89-1.23-2.17.19-2.86A5.48,5.48,0,0,1,347.35,161.52Z"/><path class="cls-30" d="M363.78,67.47l-2.5-9.35s0,0,0-.07a.31.31,0,0,0-.28,0l-.05,0-3.58,9.07Z"/><path class="cls-31" d="M361.23,58.05l-.07,0-.59,9.28,3.21.16-2.5-9.35S361.26,58.07,361.23,58.05Z"/><path class="cls-30" d="M364.06,67.91h0a1.71,1.71,0,0,0-.95-1.56,5.51,5.51,0,0,0-5-.3,1.73,1.73,0,0,0-1.1,1.4h0l-5.46,95.29,6.95.75Z"/><path class="cls-31" d="M355,163.11l3.5.38,5.55-95.58h0a1.71,1.71,0,0,0-.95-1.56,5,5,0,0,0-2.44-.74Z"/><path class="cls-32" d="M357.56,162c1.33.88,1.26,2.16-.15,2.87a5.5,5.5,0,0,1-5-.3c-1.33-.87-1.26-2.15.15-2.86A5.5,5.5,0,0,1,357.56,162Z"/></g><g id="_Group_" data-name="&lt;Group&gt;"><polygon class="cls-33" points="292.87 147.9 292.87 151.46 244.94 177.89 244.94 174.33 292.87 147.9"/><polygon class="cls-34" points="292.87 132.7 292.87 136.26 263.99 152.18 263.99 148.62 292.87 132.7"/><polygon class="cls-35" points="292.87 117.48 292.87 121.06 244.94 147.49 244.94 143.91 292.87 117.48"/><polygon class="cls-33" points="292.87 102.28 292.87 105.84 231.89 139.47 231.89 135.91 292.87 102.28"/><polygon class="cls-35" points="292.87 56.68 292.87 60.24 244.94 86.67 244.94 83.11 292.87 56.68"/><polygon class="cls-34" points="292.87 41.48 292.87 45.04 263.99 60.96 263.99 57.41 292.87 41.48"/><polygon class="cls-33" points="260.59 150.5 260.59 154.06 253.76 157.82 253.76 154.27 260.59 150.5"/><polygon class="cls-33" points="260.59 59.28 260.59 62.84 253.76 66.61 253.76 63.05 260.59 59.28"/><polygon class="cls-35" points="251.19 155.69 251.19 159.25 222.31 175.17 222.31 171.61 251.19 155.69"/><polygon class="cls-35" points="251.19 64.47 251.19 68.03 222.31 83.95 222.31 80.39 251.19 64.47"/><polygon class="cls-33" points="241.53 176.21 241.53 179.77 215.64 194.05 215.64 190.49 241.53 176.21"/><polygon class="cls-33" points="241.53 145.79 241.53 149.37 215.64 163.65 215.64 160.07 241.53 145.79"/><polygon class="cls-33" points="241.53 84.99 241.53 88.55 215.64 102.83 215.64 99.27 241.53 84.99"/><polygon class="cls-36" points="229.03 137.49 229.03 141.05 208.8 152.21 208.8 148.65 229.03 137.49"/><polygon class="cls-36" points="218.97 173.45 218.97 177.01 198.73 188.17 198.73 184.61 218.97 173.45"/><polygon class="cls-37" points="218.97 82.23 218.97 85.79 198.73 96.96 198.73 93.4 218.97 82.23"/><polygon class="cls-33" points="213.08 191.9 213.08 195.46 203.27 200.87 203.27 197.31 213.08 191.9"/><polygon class="cls-33" points="213.08 161.49 213.08 165.06 203.27 170.47 203.27 166.9 213.08 161.49"/><polygon class="cls-33" points="213.08 100.69 213.08 104.25 203.27 109.66 203.27 106.1 213.08 100.69"/><polygon class="cls-35" points="205.45 150.49 205.45 154.05 176.59 169.97 176.59 166.41 205.45 150.49"/><polygon class="cls-33" points="199.92 199.16 199.92 202.72 160.63 224.39 160.63 220.83 199.92 199.16"/><polygon class="cls-33" points="199.92 168.75 199.92 172.32 160.63 193.99 160.63 190.41 199.92 168.75"/><polygon class="cls-35" points="199.92 138.34 199.92 141.9 177.05 154.51 177.05 150.96 199.92 138.34"/><polygon class="cls-33" points="199.92 123.14 199.92 126.7 160.63 148.37 160.63 144.81 199.92 123.14"/><polygon class="cls-33" points="199.92 107.94 199.92 111.5 160.63 133.17 160.63 129.61 199.92 107.94"/><polygon class="cls-33" points="195.88 186.19 195.88 189.75 134.91 223.38 134.91 219.82 195.88 186.19"/><polygon class="cls-33" points="195.88 94.97 195.88 98.53 134.91 132.16 134.91 128.6 195.88 94.97"/><polygon class="cls-33" points="174.19 152.53 174.19 156.09 134.91 177.76 134.91 174.2 174.19 152.53"/><polygon class="cls-33" points="174.01 167.83 174.01 171.39 167.19 175.16 167.19 171.6 174.01 167.83"/><polygon class="cls-34" points="163.77 173.48 163.77 177.04 134.91 192.96 134.91 189.4 163.77 173.48"/><polygon class="cls-33" points="157.77 222.41 157.77 225.97 134.91 238.58 134.91 235.02 157.77 222.41"/><polygon class="cls-37" points="157.77 191.99 157.77 195.56 134.91 208.18 134.91 204.6 157.77 191.99"/><polygon class="cls-35" points="157.77 146.39 157.77 149.95 134.91 162.56 134.91 159 157.77 146.39"/><polygon class="cls-37" points="157.77 131.19 157.77 134.75 134.91 147.36 134.91 143.8 157.77 131.19"/></g></g></g></g></svg>