<?xml version="1.0" encoding="utf-8"?>
<!-- Generator: Adobe Illustrator 22.0.1, SVG Export Plug-In . SVG Version: 6.00 Build 0)  -->
<svg version="1.1" id="Layer_1" xmlns="http://www.w3.org/2000/svg" xmlns:xlink="http://www.w3.org/1999/xlink" x="0px" y="0px"
	 viewBox="0 0 1072 709.7" style="enable-background:new 0 0 1072 709.7;" xml:space="preserve">
<style type="text/css">
	.st0{clip-path:url(#SVGID_2_);}
	.st1{fill:#351A4F;}
	.st2{fill:#412061;}
	.st3{fill:#613160;}
	.st4{fill:#814360;}
	.st5{fill:#A2545F;}
	.st6{fill:#FFFFFF;}
</style>
<title>Asset 3bg_design</title>
<g id="Layer_2_1_">
	<g id="BACKGROUND_2">
		<g>
			<defs>
				<rect id="SVGID_1_" x="158.1" width="750" height="446.7"/>
			</defs>
			<clipPath id="SVGID_2_">
				<use xlink:href="#SVGID_1_"  style="overflow:visible;"/>
			</clipPath>
			<g class="st0">
				<rect x="158.1" class="st1" width="750" height="443.1"/>
				<path class="st2" d="M1035.4,9c48.8,115.5,33.2,246.7,16.8,371c-9.2,69.3-20,142.6-64.6,196.3c-45.4,54.8-118.8,79.2-189.7,84.5
					s-142-6.1-213-10c-106.3-5.8-212.8,5.2-315.6,32.7c-38.6,10.3-76.9,23-116.7,25.7s-82.4-6-111.5-33.3
					C-3.5,634.1-3.5,564.1,3.3,503.3c13.4-118.8,32.5-242.9,70.8-356.1c17-50.3,74.1-77.8,127.2-78.3s103.8,20.2,153.6,38.7
					s102.7,35.5,155.2,27.5c34.5-5.3,67.5-21.2,102.4-19.8c40.2,1.7,75.7,26.1,114.5,36.8c56.1,15.4,117,1.1,168.1-26.7
					s94.2-67.9,136.6-107.7"/>
				<path class="st3" d="M64.1,291.6c17.4,19.6,50.7,15.2,71.4-1s32.7-40.6,47.5-62.3s35.4-42.6,61.6-44.7c38.3-3,70.6,35.2,109,33
					c42.4-2.5,76.2-53.6,117-41.9c33.7,9.6,42.2,54.5,69.9,76.1c30.1,23.5,75.6,13.1,105.7-10.4s50.3-57.1,75.9-85.4
					s61.5-52.6,99.3-47.2c51.3,7.4,78.9,62.8,119.5,95c36.3,28.8,86.6,38.9,131.2,26.5c-4.1,63.6-55.6,124.5-109.9,157.9
					s-118.9,46.2-182.5,50.6s-127.6,0.8-191.2,4.4c-78.5,4.5-156.1,19.8-234.4,26.6s-159.4,4.7-232.6-24.3
					c-33.3-13.2-66.1-33.6-81.6-65.9S31.7,306.7,64.1,291.6z"/>
				<path class="st4" d="M960,197.6c-27-27.5-58.3-53.6-96.2-60.5c-58-10.5-113.6,26.5-156.8,66.6S622.8,291,566.4,308.2
					c-45.1,13.8-96.4,5.5-134.8-21.8c-18.3-13-34.1-30.1-54.7-39c-34.8-14.9-75.3-3-108.9,14.5s-65.2,40.4-102.1,49
					s-82.5-2.9-97.7-37.5c-10.7,59.2,18.4,116.1,63.7,155.8c42,37,95.6,57.9,149.9,72.2c95.9-23.3,194.7-32.4,293.2-27
					c71,3.9,142,15.2,213,10s144.3-29.7,189.7-84.5c31.2-37.6,45.8-84.7,55-133.3C1005.4,247.6,983.4,221.5,960,197.6z"/>
				<path class="st5" d="M78.8,254.6c0.6,30.6,18.3,60.2,45,75.3s61.2,14.9,87.7-0.4c33-19,55.6-59.7,93.6-62
					c46.9-3,75.9,54.4,121.4,66c33.3,8.5,67.2-9.2,101.5-11.7c50.2-3.6,102.7,25.4,149,5.7c27.7-11.8,45.6-38.4,63.7-62.4
					s40.8-48.4,70.7-52.1c21.5-2.6,42.7,6.1,62,16c50.3,25.7,95.8,59.8,134.6,100.9c-13.1,33.9-41.4,60.5-70.8,82
					c-110.4,81.1-246.1,127.2-383.1,130.1c-85.3,1.8-170.1-12.7-253.8-29.5c-43.6-8.8-87.4-18.3-127.6-37.3S95.9,426.8,76.2,387
					S52.5,290.5,78.8,254.6z"/>
				<path class="st6" d="M574.9,474.5c71,3.9,142,15.2,213,10s144.3-29.7,189.7-84.5c15.5-18.6,26.9-39.6,35.6-62
					c-32.2-23.5-65.2-46.5-102.2-61.3c-40.2-16.1-86.3-21.7-126.6-6c-38.2,14.9-66.9,46.6-98.2,73.1s-71.2,49.5-111.4,41.2
					c-24.2-5-45.2-20.8-69.6-24.8c-39-6.5-79.1,18.1-117.5,8.3c-22.9-5.9-40.9-23.1-59.8-37.4s-42.5-26.8-65.4-20.7
					c-22.3,5.9-36.6,27.1-56,39.6c-36.3,23.5-84.9,13.1-108.4-23.3c-5.8-8.9-9.7-19-11.5-29.5c-5.6,16.4-9.7,33.2-12.2,50.4
					c10.9,31,31.5,59.1,57.2,81.7c42,37,95.6,57.9,149.9,72.2C377.6,478.2,476.4,469.1,574.9,474.5z"/>
			</g>
		</g>
	</g>
</g>
</svg>
