<svg xmlns="http://www.w3.org/2000/svg" viewBox="0 0 37.47 37.47"><defs><style>.cls-1,.cls-3{fill:#ffd643;}.cls-1{opacity:0.2;}.cls-2{opacity:0.6;}.cls-4{fill:#fff;}</style></defs><title>Asset 1btn-down</title><g id="Layer_2" data-name="Layer 2"><g id="BACKGROUND_2" data-name="BACKGROUND 2"><path class="cls-1" d="M37.47,18.73A18.74,18.74,0,1,1,18.74,0,18.74,18.74,0,0,1,37.47,18.73Z"/><g class="cls-2"><circle class="cls-3" cx="18.74" cy="18.73" r="11.89" transform="translate(-7.22 24.06) rotate(-56.6)"/></g><path class="cls-4" d="M19.34,26.15l3-3a.79.79,0,0,0,.06-1.08.76.76,0,0,0-1.11,0l-1.37,1.36a.24.24,0,0,1-.41-.17V18.31a.79.79,0,0,0-.73-.81.77.77,0,0,0-.81.77v4.95a.24.24,0,0,1-.41.17l-1.33-1.33A.8.8,0,0,0,15.14,22a.76.76,0,0,0,0,1.11l3,3A.84.84,0,0,0,19.34,26.15Z"/><path class="cls-4" d="M19.51,15.42v-.88a.77.77,0,1,0-1.54,0v.88a.77.77,0,0,0,1.54,0Z"/><path class="cls-4" d="M19.51,11.93v-.09a.77.77,0,0,0-1.54,0v.09a.77.77,0,0,0,1.54,0Z"/></g></g></svg>