<svg xmlns="http://www.w3.org/2000/svg" xmlns:xlink="http://www.w3.org/1999/xlink" viewBox="0 0 757.04 455.68"><defs><style>.cls-1{fill:none;}.cls-2{isolation:isolate;}.cls-3{fill:#1b1c63;opacity:0.3;}.cls-4{fill:#dce7f5;}.cls-5{fill:#fff;}.cls-6,.cls-9{fill:#cdd5ea;}.cls-6{opacity:0.4;mix-blend-mode:multiply;}.cls-7{fill:#9fadd3;}.cls-8{fill:#361a53;}.cls-10{clip-path:url(#clip-path);}.cls-11{opacity:0.6;}.cls-12{clip-path:url(#clip-path-2);}.cls-13{clip-path:url(#clip-path-3);}.cls-14,.cls-17,.cls-18,.cls-20,.cls-22,.cls-23{fill:#fc6591;}.cls-15{fill:#5b3a89;}.cls-16{clip-path:url(#clip-path-4);}.cls-17{opacity:0.7;}.cls-18{opacity:0.91;}.cls-19{clip-path:url(#clip-path-5);}.cls-20{opacity:0.8;}.cls-21{clip-path:url(#clip-path-6);}.cls-22{opacity:0.6;}.cls-23{opacity:0.84;}.cls-24{clip-path:url(#clip-path-7);}.cls-25{fill:#262768;}.cls-26{clip-path:url(#clip-path-8);}.cls-27{clip-path:url(#clip-path-9);}</style><clipPath id="clip-path"><polygon class="cls-1" points="361.62 139.79 373.95 132.63 420.24 159.36 407.91 166.52 361.62 139.79"/></clipPath><clipPath id="clip-path-2"><polygon class="cls-1" points="341.36 146.46 347.37 142.97 413.18 180.97 407.18 184.46 341.36 146.46"/></clipPath><clipPath id="clip-path-3"><polygon class="cls-1" points="611.48 142.25 622.69 135.73 633.88 142.19 622.67 148.71 611.48 142.25"/></clipPath><clipPath id="clip-path-4"><polygon class="cls-1" points="218.7 307.22 315.58 250.92 413.1 307.23 316.22 363.53 218.7 307.22"/></clipPath><clipPath id="clip-path-5"><polygon class="cls-1" points="444.95 177.43 541.84 121.12 639.36 177.43 542.48 233.74 444.95 177.43"/></clipPath><clipPath id="clip-path-6"><polygon class="cls-1" points="330.61 241.16 427.49 184.86 525.01 241.16 428.13 297.47 330.61 241.16"/></clipPath><clipPath id="clip-path-7"><polygon class="cls-1" points="399.02 233.85 418.37 222.61 459.15 246.16 439.81 257.4 399.02 233.85"/></clipPath><clipPath id="clip-path-8"><polygon class="cls-1" points="287.65 302.25 306.99 291.01 347.91 314.64 328.57 325.88 287.65 302.25"/></clipPath><clipPath id="clip-path-9"><polygon class="cls-1" points="514.89 170.44 534.16 159.24 575.13 182.9 555.86 194.09 514.89 170.44"/></clipPath></defs><title>Asset 1</title><g class="cls-2"><g id="Layer_2" data-name="Layer 2"><g id="OBJECTS"><path class="cls-3" d="M756.75,141.56a36.58,36.58,0,0,0-1-5.06,33.5,33.5,0,0,0-4.23-9.38,28.85,28.85,0,0,0-2.49-3.33,49.44,49.44,0,0,0-3.79-3.87,61,61,0,0,0-5-3.87c-.82-.58-2-1.24-2.86-1.77a1.48,1.48,0,0,0-1.58,0c21,12.13,21.12,31.8.24,43.93L279.13,423.77c-20.87,12.13-54.84,12.13-75.84,0h0L25,320.83C4,308.7,3.87,289,24.74,276.9a1.51,1.51,0,0,0-1.61,0c-1.61,1-3.72,2.4-5.26,3.51a25,25,0,0,0-2.39,2,44.38,44.38,0,0,0-3.36,3.36,36.53,36.53,0,0,0-3.29,4.41,33.42,33.42,0,0,0-3.91,9,36.62,36.62,0,0,0-1,5,39.35,39.35,0,0,0-.28,4.53v2.48a20.88,20.88,0,0,0,.6,5,20.88,20.88,0,0,1-.6-5,36.19,36.19,0,0,0,1.4,10.21,33.48,33.48,0,0,0,3.83,8.57,34.58,34.58,0,0,0,2.66,3.66,56.79,56.79,0,0,0,4.06,4.15,53.47,53.47,0,0,0,5,3.78c.81.57,2,1.22,2.8,1.74h0L201.64,446.13a57,57,0,0,0,7.23,3.54c2.22.86,5.22,1.89,7.49,2.61,1.18.38,2.8.76,4,1.05a93,93,0,0,0,20.83,2.35,91.64,91.64,0,0,0,20.88-2.36c1.23-.3,2.88-.7,4.09-1.08,2.26-.73,5.24-1.77,7.44-2.63,1.17-.45,2.67-1.17,3.78-1.72s2.3-1.24,3.28-1.77a3.83,3.83,0,0,0,1.42-2,3.83,3.83,0,0,1-1.42,2l182.75-106.2,274.12-159.3c1.56-1,3.62-2.26,5.07-3.36s3.21-2.71,4.51-3.95a29.71,29.71,0,0,0,2.73-3.09c.81-1.06,1.81-2.55,2.5-3.69a33,33,0,0,0,3.29-7.7,37,37,0,0,0,1-5,37.82,37.82,0,0,0,.35-5h0v-2.48A39.27,39.27,0,0,0,756.75,141.56Z"/><path class="cls-4" d="M476.3,9.56a1.51,1.51,0,0,1,1.61,0c20.88-12.14,54.85-12.13,75.86,0a1.48,1.48,0,0,1,1.58,0A59.75,59.75,0,0,0,548.12,6c-2.22-.85-5.22-1.88-7.49-2.61-1.18-.37-2.8-.75-4-1A93.07,93.07,0,0,0,515.78,0,91.71,91.71,0,0,0,494.9,2.36c-1.23.3-2.88.69-4.09,1.08-2.26.72-5.24,1.77-7.45,2.63-1.16.45-2.66,1.17-3.78,1.72S477.29,9,476.3,9.56Z"/><path class="cls-4" d="M555.35,9.55l17.82,10.29L591,30.13l17.83,10.3,17.83,10.29L644.49,61l17.83,10.29L680.15,81.6,698,91.9l17.83,10.29,17.83,10.29a1.53,1.53,0,0,0-1.58,0L553.77,9.6A1.48,1.48,0,0,1,555.35,9.55Z"/><path class="cls-4" d="M19.43,275.06l45.69-26.55L110.8,222l45.69-26.55,45.69-26.55,45.69-26.55,45.68-26.55,45.69-26.55,45.69-26.55,45.68-26.55L476.3,9.56a1.51,1.51,0,0,1,1.61,0L21,275.1A1.53,1.53,0,0,0,19.43,275.06Z"/><path class="cls-4" d="M732.06,112.53c21,12.13,21.12,31.81.24,43.94L275.42,422c-20.87,12.13-54.83,12.13-75.84,0L21.29,319C.28,306.91.16,287.23,21,275.1L477.91,9.6c20.88-12.14,54.85-12.13,75.86,0Z"/><path class="cls-5" d="M684.37,162.78c2.15,1.24,2.16,3.26,0,4.5L287.7,397.82a8.6,8.6,0,0,1-7.78,0L55.42,268.19c-2.16-1.24-2.17-3.26,0-4.51L452.08,33.14a8.57,8.57,0,0,1,7.78,0Z"/><path class="cls-5" d="M685.07,162.37c2.54,1.46,2.55,3.85,0,5.32L288.41,398.23a10.13,10.13,0,0,1-9.19,0L54.71,268.6c-2.55-1.47-2.56-3.86,0-5.33L451.37,32.73a10.16,10.16,0,0,1,9.19,0ZM287.7,397.82,684.39,167.28c2.14-1.24,2.13-3.26,0-4.51L459.86,33.15a8.57,8.57,0,0,0-7.78,0L55.38,263.68c-2.13,1.24-2.12,3.27,0,4.51l224.5,129.63a8.6,8.6,0,0,0,7.78,0"/><path class="cls-6" d="M145.46,333c10.72,6.19,10.79,16.22.13,22.42s-28,6.19-38.71,0S96.1,339.21,106.75,333,134.74,326.83,145.46,333Z"/><path class="cls-7" d="M109.47,335.76c10.67-6.2,28-6.2,38.71,0a22.48,22.48,0,0,1,2.89,2,19,19,0,0,0-5.63-4.72c-10.72-6.19-28-6.2-38.7,0-9.58,5.56-10.47,14.24-2.76,20.43C99.43,347.62,101.24,340.54,109.47,335.76Z"/><path class="cls-8" d="M624.38,85.8c2.15,1.24,2.16,3.25,0,4.49a8.57,8.57,0,0,1-7.75,0L577.83,67.86c-2.15-1.24-2.16-3.25,0-4.48a8.56,8.56,0,0,1,7.76,0Z"/><path class="cls-8" d="M563.11,50.42c2.14,1.24,2.15,3.24,0,4.49a8.56,8.56,0,0,1-7.73,0c-2.15-1.25-2.16-3.25,0-4.49A8.56,8.56,0,0,1,563.11,50.42Z"/><path class="cls-9" d="M753.09,139.74a35.52,35.52,0,0,0-1-5.06,33.53,33.53,0,0,0-1.93-5.25,34.52,34.52,0,0,0-2.3-4.13,28.13,28.13,0,0,0-2.49-3.34,51.25,51.25,0,0,0-3.79-3.87,58.81,58.81,0,0,0-5-3.86c-.82-.59-2-1.24-2.86-1.78a1.53,1.53,0,0,0-1.58,0c21,12.13,21.12,31.8.24,43.94L275.48,421.94c-20.87,12.13-54.84,12.13-75.84,0h0L21.35,319c-21-12.13-21.13-31.81-.26-43.94a1.53,1.53,0,0,0-1.61,0c-1.61,1-3.72,2.41-5.26,3.51a26.6,26.6,0,0,0-2.39,2,44.51,44.51,0,0,0-3.36,3.37,36.65,36.65,0,0,0-3.29,4.4,33.59,33.59,0,0,0-3.91,9,36.32,36.32,0,0,0-1,5A39.18,39.18,0,0,0,0,306.78v2.48a20.32,20.32,0,0,0,.6,4.95,20.32,20.32,0,0,1-.6-4.95,36.13,36.13,0,0,0,1.4,10.21,33.43,33.43,0,0,0,3.83,8.58,35.65,35.65,0,0,0,2.66,3.66A54.71,54.71,0,0,0,12,335.85a55.38,55.38,0,0,0,4.95,3.79c.81.57,2,1.21,2.8,1.73h0L198,444.31a58.67,58.67,0,0,0,7.23,3.54c2.22.85,5.22,1.89,7.49,2.61,1.18.38,2.8.76,4,1.05a93.15,93.15,0,0,0,20.84,2.34,91.64,91.64,0,0,0,20.88-2.36c1.23-.3,2.88-.69,4.09-1.08,2.26-.72,5.24-1.77,7.44-2.62,1.17-.45,2.67-1.17,3.78-1.73s2.3-1.23,3.28-1.76a3.83,3.83,0,0,0,1.42-2,3.83,3.83,0,0,1-1.42,2L459.77,338.1,733.89,178.79c1.56-.95,3.62-2.25,5.07-3.36s3.21-2.7,4.51-3.94a29.82,29.82,0,0,0,2.73-3.1,44.06,44.06,0,0,0,2.5-3.68A33.11,33.11,0,0,0,752,157a36.83,36.83,0,0,0,1-5,38.08,38.08,0,0,0,.35-5h0v-2.48A39.17,39.17,0,0,0,753.09,139.74Z"/><g class="cls-2"><g class="cls-10"><path class="cls-5" d="M377.69,135a9.81,9.81,0,0,0-5.05-1.1l-.1.1,0,.1.17.06a8.94,8.94,0,0,1,4.64,1c1.84,1.06,1.9,2.42.33,3.33a6,6,0,0,1-5.48,0l-2.36-1.36a.28.28,0,0,0-.25,0l-.07,0c-.07,0-.07.1,0,.14l2.37,1.36c1.87,1.08,1.72,2.59.33,3.4a7,7,0,0,1-6.76-.33c-2-1.16-1.88-2.31-1.87-2.77a.09.09,0,0,0,0-.07l-.09,0h-.16c-.11,0-.14,0-.16.1,0,.48-.16,1.71,2,3a7.68,7.68,0,0,0,7.38.33,1.84,1.84,0,0,0,.49-3.12,6.84,6.84,0,0,0,5-.42c1.74-1,1.66-2.53-.35-3.69"/><path class="cls-5" d="M394.3,144.37l-7.63-4.4a.25.25,0,0,0-.24,0l-.07,0a.08.08,0,0,0,0,.15l3.63,2.1-11.72,6.81c-.07,0-.07.1,0,.14l.07,0a.28.28,0,0,0,.25,0l11.72-6.81,3.67,2.12a.28.28,0,0,0,.25,0l.07-.05c.07,0,.07-.09,0-.14"/><path class="cls-5" d="M384.06,152.39c-1.2-.69-1.37-1.66-.09-2.4a5.08,5.08,0,0,1,4.83.39,6.49,6.49,0,0,1,1.66,1.42l-2.5,1.46a8.11,8.11,0,0,1-3.9-.87m7.75-3.62a8.45,8.45,0,0,0-2.88-1,.14.14,0,0,0-.18.06l0,.07s0,.07,0,.09l.1,0a7.77,7.77,0,0,1,2.65.93c1.49.86,1.3,1.49-.07,2.29l-.65.37a6,6,0,0,0-1.66-1.42,5.77,5.77,0,0,0-5.46-.4c-1.45.85-1.27,2,.1,2.77a9,9,0,0,0,3.78.94l-.78.45c-.07,0-.07.1,0,.14l.07,0a.26.26,0,0,0,.24,0l4.67-2.71c1.58-.92,1.79-1.67.08-2.66"/><path class="cls-5" d="M398.68,152.74a4.48,4.48,0,0,0-4.15-.33c-1,.57-.7,1.28.42,2.43.95,1,1.64,1.78.65,2.36a4.19,4.19,0,0,1-3.8-.34,2.49,2.49,0,0,1-1.41-1.64s0-.06-.05-.07a.18.18,0,0,0-.11,0l-.2,0-.07.1a2.68,2.68,0,0,0,1.52,1.79,5,5,0,0,0,4.47.36c1.27-.73.36-1.65-.63-2.69s-1.28-1.63-.46-2.1a3.72,3.72,0,0,1,3.5.31,2.9,2.9,0,0,1,1.31,1.34s0,.05.05.06a.32.32,0,0,0,.14,0l.14,0,.11-.1a3,3,0,0,0-1.43-1.47"/><path class="cls-5" d="M408.71,152.7l-.07,0a.28.28,0,0,0-.25,0l-11.91,6.93c-.07,0-.07.1,0,.14l.07.05a.29.29,0,0,0,.24,0l3.6-2.09,1,5,.15.06h.19l.14-.1-1-4.82,7.31.85.17-.06.05-.11-.12-.09-7.58-.88,8-4.66c.07,0,.07-.1,0-.14"/><path class="cls-5" d="M412.55,160.75a4.46,4.46,0,0,0-4.14-.32c-1,.57-.7,1.27.42,2.42.94,1,1.64,1.79.65,2.36a4.16,4.16,0,0,1-3.8-.34,2.49,2.49,0,0,1-1.41-1.64.11.11,0,0,0-.06-.07.16.16,0,0,0-.1,0h-.21l-.07.1a2.71,2.71,0,0,0,1.53,1.79,5,5,0,0,0,4.46.36c1.27-.73.37-1.65-.62-2.69s-1.28-1.62-.46-2.1a3.76,3.76,0,0,1,3.49.31,2.85,2.85,0,0,1,1.32,1.35l.05.06a.32.32,0,0,0,.14,0l.14,0,.1-.11a3,3,0,0,0-1.43-1.47"/></g></g><g class="cls-11"><g class="cls-2"><g class="cls-12"><path class="cls-5" d="M349.59,144.33l-.45-.26a.34.34,0,0,0-.26,0l-3.18,1.86a1.6,1.6,0,0,1-1.53.1.49.49,0,0,1-.27-.5.11.11,0,0,0,0-.1l-.15,0-.51,0-.18.09c0,.14-.06.53.54.88a2.94,2.94,0,0,0,2.86-.06l3.18-1.85a.08.08,0,0,0,0-.15"/><path class="cls-5" d="M349.17,147.7l2.67-.6,0,0-1,1.55-1.69-1m4.07-1.34-.07,0-.19,0-6.61,1.43c-.13,0-.16.11-.06.17l.42.24a.42.42,0,0,0,.26,0l1.34-.3,2.21,1.28-.5.78c0,.05,0,.1.06.15l.42.24a.25.25,0,0,0,.3,0l2.46-3.83,0-.11"/><path class="cls-5" d="M357.07,148.58l-.16-.1a.3.3,0,0,0-.26,0l-4.52,2.63a.08.08,0,0,0,0,.15l.42.25a.34.34,0,0,0,.26,0l3.28-1.91h0l-.54,3.72.18.1a.3.3,0,0,0,.26,0l4.53-2.63a.08.08,0,0,0,0-.15l-.44-.25a.31.31,0,0,0-.25,0l-3.19,1.85h0l.43-3.66"/><path class="cls-5" d="M366.14,153.89l-.46-.26a.28.28,0,0,0-.25,0l-2.8,1.62a2.42,2.42,0,0,1-2.32,0c-.69-.4-.6-.95.08-1.34l2.78-1.62a.08.08,0,0,0,0-.15l-.46-.26a.3.3,0,0,0-.26,0l-2.83,1.64c-1,.6-1.05,1.51,0,2.13a3.93,3.93,0,0,0,3.68,0l2.83-1.64a.08.08,0,0,0,0-.15"/><path class="cls-5" d="M365.77,157.28l2.67-.59,0,0-1,1.55-1.69-1m4.07-1.33-.07,0-.19,0L363,157.31c-.13,0-.16.12-.06.18l.42.24a.35.35,0,0,0,.26,0l1.33-.3,2.22,1.29-.5.77c0,.06,0,.1.06.15l.42.25a.23.23,0,0,0,.3,0l2.46-3.82,0-.11"/><path class="cls-5" d="M371.73,159.77l1.64-1,1.2.7c.44.25.47.68,0,.94a1.86,1.86,0,0,1-1.66,0l-1.21-.7m3.55-.6-1.84-1.06a.27.27,0,0,0-.26,0l-4.46,2.59a.08.08,0,0,0,0,.15l.44.26a.28.28,0,0,0,.25,0l1.72-1,1,.59-.88,1.56,0,.09.53.31a.25.25,0,0,0,.32-.05l.78-1.52a3.38,3.38,0,0,0,2.37-.22c.8-.47.77-1.22,0-1.69"/><path class="cls-5" d="M381.62,162.83l-.5-.29-.17,0-2.95.29.49-1.7-.05-.1-.49-.29c-.11-.06-.28,0-.31,0L377,163l-2.14,1.24a.08.08,0,0,0,0,.15l.44.26a.3.3,0,0,0,.26,0l2.15-1.25,3.85-.37c.14,0,.19-.12.08-.18"/><path class="cls-5" d="M386.18,165.54a4,4,0,0,0-2-.38l-.16.11v.26l.18.11a2.76,2.76,0,0,1,1.31.23c.6.35.44.71.1.91a3.58,3.58,0,0,1-1.5.28c-1.09.05-2.65.14-3.72.18l-.17.1c-.07,0-.08.11,0,.15l2.62,1.52a.39.39,0,0,0,.26,0l.32-.19a.08.08,0,0,0,0-.15l-1.73-1,2.66-.12a4.34,4.34,0,0,0,2-.39c.71-.41.8-1.06-.16-1.62"/><path class="cls-5" d="M390.36,168a3.94,3.94,0,0,0-2-.38l-.16.11V168l.18.11a2.87,2.87,0,0,1,1.31.23c.6.35.44.71.1.91a3.58,3.58,0,0,1-1.5.28c-1.09.05-2.65.14-3.72.18l-.18.1a.08.08,0,0,0,0,.15l2.62,1.51a.28.28,0,0,0,.25,0l.33-.18a.08.08,0,0,0,0-.15l-1.73-1,2.67-.12a4.33,4.33,0,0,0,2-.39c.71-.41.81-1.06-.17-1.62"/><path class="cls-5" d="M389.91,172.07a1,1,0,0,0-1,0,.29.29,0,0,0,0,.54,1.88,1.88,0,0,0,.2.08,2.79,2.79,0,0,1-1.4.26c-.12,0-.2,0-.2.07v.12l.17.1a3.84,3.84,0,0,0,2-.4c.58-.33.44-.61.18-.76"/><path class="cls-5" d="M399.05,173a3.91,3.91,0,0,0-2-.38l-.17.11V173l.18.11a2.74,2.74,0,0,1,1.31.23c.6.35.45.71.1.91a3.54,3.54,0,0,1-1.5.28c-1.09.05-2.65.14-3.71.18l-.18.1c-.06,0-.08.11,0,.15l2.62,1.51a.34.34,0,0,0,.26,0l.32-.19a.08.08,0,0,0,0-.15l-1.73-1,2.67-.12a4.43,4.43,0,0,0,2-.39c.71-.41.8-1.06-.17-1.62"/><path class="cls-5" d="M399.62,178.05c-.63-.37-.36-.94.75-1.59a2.88,2.88,0,0,1,2.74-.43c.63.36.35.94-.75,1.58s-2.1.81-2.74.44m4.1-2.38a4,4,0,0,0-4,.4c-1.48.86-1.75,1.72-.68,2.34a4.06,4.06,0,0,0,4-.41c1.47-.85,1.75-1.71.68-2.33"/><path class="cls-5" d="M408,178.22l-.34-.19-1.83-.05-.15.06-.16.19.1.11.8.17-3.42,2c-.06,0-.08.11,0,.15l.42.24a.29.29,0,0,0,.24,0l4.33-2.52c.06,0,.08-.1,0-.14"/><path class="cls-5" d="M407.3,182.57c-.44-.26-.56-.67-.11-.92a2,2,0,0,1,1.66,0c.48.36.41.76.06,1a1.74,1.74,0,0,1-1.61-.07m2.2-1.27c-.45-.35-.4-.65,0-.86a1.55,1.55,0,0,1,1.45,0c.44.26.48.62.07.86a1.63,1.63,0,0,1-1.48,0m2-1.15a2.8,2.8,0,0,0-2.66-.12.72.72,0,0,0-.35,1h0a3.3,3.3,0,0,0-1.94.18c-.73.43-.7,1.1.25,1.65a3,3,0,0,0,2.87.16.75.75,0,0,0,.31-1.12l0,0a2.81,2.81,0,0,0,1.73-.2c.74-.43.62-1.07-.22-1.55"/></g></g></g><g class="cls-2"><g class="cls-13"><path class="cls-5" d="M618.61,143.68c-2.28-1.31-2.3-3.46,0-4.78a9.13,9.13,0,0,1,8.24,0c2.29,1.32,2.29,3.46,0,4.78a9.09,9.09,0,0,1-8.25,0m8.9-5.17a10.61,10.61,0,0,0-9.6,0c-2.64,1.53-2.62,4,0,5.56a9.53,9.53,0,0,0,4.33,1.14l0,3.17a.22.22,0,0,0,.14.19.7.7,0,0,0,.33.09c.27,0,.48-.13.48-.28v-3.17a9.41,9.41,0,0,0,4.31-1.14c2.64-1.53,2.62-4,0-5.56"/></g></g><path class="cls-14" d="M450.32,37.18c-10.19-4.19-26.47,5.51-36.18,21.56l-.82,1.35c-9.72,16.06-22.79,21.8-29.06,12.76L359.45,37.1c-6.27-9-17.54-3.08-25,13.25l-8.07,17.57c-7.51,16.33-18.2,21.72-23.78,12l-29.62-51.7c-5.57-9.74-16.9-4.37-25.18,11.94L193.12,147.81c-8.28,16.31-20.4,24.78-26.94,18.84s-16.84,2.46-22.89,18.68l-32.37,86.73L489.66,53.39,450.32,37.18"/><path class="cls-15" d="M494.74,74.26c-10.18-4.2-26.46,5.5-36.18,21.56l-.82,1.35C448,113.22,435,119,428.68,109.92L403.87,74.17c-6.27-9-17.54-3.07-25,13.26L370.76,105c-7.5,16.33-18.2,21.72-23.78,12l-29.61-51.7c-5.58-9.73-16.91-4.36-25.18,11.94L237.54,184.89c-8.28,16.3-20.39,24.77-26.93,18.83s-16.84,2.47-22.9,18.69l-32.37,86.73L534.08,90.47,494.74,74.26"/><g class="cls-2"><g class="cls-16"><path class="cls-17" d="M364.34,279.07c-26.93-15.55-70.44-15.55-97.19,0l12.75,7.36c19.75-11.48,51.9-11.48,71.78,0s20,30.1.23,41.58l12.75,7.36L351.91,328c19.76-11.48,19.65-30.1-.23-41.58l12.66-7.36"/><path class="cls-15" d="M364.66,335.37,351.91,328c-19.75,11.48-51.9,11.48-71.78,0l-12.67,7.36c26.93,15.55,70.45,15.55,97.2,0"/><path class="cls-15" d="M364.34,279.07l-12.66,7.36c19.88,11.48,20,30.1.23,41.58l12.75,7.36c26.76-15.55,26.61-40.75-.32-56.3"/><path class="cls-18" d="M279.9,286.43l-12.75-7.36c-26.76,15.55-26.62,40.75.31,56.3L280.13,328c-19.88-11.48-20-30.1-.23-41.58"/></g></g><g class="cls-2"><g class="cls-19"><path class="cls-20" d="M590.6,149.27c-26.93-15.54-70.45-15.54-97.21,0l12.76,7.37c19.75-11.48,51.9-11.48,71.78,0s20,30.1.23,41.58l12.76,7.36-12.76-7.36c19.76-11.48,19.66-30.1-.23-41.58l12.67-7.37"/><path class="cls-15" d="M590.92,205.58l-12.76-7.36c-19.75,11.48-51.89,11.48-71.78,0l-12.67,7.36c26.94,15.55,70.45,15.55,97.21,0"/><path class="cls-15" d="M590.6,149.27l-12.67,7.37c19.89,11.48,20,30.1.23,41.58l12.76,7.36c26.76-15.54,26.61-40.75-.32-56.31"/><path class="cls-15" d="M506.15,156.64l-12.76-7.37c-26.75,15.55-26.61,40.76.32,56.31l12.67-7.36c-19.88-11.48-20-30.1-.23-41.58"/></g></g><g class="cls-2"><g class="cls-21"><path class="cls-22" d="M476.25,213c-26.93-15.55-70.44-15.55-97.2,0l12.75,7.36c19.75-11.48,51.91-11.48,71.79,0s20,30.1.23,41.58l12.75,7.36L463.82,262c19.75-11.48,19.65-30.1-.23-41.58L476.25,213"/><path class="cls-23" d="M476.57,269.31,463.82,262c-19.76,11.49-51.91,11.49-71.79,0l-12.66,7.35c26.93,15.55,70.44,15.55,97.2,0"/><path class="cls-15" d="M476.25,213l-12.66,7.36c19.88,11.48,20,30.1.23,41.58l12.75,7.36c26.76-15.55,26.61-40.75-.32-56.3"/><path class="cls-23" d="M391.8,220.37,379.05,213c-26.75,15.55-26.61,40.75.32,56.3L392,262c-19.88-11.48-20-30.11-.23-41.59"/></g></g><g class="cls-2"><g class="cls-24"><path class="cls-25" d="M422.83,225.19a8.85,8.85,0,0,0-9.22.19l-1.84,1.06,2.83,1.64,2-1.18a3.17,3.17,0,0,1,3.41-.19c1,.55,1.09,1.16-.61,2.15-5.45,3.17-12.3.28-17.87,3.52l-2.32,1.35,8.65,5,2.7-1.57-5.66-3.26a2.12,2.12,0,0,1,.38-.26c3.1-1.8,11.28.35,17.22-3.1,3-1.76,3.24-3.65.3-5.34"/><path class="cls-25" d="M437.21,233.74l-7.89-4.55-11.51,6.06,2.83,1.63.57-.33a3.22,3.22,0,0,1,3.41-.19c.95.55,1,1.2-.32,2l-4.16,2.42a3.16,3.16,0,0,1-3.38.18c-.95-.55-1.07-1.18.29-2l1.75-1L416,236.32l-1.56.91c-3,1.76-3.23,3.64-.3,5.34a8.87,8.87,0,0,0,9.22-.19l4.21-2.45c2.78-1.62,3.21-3.16,1-4.43a6.16,6.16,0,0,0-4-.71l4.77-2.48,5.19,3,2.7-1.57"/><path class="cls-25" d="M438.7,254.7c-.62-.36-.62-.77.22-1.26l6.48-3.76a2,2,0,0,1,2.16-.13c.6.35.64.77-.2,1.26l-6.48,3.77a2.09,2.09,0,0,1-2.18.12m10.57-6.14a5.71,5.71,0,0,0-5.91.09l-6.21,3.62c-1.95,1.13-2,2.33-.15,3.42a5.69,5.69,0,0,0,5.91-.09l6.22-3.62c1.94-1.12,2-2.34.14-3.42m6.62-4-1.77-1-26.42,6.66,1.77,1,26.42-6.65m-19.7.7c-.63-.36-.63-.77.2-1.25l6.49-3.77a2,2,0,0,1,2.17-.13c.6.35.62.77-.21,1.26l-6.49,3.77a2,2,0,0,1-2.16.12m10.56-6.14a5.69,5.69,0,0,0-5.91.1l-6.21,3.61c-1.95,1.13-2,2.34-.15,3.42a5.66,5.66,0,0,0,5.91-.09l6.22-3.61c1.94-1.13,2-2.34.14-3.43"/></g></g><g class="cls-2"><g class="cls-26"><path class="cls-25" d="M315.21,296l-7.89-4.55-11.51,6.05,2.82,1.64.57-.33a3.19,3.19,0,0,1,3.42-.19c.95.55,1,1.19-.32,2L298.14,303a3.14,3.14,0,0,1-3.38.17c-1-.55-1.07-1.18.28-2l1.75-1L294,298.58l-1.57.91c-3,1.76-3.23,3.64-.29,5.34a8.83,8.83,0,0,0,9.21-.19l4.22-2.45c2.78-1.61,3.21-3.15,1-4.42a6.05,6.05,0,0,0-4-.71l4.75-2.48,5.2,3,2.7-1.57"/><path class="cls-25" d="M305.55,309.46c-.95-.55-1-1.19.31-2l10.21-5.93a3.19,3.19,0,0,1,3.42-.19c.95.55,1,1.2-.31,2L309,309.28a3.19,3.19,0,0,1-3.41.18m16.64-9.67a9,9,0,0,0-9.3.15l-9.83,5.71c-3,1.76-3.15,3.69-.21,5.38a9,9,0,0,0,9.29-.14l9.83-5.71c3-1.76,3.16-3.69.22-5.39"/><path class="cls-25" d="M327.47,323.18c-.63-.36-.63-.77.2-1.26l6.49-3.76a2,2,0,0,1,2.17-.13c.6.34.62.77-.21,1.26l-6.49,3.77a2.07,2.07,0,0,1-2.16.12M338,317a5.66,5.66,0,0,0-5.91.1l-6.22,3.61c-1.94,1.13-2,2.34-.14,3.42a5.66,5.66,0,0,0,5.91-.09l6.22-3.62c1.94-1.13,2-2.33.14-3.42m6.62-4-1.77-1-26.41,6.65,1.77,1L344.65,313m-19.7.7c-.63-.36-.63-.76.21-1.25l6.49-3.77a2,2,0,0,1,2.16-.13c.6.35.63.77-.21,1.26l-6.49,3.77a2,2,0,0,1-2.16.12m10.56-6.13a5.66,5.66,0,0,0-5.91.09l-6.21,3.61c-1.94,1.13-2,2.34-.14,3.42a5.65,5.65,0,0,0,5.9-.09l6.21-3.61c1.95-1.13,2-2.34.15-3.42"/></g></g><g class="cls-2"><g class="cls-27"><polyline class="cls-25" points="543 164.5 534.02 159.32 531.32 160.89 537.28 164.33 516.69 171.22 519.68 172.95 540.41 166.01 543 164.5"/><path class="cls-25" d="M553.27,170.44l-7.88-4.56L533.87,172l2.83,1.63.57-.33a3.19,3.19,0,0,1,3.42-.19c.95.55,1,1.19-.32,2l-4.16,2.41a3.14,3.14,0,0,1-3.39.18c-1-.55-1.06-1.18.29-2l1.76-1L532,173l-1.57.91c-3,1.76-3.24,3.64-.3,5.34a8.85,8.85,0,0,0,9.22-.19l4.21-2.45c2.79-1.61,3.21-3.15,1-4.43a6.12,6.12,0,0,0-4-.7l4.76-2.48,5.19,3,2.7-1.57"/><path class="cls-25" d="M554.77,191.4c-.63-.37-.63-.77.21-1.26l6.48-3.77a2,2,0,0,1,2.17-.12c.6.34.63.76-.21,1.25l-6.48,3.77a2.09,2.09,0,0,1-2.17.13m10.56-6.15a5.67,5.67,0,0,0-5.9.1L553.21,189c-1.94,1.13-2,2.34-.14,3.42a5.65,5.65,0,0,0,5.9-.09l6.22-3.61c1.94-1.13,2-2.34.14-3.43m6.62-4-1.76-1-26.43,6.66,1.77,1L572,181.22m-19.7.71c-.63-.37-.63-.77.21-1.26l6.48-3.77a2,2,0,0,1,2.17-.12c.6.34.63.77-.21,1.26l-6.48,3.76a2.07,2.07,0,0,1-2.17.13m10.56-6.14a5.65,5.65,0,0,0-5.9.09l-6.22,3.62c-1.94,1.12-2,2.33-.15,3.42a5.73,5.73,0,0,0,5.92-.09l6.21-3.62c2-1.13,2-2.34.14-3.42"/></g></g></g></g></g></svg>